<svg xmlns="http://www.w3.org/2000/svg" xmlns:xlink="http://www.w3.org/1999/xlink" xmlns:lucid="lucid" width="1571.34" height="1308.43"><g transform="translate(-199 -99)" lucid:page-tab-id="pJeX~6l9EA2o"><path d="M460 106a6 6 0 0 1 6-6h111.8a6 6 0 0 1 6 6v49.9a6 6 0 0 1-6 6H466a6 6 0 0 1-6-6z" stroke="#3a414a" stroke-width="2" fill="#fff"/><use xlink:href="#a" transform="matrix(1,0,0,1,465,105) translate(10.796296296296298 30.77777777777778)"/><path d="M600 307.2a6 6 0 0 1 6-6h111.8a6 6 0 0 1 6 6v51.32a6 6 0 0 1-6 6H606a6 6 0 0 1-6-6z" stroke="#3a414a" stroke-width="2" fill="#fff"/><use xlink:href="#b" transform="matrix(1,0,0,1,605,306.1904761904762) translate(24.345679012345684 21.15277777777778)"/><use xlink:href="#c" transform="matrix(1,0,0,1,605,306.1904761904762) translate(7.648148148148145 47.81944444444444)"/><use xlink:href="#d" transform="matrix(1,0,0,1,605,306.1904761904762) translate(81.35185185185185 47.81944444444444)"/><path d="M523.9 163.9v10.87m0 10.86v21.73m0 10.86v21.73m0 10.86v21.74m0 10.86v21.73m0 10.86v10.86l.05.62.15.6.24.6.33.53.4.5.48.4.54.32.57.24.6.15.63.06h8.77m8.77 0h17.53m8.76 0h8.77" stroke="#3a414a" stroke-width="2" fill="none"/><path d="M519.9 163.9v10.87m0 10.86v21.73m0 10.86v21.73m0 10.86v21.74m0 10.86v21.73m0 10.86v10.86l.1 1.25.3 1.23.48 1.16.65 1.06.82.95.95.83 1.07.66 1.16.47 1.22.3 1.25.1h8.77m8.77 0h17.53m8.76 0h8.77" stroke="#3a414a" stroke-width="2" fill="none"/><path d="M524.88 163.93h-1.95v-1.03h1.95zM520.88 163.93h-1.95v-1.03h1.95z" stroke="#3a414a" stroke-width=".05" fill="#3a414a"/><path d="M595.76 332.86l-14.26 4.63v-9.28z" stroke="#3a414a" stroke-width="2" fill="#3a414a"/><path d="M760 369.8a6 6 0 0 1 6-6h491.94a6 6 0 0 1 6 6v78.1a6 6 0 0 1-6 6H766a6 6 0 0 1-6-6z" stroke="#3a414a" stroke-width="2" fill="#edf5ff"/><use xlink:href="#e" transform="matrix(1,0,0,1,765,368.80952380952385) translate(14.839506172839549 30.43402777777778)"/><use xlink:href="#f" transform="matrix(1,0,0,1,765,368.80952380952385) translate(94.16049382716055 30.43402777777778)"/><use xlink:href="#g" transform="matrix(1,0,0,1,765,368.80952380952385) translate(178.54320987654324 30.43402777777778)"/><use xlink:href="#h" transform="matrix(1,0,0,1,765,368.80952380952385) translate(243.23456790123458 30.43402777777778)"/><use xlink:href="#i" transform="matrix(1,0,0,1,765,368.80952380952385) translate(270.33333333333337 30.43402777777778)"/><use xlink:href="#j" transform="matrix(1,0,0,1,765,368.80952380952385) translate(320.2716049382716 30.43402777777778)"/><use xlink:href="#k" transform="matrix(1,0,0,1,765,368.80952380952385) translate(391.75308641975306 30.43402777777778)"/><use xlink:href="#l" transform="matrix(1,0,0,1,765,368.80952380952385) translate(119.12962962962965 57.10069444444445)"/><use xlink:href="#m" transform="matrix(1,0,0,1,765,368.80952380952385) translate(202.8950617283951 57.10069444444445)"/><use xlink:href="#n" transform="matrix(1,0,0,1,765,368.80952380952385) translate(276.16666666666663 57.10069444444445)"/><path d="M725.3 332.86h280.67a6 6 0 0 1 6 6v7.57" stroke="#3a414a" fill="none"/><path d="M725.32 333.33h-.5v-.95h.5z" stroke="#3a414a" stroke-width=".05" fill="#3a414a"/><path d="M1011.97 361.2l-4.64-14.27h9.27z" stroke="#3a414a" fill="#3a414a"/><path d="M740 507.2a6 6 0 0 1 6-6h128a6 6 0 0 1 6 6v51.32a6 6 0 0 1-6 6H746a6 6 0 0 1-6-6z" stroke="#3a414a" stroke-width="2" fill="#fff"/><use xlink:href="#o" transform="matrix(1,0,0,1,745,506.1904761904762) translate(31.728395061728392 21.15277777777778)"/><use xlink:href="#p" transform="matrix(1,0,0,1,745,506.1904761904762) translate(6.697530864197539 47.81944444444444)"/><use xlink:href="#q" transform="matrix(1,0,0,1,745,506.1904761904762) translate(81.6358024691358 47.81944444444444)"/><path d="M920 569.8a6 6 0 0 1 6-6h491.94a6 6 0 0 1 6 6v78.1a6 6 0 0 1-6 6H926a6 6 0 0 1-6-6z" stroke="#3a414a" stroke-width="2" fill="#edf5ff"/><use xlink:href="#e" transform="matrix(1,0,0,1,925,568.8095238095239) translate(35.08641975308643 30.43402777777778)"/><use xlink:href="#f" transform="matrix(1,0,0,1,925,568.8095238095239) translate(114.40740740740743 30.43402777777778)"/><use xlink:href="#r" transform="matrix(1,0,0,1,925,568.8095238095239) translate(198.79012345679013 30.43402777777778)"/><use xlink:href="#s" transform="matrix(1,0,0,1,925,568.8095238095239) translate(264.71604938271605 30.43402777777778)"/><use xlink:href="#i" transform="matrix(1,0,0,1,925,568.8095238095239) translate(308.48148148148147 30.43402777777778)"/><use xlink:href="#t" transform="matrix(1,0,0,1,925,568.8095238095239) translate(358.41975308641975 30.43402777777778)"/><use xlink:href="#u" transform="matrix(1,0,0,1,925,568.8095238095239) translate(68.97530864197532 57.10069444444445)"/><use xlink:href="#l" transform="matrix(1,0,0,1,925,568.8095238095239) translate(161.93827160493828 57.10069444444445)"/><use xlink:href="#m" transform="matrix(1,0,0,1,925,568.8095238095239) translate(245.7037037037037 57.10069444444445)"/><use xlink:href="#v" transform="matrix(1,0,0,1,925,568.8095238095239) translate(318.9753086419753 57.10069444444445)"/><path d="M902.82 707.2a6 6 0 0 1 6-6h111.8a6 6 0 0 1 6 6v51.32a6 6 0 0 1-6 6h-111.8a6 6 0 0 1-6-6z" stroke="#3a414a" stroke-width="2" fill="#fff"/><use xlink:href="#w" transform="matrix(1,0,0,1,907.819647544057,706.1904761904763) translate(8.94444444444445 21.15277777777778)"/><use xlink:href="#x" transform="matrix(1,0,0,1,907.819647544057,706.1904761904763) translate(23.327160493827158 47.81944444444444)"/><path d="M1200 979.8a6 6 0 0 1 6-6h491.94a6 6 0 0 1 6 6v78.1a6 6 0 0 1-6 6H1206a6 6 0 0 1-6-6z" stroke="#3a414a" stroke-width="2" fill="#edf5ff"/><use xlink:href="#e" transform="matrix(1,0,0,1,1205,978.8095238095241) translate(22.21604938271605 20.30902777777778)"/><use xlink:href="#f" transform="matrix(1,0,0,1,1205,978.8095238095241) translate(101.53703703703705 20.30902777777778)"/><use xlink:href="#y" transform="matrix(1,0,0,1,1205,978.8095238095241) translate(185.91975308641975 20.30902777777778)"/><use xlink:href="#z" transform="matrix(1,0,0,1,1205,978.8095238095241) translate(225.98148148148147 20.30902777777778)"/><use xlink:href="#i" transform="matrix(1,0,0,1,1205,978.8095238095241) translate(248.2037037037037 20.30902777777778)"/><use xlink:href="#A" transform="matrix(1,0,0,1,1205,978.8095238095241) translate(298.141975308642 20.30902777777778)"/><use xlink:href="#k" transform="matrix(1,0,0,1,1205,978.8095238095241) translate(384.37654320987656 20.30902777777778)"/><use xlink:href="#B" transform="matrix(1,0,0,1,1205,978.8095238095241) translate(9.314814814814838 46.97569444444444)"/><use xlink:href="#C" transform="matrix(1,0,0,1,1205,978.8095238095241) translate(68.45061728395063 46.97569444444444)"/><use xlink:href="#D" transform="matrix(1,0,0,1,1205,978.8095238095241) translate(195.91975308641975 46.97569444444444)"/><use xlink:href="#E" transform="matrix(1,0,0,1,1205,978.8095238095241) translate(261.9691358024691 46.97569444444444)"/><use xlink:href="#F" transform="matrix(1,0,0,1,1205,978.8095238095241) translate(401.84567901234567 46.97569444444444)"/><use xlink:href="#G" transform="matrix(1,0,0,1,1205,978.8095238095241) translate(204.37654320987653 73.64236111111111)"/><path d="M812 566.52v10.7m0 10.68v21.38m0 10.7v21.37m0 10.68v21.38m0 10.7v21.38m0 10.7v10.68l.05.62.15.6.24.6.32.53.4.5.5.4.52.32.58.24.6.15.64.06h11.22m11.22 0h22.44m11.22 0h11.22" stroke="#3a414a" stroke-width="2" fill="none"/><path d="M808 566.52v10.7m0 10.68v21.38m0 10.7v21.37m0 10.68v21.38m0 10.7v21.38m0 10.7v10.68l.1 1.25.3 1.23.47 1.16.66 1.06.8.95.97.83 1.07.65 1.16.5 1.22.28 1.25.1h11.22m11.22 0h22.44m11.22 0h11.22" stroke="#3a414a" stroke-width="2" fill="none"/><path d="M812.98 566.55H811v-1.03H813zM808.98 566.55H807v-1.03H809z" stroke="#3a414a" stroke-width=".05" fill="#3a414a"/><path d="M898.58 732.86l-14.26 4.63v-9.28z" stroke="#3a414a" stroke-width="2" fill="#3a414a"/><path d="M1043.2 678h-72.46l-.88.08-.84.2-.8.34-.74.45-.66.56-.56.66-.46.73-.33.8-.2.84-.07.9v.24h-.95v-.28l.08-1 .24-.98.38-.94.53-.87.66-.77.78-.66.86-.53.94-.4 1-.23 1-.08h72.47zm129.24-6.44l-.08 1-.23.98-.4.94-.52.87-.65.77-.77.66-.87.53-.93.4-1 .24-.98.07h-72.5v-.94h72.45l.88-.06.85-.2.8-.34.73-.45.67-.55.57-.66.45-.75.32-.8.2-.85.07-.88V655.4h.94z" stroke="#3a414a" stroke-width=".05" fill="#3a414a"/><path d="M1172.44 655.4h-.95v-.5h.94z" fill="#3a414a"/><path stroke="#3a414a" stroke-width=".05" fill="#3a414a"/><path d="M964.72 698.57l-4.63-14.26h9.26z" fill="#3a414a"/><path d="M964.72 700.1l-5.3-16.27h10.6zm-3.98-15.32l3.98 12.25 4-12.25z" stroke="#3a414a" stroke-width=".05" fill="#3a414a"/><use xlink:href="#H" transform="matrix(1,0,0,1,1043.185962865753,666.8727033333333) translate(0 14.222222222222223)"/><path d="M663.9 366.52v10.7m0 10.68v21.38m0 10.7v21.37m0 10.7v21.36m0 10.7v21.38m0 10.7v10.68l.05.62.15.6.24.6.33.53.4.5.48.4.54.32.57.24.6.15.63.06h8.77m8.77 0h17.53m8.76 0h8.77" stroke="#3a414a" stroke-width="2" fill="none"/><path d="M659.9 366.52v10.7m0 10.68v21.38m0 10.7v21.37m0 10.7v21.36m0 10.7v21.38m0 10.7v10.68l.1 1.25.3 1.23.48 1.16.65 1.06.82.95.95.83 1.07.65 1.16.5 1.22.28 1.25.1h8.77m8.77 0h17.53m8.76 0h8.77" stroke="#3a414a" stroke-width="2" fill="none"/><path d="M664.88 366.55h-1.95v-1.03h1.95zM660.88 366.55h-1.95v-1.03h1.95z" stroke="#3a414a" stroke-width=".05" fill="#3a414a"/><path d="M735.76 532.86l-14.26 4.63v-9.28z" stroke="#3a414a" stroke-width="2" fill="#3a414a"/><path d="M885.82 478h-69.8l-.88.08-.85.2-.8.34-.75.45-.66.56-.57.66-.45.73-.33.8-.2.85-.07.88v.25h-.96v-.28l.08-1 .24-.98.4-.94.52-.87.66-.77.77-.66.86-.53.94-.4 1-.23.98-.08h69.84zm126.62-6.44l-.08 1-.23.98-.4.94-.52.87-.65.77-.77.66-.87.53-.93.4-1 .24-.98.07h-69.86v-.94h69.8l.9-.06.83-.2.8-.34.75-.45.65-.56.57-.65.45-.75.32-.8.2-.85.07-.88V455.4h.94z" stroke="#3a414a" stroke-width=".05" fill="#3a414a"/><path d="M1012.44 455.4h-.95v-.5h.94z" fill="#3a414a"/><path stroke="#3a414a" stroke-width=".05" fill="#3a414a"/><path d="M810 498.57l-4.63-14.26h9.26z" fill="#3a414a"/><path d="M810 500.1l-5.3-16.27h10.6zm-3.98-15.32l3.98 12.26 3.98-12.26z" stroke="#3a414a" stroke-width=".05" fill="#3a414a"/><use xlink:href="#H" transform="matrix(1,0,0,1,885.8237581413434,466.8727033333332) translate(0 14.222222222222223)"/><path d="M881.5 532.86h284.47a6 6 0 0 1 6 6v7.57" stroke="#3a414a" fill="none"/><path d="M881.5 533.33h-.5v-.95h.5z" stroke="#3a414a" stroke-width=".05" fill="#3a414a"/><path d="M1171.97 561.2l-4.64-14.27h9.27z" stroke="#3a414a" fill="#3a414a"/><path d="M1465.4 602.87l-.07 1-.23.98-.4.94-.52.86-.66.77-.78.66-.86.52-.94.4-1 .23-.98.07h-33.52v-.95h33.48l.88-.07.84-.2.8-.33.74-.45.66-.57.57-.65.46-.74.33-.8.2-.85.06-.87v-163.3h.95zm-5.45-194.42l1 .24.93.38.86.53.78.67.66.77.53.87.4.95.23 1 .08.98v3.35h-.94v-3.3l-.07-.9-.2-.84-.34-.8-.45-.74-.56-.66-.66-.56-.74-.45-.8-.33-.84-.2-.88-.08h-177.6v-.95h177.64z" stroke="#3a414a" stroke-width=".05" fill="#3a414a"/><path d="M1425.45 609.32h-.5v-.95h.5z" fill="#3a414a"/><path stroke="#3a414a" stroke-width=".05" fill="#3a414a"/><path d="M1280.82 413.48l-14.26-4.63 14.26-4.64z" fill="#3a414a"/><path d="M1281.3 414.14l-16.28-5.3 16.28-5.28zm-13.2-5.3l12.25 4v-7.97z" stroke="#3a414a" stroke-width=".05" fill="#3a414a"/><use xlink:href="#I" transform="matrix(1,0,0,1,1439.5295505925935,418.1822272215973) translate(0 14.222222222222223)"/><path d="M1745.4 1012.87l-.07 1-.23.98-.4.94-.52.86-.66.77-.78.66-.86.52-.94.4-1 .23-.98.07h-33.52v-.95h33.48l.88-.07.84-.2.8-.33.74-.45.66-.57.57-.65.46-.74.33-.8.2-.85.06-.87v-153.3h.95zm-5.45-194.42l1 .24.93.38.86.53.78.67.66.77.53.87.4.95.23 1 .08.98v13.35h-.94v-13.3l-.07-.9-.2-.84-.34-.8-.45-.74-.56-.66-.66-.56-.74-.45-.8-.33-.84-.2-.88-.08h-157.6v-.95h157.64z" stroke="#3a414a" stroke-width=".05" fill="#3a414a"/><path d="M1705.45 1019.32h-.5v-.95h.5z" fill="#3a414a"/><path stroke="#3a414a" stroke-width=".05" fill="#3a414a"/><path d="M1580.82 823.48l-14.26-4.63 14.26-4.64z" fill="#3a414a"/><path d="M1581.3 824.14l-16.28-5.3 16.28-5.28zm-13.2-5.3l12.25 4v-7.97z" stroke="#3a414a" stroke-width=".05" fill="#3a414a"/><use xlink:href="#I" transform="matrix(1,0,0,1,1719.5295505925935,838.1822272215976) translate(0 14.222222222222223)"/><path d="M612.5 167.9a6 6 0 0 1 6-6h491.92a6 6 0 0 1 6 6V246a6 6 0 0 1-6 6H618.5a6 6 0 0 1-6-6z" stroke="#3a414a" stroke-width="2" fill="#edf5ff"/><use xlink:href="#e" transform="matrix(1,0,0,1,617.4859392575929,166.90476190476193) translate(9.59259259259261 30.43402777777778)"/><use xlink:href="#f" transform="matrix(1,0,0,1,617.4859392575929,166.90476190476193) translate(88.91358024691361 30.43402777777778)"/><use xlink:href="#J" transform="matrix(1,0,0,1,617.4859392575929,166.90476190476193) translate(173.2962962962963 30.43402777777778)"/><use xlink:href="#i" transform="matrix(1,0,0,1,617.4859392575929,166.90476190476193) translate(276.81481481481484 30.43402777777778)"/><use xlink:href="#K" transform="matrix(1,0,0,1,617.4859392575929,166.90476190476193) translate(326.7530864197531 30.43402777777778)"/><use xlink:href="#k" transform="matrix(1,0,0,1,617.4859392575929,166.90476190476193) translate(397 30.43402777777778)"/><use xlink:href="#B" transform="matrix(1,0,0,1,617.4859392575929,166.90476190476193) translate(120.9814814814815 57.10069444444445)"/><use xlink:href="#m" transform="matrix(1,0,0,1,617.4859392575929,166.90476190476193) translate(180.1172839506173 57.10069444444445)"/><use xlink:href="#L" transform="matrix(1,0,0,1,617.4859392575929,166.90476190476193) translate(253.38888888888889 57.10069444444445)"/><use xlink:href="#M" transform="matrix(1,0,0,1,617.4859392575929,166.90476190476193) translate(327.0925925925926 57.10069444444445)"/><path d="M738.02 277.06h-70.1l-.88.07-.84.2-.8.34-.74.45-.66.56-.56.66-.46.74-.33.8-.2.84-.07.9v1.2h-.95v-1.25l.08-1 .25-.98.38-.95.53-.87.67-.77.77-.65.87-.53.93-.4 1-.23 1-.1H738zm126.9-6.45l-.07 1-.24 1-.38.93-.53.86-.67.77-.77.66-.87.53-.94.4-1 .22-1 .08h-70.12v-.95h70.1l.88-.06.84-.2.8-.33.74-.44.66-.57.56-.67.46-.73.33-.8.2-.85.08-.88v-17.1h.95z" stroke="#3a414a" stroke-width=".05" fill="#3a414a"/><path d="M864.93 253.5h-.95v-.52h.95z" fill="#3a414a"/><path stroke="#3a414a" stroke-width=".05" fill="#3a414a"/><path d="M661.9 298.57l-4.63-14.26h9.27z" fill="#3a414a"/><path d="M661.9 300.1l-5.28-16.27h10.57zm-3.98-15.32l4 12.26 3.97-12.26z" stroke="#3a414a" stroke-width=".05" fill="#3a414a"/><use xlink:href="#H" transform="matrix(1,0,0,1,738.0191087225209,265.92032238095226) translate(0 14.222222222222223)"/><path d="M1305.4 402.87l-.07 1-.23.98-.4.94-.52.86-.66.77-.78.66-.86.52-.94.4-1 .23-.98.07h-33.52v-.95h33.48l.88-.07.84-.2.8-.33.74-.45.66-.56.57-.66.46-.74.33-.8.2-.85.06-.87V244.8h.95zm-5.45-196.32l1 .23.93.4.86.53.78.67.66.77.53.86.4.94.23 1 .08 1v10.53h-.94v-10.5l-.07-.9-.2-.83-.34-.8-.45-.74-.56-.66-.66-.56-.74-.46-.8-.33-.84-.2-.88-.08h-165.1v-.95h165.14z" stroke="#3a414a" stroke-width=".05" fill="#3a414a"/><path d="M1265.45 409.32h-.5v-.95h.5z" fill="#3a414a"/><path stroke="#3a414a" stroke-width=".05" fill="#3a414a"/><path d="M1133.3 211.58l-14.26-4.64 14.27-4.63z" fill="#3a414a"/><path d="M1133.78 212.23l-16.28-5.3 16.28-5.28zm-13.2-5.3l12.25 4v-7.97z" stroke="#3a414a" stroke-width=".05" fill="#3a414a"/><use xlink:href="#I" transform="matrix(1,0,0,1,1279.5295505925935,223.47281589801284) translate(0 14.222222222222223)"/><path d="M1166.63 1108.14a6 6 0 0 1 6-6h111.8a6 6 0 0 1 6 6v51.34a6 6 0 0 1-6 6h-111.8a6 6 0 0 1-6-6z" stroke="#3a414a" stroke-width="2" fill="#fff"/><use xlink:href="#N" transform="matrix(1,0,0,1,1171.629171353581,1107.1428571428567) translate(16.351851851851855 21.15277777777778)"/><use xlink:href="#O" transform="matrix(1,0,0,1,1171.629171353581,1107.1428571428567) translate(11.969135802469133 47.81944444444444)"/><use xlink:href="#P" transform="matrix(1,0,0,1,1171.629171353581,1107.1428571428567) translate(75.85802469135803 47.81944444444444)"/><path d="M966.72 766.52v9.43m0 9.42v18.85m0 9.42v18.85m0 9.4v18.86m0 9.42v18.85m0 9.42v18.85m0 9.42v9.42l.05.63.15.6.24.6.33.52.4.47.47.4.54.34.6.25.6.14.62.04h10.57m10.56 0h10.57" stroke="#3a414a" stroke-width="2" fill="none"/><path d="M962.72 766.52v9.43m0 9.42v18.85m0 9.42v18.85m0 9.4v18.86m0 9.42v18.85m0 9.42v18.85m0 9.42v9.42l.1 1.25.3 1.22.48 1.15.65 1.08.82.95.95.82 1.07.65 1.15.48 1.22.3 1.25.1h10.57m10.56 0h10.57" stroke="#3a414a" stroke-width="2" fill="none"/><path d="M967.7 766.55h-1.95v-1.03h1.95zM963.7 766.55h-1.95v-1.03h1.95z" stroke="#3a414a" stroke-width=".05" fill="#3a414a"/><path d="M1017.7 942.14l-14.27 4.64v-9.27z" stroke="#3a414a" stroke-width="2" fill="#3a414a"/><path d="M1315.1 1083.5h-85.02l-.2.05-.18.08-.17.1-.15.13-.13.15-.1.18-.08.2-.04.18-.02.24-.94-.08.03-.3.07-.35.13-.32.18-.3.23-.26.27-.24.3-.18.32-.13.33-.08.33-.03h84.83zm137.34-6.47l-.08 1-.23 1-.4.93-.52.86-.65.78-.77.66-.87.53-.93.38-1 .23-.98.1h-80.6v-.96h80.55l.88-.07.85-.2.8-.33.73-.46.67-.56.57-.66.45-.74.32-.8.2-.84.07-.88v-11.6h.94z" stroke="#3a414a" stroke-width=".05" fill="#3a414a"/><path d="M1452.44 1065.4h-.95v-.5h.94z" fill="#3a414a"/><path stroke="#3a414a" stroke-width=".05" fill="#3a414a"/><path d="M1228.53 1099.53l-4.63-14.27h9.27z" fill="#3a414a"/><path d="M1228.53 1101.06l-5.3-16.28h10.6zm-3.98-15.33l3.98 12.26 4-12.27z" stroke="#3a414a" stroke-width=".05" fill="#3a414a"/><use xlink:href="#H" transform="matrix(1,0,0,1,1315.0907247899372,1072.3488938095236) translate(0 14.222222222222223)"/><path d="M760 1199.8a6 6 0 0 1 6-6h491.94a6 6 0 0 1 6 6v78.1a6 6 0 0 1-6 6H766a6 6 0 0 1-6-6z" stroke="#3a414a" stroke-width="2" fill="#edf5ff"/><use xlink:href="#e" transform="matrix(1,0,0,1,765,1198.809523809524) translate(20.580246913580282 30.43402777777778)"/><use xlink:href="#f" transform="matrix(1,0,0,1,765,1198.809523809524) translate(99.90123456790128 30.43402777777778)"/><use xlink:href="#g" transform="matrix(1,0,0,1,765,1198.809523809524) translate(184.28395061728398 30.43402777777778)"/><use xlink:href="#h" transform="matrix(1,0,0,1,765,1198.809523809524) translate(248.97530864197532 30.43402777777778)"/><use xlink:href="#i" transform="matrix(1,0,0,1,765,1198.809523809524) translate(276.0740740740741 30.43402777777778)"/><use xlink:href="#Q" transform="matrix(1,0,0,1,765,1198.809523809524) translate(326.01234567901236 30.43402777777778)"/><use xlink:href="#k" transform="matrix(1,0,0,1,765,1198.809523809524) translate(386.01234567901236 30.43402777777778)"/><use xlink:href="#l" transform="matrix(1,0,0,1,765,1198.809523809524) translate(63.574074074074076 57.10069444444445)"/><use xlink:href="#C" transform="matrix(1,0,0,1,765,1198.809523809524) translate(147.3395061728395 57.10069444444445)"/><use xlink:href="#R" transform="matrix(1,0,0,1,765,1198.809523809524) translate(274.8086419753086 57.10069444444445)"/><use xlink:href="#S" transform="matrix(1,0,0,1,765,1198.809523809524) translate(338.2654320987654 57.10069444444445)"/><path d="M1461.35 1313.02l1 .08 1 .23.92.4.87.52.77.66.67.78.53.87.4.94.23.98.08 1v6.23h-.94v-6.2l-.07-.87-.2-.85-.34-.8-.46-.74-.56-.65-.66-.58-.74-.45-.8-.33-.84-.2-.88-.07h-196.5v-.95zm-448.84-4.66l.22.84.33.8.45.74.56.66.66.56.74.45.8.34.84.2.9.08h196.5v.95h-196.55l-1-.08-.98-.25-.94-.4-.87-.52-.77-.66-.67-.77-.53-.87-.4-.94-.23-1-.08-1v-22.1h.94v22.07z" stroke="#3a414a" stroke-width=".05" fill="#3a414a"/><path d="M1012.44 1285.4h-.95v-.5h.94z" fill="#3a414a"/><path stroke="#3a414a" stroke-width=".05" fill="#3a414a"/><path d="M1467.33 1340.48l-4.63-14.27h9.27z" fill="#3a414a"/><path d="M1467.33 1342l-5.3-16.26h10.6zm-3.98-15.3l3.98 12.24 4-12.25z" stroke="#3a414a" stroke-width=".05" fill="#3a414a"/><use xlink:href="#H" transform="matrix(1,0,0,1,1214.4904248274183,1302.825084285714) translate(0 14.222222222222223)"/><path d="M1405.43 1349.1a6 6 0 0 1 6-6h111.8a6 6 0 0 1 6 6v51.33a6 6 0 0 1-6 6h-111.8a6 6 0 0 1-6-6z" stroke="#3a414a" stroke-width="2" fill="#fff"/><use xlink:href="#T" transform="matrix(1,0,0,1,1410.4285714285431,1348.0952380952378) translate(29.469135802469136 21.15277777777778)"/><use xlink:href="#U" transform="matrix(1,0,0,1,1410.4285714285431,1348.0952380952378) translate(4.438271604938272 47.81944444444444)"/><use xlink:href="#q" transform="matrix(1,0,0,1,1410.4285714285431,1348.0952380952378) translate(67.89506172839506 47.81944444444444)"/><path d="M1231.37 1368.72l.04.5.12.48.18.43.25.4.3.37.37.3.4.25.44.2.46.1.5.04h10.08v1.94h-10.14l-.74-.06-.76-.18-.72-.3-.67-.4-.6-.52-.5-.6-.4-.66-.3-.72-.2-.76-.05-.74v-9.62h1.95zm43.43 5.02h-20.2v-1.95h20.2zm30.3 0h-20.2v-1.95h20.2zm30.32 0h-20.2v-1.95h20.2zm30.3 0h-20.2v-1.95h20.2zm20.2 0h-10.1v-1.95h10.1zm-154.55-24.15h-1.95v-19.18h1.95zm0-46.77h-1.95v-1.16h1.95zm0-10.75h-1.95v-19.17h1.95zm0-28.75h-1.95v-19.17h1.95zm0-28.76h-1.95v-19.17h1.95zm0-28.75h-1.95v-19.17h1.95zm0-28.76h-1.95v-9.58h1.95z" stroke="#3a414a" stroke-width=".05" fill="#3a414a"/><path d="M1227.37 1368.72l.1 1.14.25 1.07.42 1.02.57.94.73.83.84.7.94.6 1.02.4 1.08.27 1.13.1h10.07v1.94h-10.14l-1.37-.1-1.38-.34-1.3-.54-1.2-.73-1.07-.92-.92-1.06-.74-1.2-.54-1.3-.33-1.37-.1-1.37v-9.62h1.94zm47.43 9.02h-20.2v-1.95h20.2zm30.3 0h-20.2v-1.95h20.2zm30.32 0h-20.2v-1.95h20.2zm30.3 0h-20.2v-1.95h20.2zm20.2 0h-10.1v-1.95h10.1zm-158.55-28.15h-1.95v-19.18h1.95zm0-46.77h-1.95v-1.16h1.95zm0-10.75h-1.95v-19.17h1.95zm0-28.75h-1.95v-19.17h1.95zm0-28.76h-1.95v-19.17h1.95zm0-28.75h-1.95v-19.17h1.95zm0-28.76h-1.95v-9.58h1.95z" stroke="#3a414a" stroke-width=".05" fill="#3a414a"/><path d="M1231.37 1167.5h-1.95v-1.02h1.95z" fill="#3a414a"/><path stroke="#3a414a" stroke-width=".05" fill="#3a414a"/><path d="M1227.37 1167.5h-1.95v-1.02h1.95z" fill="#3a414a"/><path stroke="#3a414a" stroke-width=".05" fill="#3a414a"/><path d="M1401.2 1374.76l-14.27 4.64v-9.27z" fill="#3a414a"/><path d="M1404.35 1374.76l-18.4 5.98v-11.95zm-16.45 3.3l10.14-3.3-10.14-3.3z" stroke="#3a414a" stroke-width=".05" fill="#3a414a"/><path d="M661.9 366.02v866.83a6 6 0 0 0 6 6h74.72" stroke="#3a414a" fill="none"/><path d="M662.38 366.04h-.95v-.52h.95z" stroke="#3a414a" stroke-width=".05" fill="#3a414a"/><path d="M757.38 1238.85l-14.26 4.63v-9.27z" stroke="#3a414a" fill="#3a414a"/><path d="M1060 779.8a6 6 0 0 1 6-6h491.94a6 6 0 0 1 6 6v78.1a6 6 0 0 1-6 6H1066a6 6 0 0 1-6-6z" stroke="#3a414a" stroke-width="2" fill="#edf5ff"/><g><use xlink:href="#e" transform="matrix(1,0,0,1,1065,778.8095238095241) translate(21.259259259259295 20.30902777777778)"/><use xlink:href="#f" transform="matrix(1,0,0,1,1065,778.8095238095241) translate(100.5802469135803 20.30902777777778)"/><use xlink:href="#r" transform="matrix(1,0,0,1,1065,778.8095238095241) translate(184.962962962963 20.30902777777778)"/><use xlink:href="#V" transform="matrix(1,0,0,1,1065,778.8095238095241) translate(250.8888888888889 20.30902777777778)"/><use xlink:href="#i" transform="matrix(1,0,0,1,1065,778.8095238095241) translate(289.77777777777777 20.30902777777778)"/><use xlink:href="#W" transform="matrix(1,0,0,1,1065,778.8095238095241) translate(339.71604938271605 20.30902777777778)"/><use xlink:href="#k" transform="matrix(1,0,0,1,1065,778.8095238095241) translate(385.3333333333333 20.30902777777778)"/><use xlink:href="#X" transform="matrix(1,0,0,1,1065,778.8095238095241) translate(24.83950617283955 46.97569444444444)"/><use xlink:href="#C" transform="matrix(1,0,0,1,1065,778.8095238095241) translate(108.60493827160498 46.97569444444444)"/><use xlink:href="#Y" transform="matrix(1,0,0,1,1065,778.8095238095241) translate(236.07407407407408 46.97569444444444)"/><use xlink:href="#Z" transform="matrix(1,0,0,1,1065,778.8095238095241) translate(285.14814814814815 46.97569444444444)"/><use xlink:href="#aa" transform="matrix(1,0,0,1,1065,778.8095238095241) translate(334.8395061728395 46.97569444444444)"/><use xlink:href="#ab" transform="matrix(1,0,0,1,1065,778.8095238095241) translate(160.179012345679 73.64236111111111)"/><use xlink:href="#G" transform="matrix(1,0,0,1,1065,778.8095238095241) translate(248.57407407407408 73.64236111111111)"/></g><path d="M1028.13 732.86h277.84a6 6 0 0 1 6 6v17.57" stroke="#3a414a" fill="none"/><path d="M1028.14 733.33h-.5v-.95h.5z" stroke="#3a414a" stroke-width=".05" fill="#3a414a"/><path d="M1311.97 771.2l-4.64-14.27h9.27z" stroke="#3a414a" fill="#3a414a"/><path d="M1021.93 916.48a6 6 0 0 1 6-6h111.8a6 6 0 0 1 6 6v51.33a6 6 0 0 1-6 6h-111.8a6 6 0 0 1-6-6z" stroke="#3a414a" stroke-width="2" fill="#fff"/><g><use xlink:href="#ac" transform="matrix(1,0,0,1,1026.9347581552306,915.4761904761907) translate(4.716049382716044 21.15277777777778)"/><use xlink:href="#ad" transform="matrix(1,0,0,1,1026.9347581552306,915.4761904761907) translate(50.95061728395061 21.15277777777778)"/><use xlink:href="#ae" transform="matrix(1,0,0,1,1026.9347581552306,915.4761904761907) translate(26.90740740740741 47.81944444444444)"/><use xlink:href="#af" transform="matrix(1,0,0,1,1026.9347581552306,915.4761904761907) translate(66.96913580246914 47.81944444444444)"/></g><path d="M1092.4 975.8v10.14m0 10.14v20.26m0 10.14v20.26m0 10.14v20.26m0 10.14v20.26m0 10.14v10.13l.05.63.14.62.24.58.32.53.4.48.5.4.52.33.58.24.6.16.64.05h8.45m8.46 0h16.92m8.45 0h8.46" stroke="#3a414a" stroke-width="2" fill="none"/><path d="M1088.4 975.8v10.14m0 10.14v20.26m0 10.14v20.26m0 10.14v20.26m0 10.14v20.26m0 10.14v10.13l.1 1.26.3 1.22.47 1.16.66 1.07.8.97.97.8 1.07.67 1.16.48 1.22.3 1.25.1h8.45m8.46 0h16.92m8.45 0h8.46" stroke="#3a414a" stroke-width="2" fill="none"/><path d="M1093.37 975.84h-1.95v-1.03h1.95zM1089.37 975.84h-1.95v-1.03h1.95z" stroke="#3a414a" stroke-width=".05" fill="#3a414a"/><path d="M1162.4 1133.8l-14.27 4.64v-9.27z" stroke="#3a414a" stroke-width="2" fill="#3a414a"/><path d="M1172.74 887.66h-82.97l-.87.07-.83.2-.8.32-.7.45-.66.55-.55.65-.44.73-.32.78-.2.84-.07.9-.93-.1.07-.95.24-.98.38-.93.52-.86.65-.76.77-.66.85-.52.93-.38.97-.24.98-.07h83zm139.7-6.46l-.08 1-.23.98-.4.94-.52.87-.65.76-.77.66-.87.53-.93.4-1 .23-.98.08h-82.93v-.95h82.88l.88-.06.85-.2.8-.34.73-.45.67-.56.57-.67.45-.74.32-.8.2-.85.07-.9V865.4h.94z" stroke="#3a414a" stroke-width=".05" fill="#3a414a"/><path d="M1312.44 865.4h-.95v-.5h.94z" fill="#3a414a"/><path stroke="#3a414a" stroke-width=".05" fill="#3a414a"/><path d="M1083.84 907.86l-4.64-14.27h9.27z" fill="#3a414a"/><path d="M1083.84 909.4l-5.3-16.28h10.6zm-3.98-15.33l3.98 12.25 3.98-12.25z" stroke="#3a414a" stroke-width=".05" fill="#3a414a"/><g><use xlink:href="#H" transform="matrix(1,0,0,1,1172.743518190762,876.5155604761907) translate(0 14.222222222222223)"/></g><path d="M1147.24 942.14h298.73a6 6 0 0 1 6 6v8.3" stroke="#3a414a" fill="none"/><path d="M1147.26 942.62h-.52v-.95h.52z" stroke="#3a414a" stroke-width=".05" fill="#3a414a"/><path d="M1451.97 971.2l-4.64-14.27h9.27z" stroke="#3a414a" fill="#3a414a"/><path d="M1605.4 812.87l-.07 1-.23.98-.4.94-.52.86-.66.77-.78.66-.86.52-.94.4-1 .23-.98.07h-33.52v-.95h33.48l.88-.07.84-.2.8-.33.74-.45.66-.57.57-.65.46-.74.33-.8.2-.85.06-.87v-158.3h.95zm-5.45-204.42l1 .24.93.38.86.53.78.67.66.77.53.87.4.95.23 1 .08.98v18.35h-.94v-18.3l-.07-.9-.2-.84-.34-.8-.45-.74-.56-.66-.66-.56-.74-.45-.8-.33-.84-.2-.88-.08h-157.6v-.95h157.64z" stroke="#3a414a" stroke-width=".05" fill="#3a414a"/><path d="M1565.45 819.32h-.5v-.95h.5z" fill="#3a414a"/><path stroke="#3a414a" stroke-width=".05" fill="#3a414a"/><path d="M1440.82 613.48l-14.26-4.63 14.26-4.64z" fill="#3a414a"/><path d="M1441.3 614.14l-16.28-5.3 16.28-5.28zm-13.2-5.3l12.25 4v-7.97z" stroke="#3a414a" stroke-width=".05" fill="#3a414a"/><g><use xlink:href="#I" transform="matrix(1,0,0,1,1579.5295505925935,633.1822272215975) translate(0 14.222222222222223)"/></g><path d="M585.3 130.95h273.15a6 6 0 0 1 6 6v7.57" stroke="#3a414a" fill="none"/><path d="M585.32 131.43h-.5v-.95h.5z" stroke="#3a414a" stroke-width=".05" fill="#3a414a"/><path d="M864.45 159.3L859.82 145h9.27z" stroke="#3a414a" fill="#3a414a"/><path d="M200 106a6 6 0 0 1 6-6h208a6 6 0 0 1 6 6v49.9a6 6 0 0 1-6 6H206a6 6 0 0 1-6-6z" stroke="#3a414a" stroke-width="2" fill="#f7f4e4"/><g><use xlink:href="#ag" transform="matrix(1,0,0,1,205,105) translate(13.518518518518519 30.77777777777778)"/><use xlink:href="#ah" transform="matrix(1,0,0,1,205,105) translate(89.38271604938272 30.77777777777778)"/></g><path d="M200 306.48a6 6 0 0 1 6-6h208a6 6 0 0 1 6 6v51.33a6 6 0 0 1-6 6H206a6 6 0 0 1-6-6z" stroke="#3a414a" stroke-width="2" fill="#f7f4e4"/><g><use xlink:href="#ag" transform="matrix(1,0,0,1,205,305.476190476195) translate(19.382716049382708 31.27777777777778)"/><use xlink:href="#ai" transform="matrix(1,0,0,1,205,305.476190476195) translate(95.24691358024691 31.27777777777778)"/><use xlink:href="#aj" transform="matrix(1,0,0,1,205,305.476190476195) translate(167.28395061728395 31.27777777777778)"/></g><path d="M200 506.48a6 6 0 0 1 6-6h208a6 6 0 0 1 6 6v51.33a6 6 0 0 1-6 6H206a6 6 0 0 1-6-6z" stroke="#3a414a" stroke-width="2" fill="#f7f4e4"/><g><use xlink:href="#ag" transform="matrix(1,0,0,1,205,505.47619047618474) translate(10.432098765432102 31.27777777777778)"/><use xlink:href="#ak" transform="matrix(1,0,0,1,205,505.47619047618474) translate(86.2962962962963 31.27777777777778)"/><use xlink:href="#al" transform="matrix(1,0,0,1,205,505.47619047618474) translate(159.5679012345679 31.27777777777778)"/></g><path d="M200 707.2a6 6 0 0 1 6-6h208a6 6 0 0 1 6 6v51.32a6 6 0 0 1-6 6H206a6 6 0 0 1-6-6z" stroke="#3a414a" stroke-width="2" fill="#f7f4e4"/><g><use xlink:href="#ag" transform="matrix(1,0,0,1,205,706.1904761905038) translate(18.425925925925924 21.15277777777778)"/><use xlink:href="#am" transform="matrix(1,0,0,1,205,706.1904761905038) translate(94.29012345679013 21.15277777777778)"/><use xlink:href="#an" transform="matrix(1,0,0,1,205,706.1904761905038) translate(76.66666666666667 47.81944444444444)"/></g><path d="M200 916.48a6 6 0 0 1 6-6h208a6 6 0 0 1 6 6v51.33a6 6 0 0 1-6 6H206a6 6 0 0 1-6-6z" stroke="#3a414a" stroke-width="2" fill="#f7f4e4"/><g><use xlink:href="#ag" transform="matrix(1,0,0,1,205,915.4761904761848) translate(6.697530864197532 31.27777777777778)"/><use xlink:href="#ao" transform="matrix(1,0,0,1,205,915.4761904761848) translate(82.56172839506173 31.27777777777778)"/><use xlink:href="#y" transform="matrix(1,0,0,1,205,915.4761904761848) translate(144.78395061728395 31.27777777777778)"/><use xlink:href="#ap" transform="matrix(1,0,0,1,205,915.4761904761848) translate(184.84567901234567 31.27777777777778)"/></g><path d="M200 1108.14a6 6 0 0 1 6-6h208a6 6 0 0 1 6 6v51.34a6 6 0 0 1-6 6H206a6 6 0 0 1-6-6z" stroke="#3a414a" stroke-width="2" fill="#f7f4e4"/><g><use xlink:href="#ag" transform="matrix(1,0,0,1,205,1107.1428571428125) translate(10.370370370370367 21.15277777777778)"/><use xlink:href="#ao" transform="matrix(1,0,0,1,205,1107.1428571428125) translate(86.23456790123457 21.15277777777778)"/><use xlink:href="#y" transform="matrix(1,0,0,1,205,1107.1428571428125) translate(148.4567901234568 21.15277777777778)"/><use xlink:href="#aq" transform="matrix(1,0,0,1,205,1107.1428571428125) translate(188.51851851851853 21.15277777777778)"/><use xlink:href="#ar" transform="matrix(1,0,0,1,205,1107.1428571428125) translate(92.74691358024691 47.81944444444444)"/></g><path d="M310 163.4v119.7" stroke="#3a414a" fill="none"/><path d="M310.48 163.42h-.96v-.5h.96z" stroke="#3a414a" stroke-width=".05" fill="#3a414a"/><path d="M310 297.86l-4.63-14.27h9.26z" stroke="#3a414a" fill="#3a414a"/><path d="M310 365.3v117.8" stroke="#3a414a" fill="none"/><path d="M310.48 365.32h-.96v-.5h.96z" stroke="#3a414a" stroke-width=".05" fill="#3a414a"/><path d="M310 497.86l-4.63-14.27h9.26z" stroke="#3a414a" fill="#3a414a"/><path d="M310 565.3v118.5" stroke="#3a414a" fill="none"/><path d="M310.48 565.32h-.96v-.5h.96z" stroke="#3a414a" stroke-width=".05" fill="#3a414a"/><path d="M310 698.57l-4.63-14.26h9.26z" stroke="#3a414a" fill="#3a414a"/><path d="M310 766.02V893.1" stroke="#3a414a" fill="none"/><path d="M310.48 766.04h-.96v-.52h.96z" stroke="#3a414a" stroke-width=".05" fill="#3a414a"/><path d="M310 907.86l-4.63-14.27h9.26z" stroke="#3a414a" fill="#3a414a"/><path d="M310 975.3v109.46" stroke="#3a414a" fill="none"/><path d="M310.48 975.32h-.96v-.5h.96z" stroke="#3a414a" stroke-width=".05" fill="#3a414a"/><path d="M310 1099.53l-4.63-14.27h9.26z" stroke="#3a414a" fill="#3a414a"/><defs><path d="M75-17c87 13 134-18 134-103 0-78-51-106-134-100v203zm171-102C246 5 139 7 10 0v-9l31-5v-208l-31-4v-10h107c82 0 129 35 129 117" id="as"/><path d="M90-170c52 0 76 32 76 87 0 54-24 87-77 87-51 0-75-34-75-87 0-54 24-87 76-87zM89-10c39 0 46-35 46-73 0-39-7-73-46-73-39 1-44 34-44 73s6 72 44 73" id="at"/><path d="M45-84c0 64 52 80 104 63 1 25-30 25-55 25-56 0-80-32-80-88 0-76 62-98 131-80v46h-10c-5-15-4-31-23-35-47-10-67 21-67 69" id="au"/><path d="M124-13C89 8 26 15 26-45v-108c-8-3-24 2-21-12h50v118c-3 37 42 32 69 25v-131l-25-4v-8h54v153c8 3 24-2 21 12h-48" id="av"/><path d="M126-118c4-37-42-32-68-25v131l24 4v8H8C5-13 21-9 28-12v-141c-7-3-23 1-20-12h48l1 13c22-15 77-30 92 2 32-22 104-36 104 29v109c8 3 24-2 21 12h-75v-8l25-4v-106c3-39-45-31-72-24 7 37 1 88 3 130l25 4v8h-78v-8l24-4v-106" id="aw"/><path d="M84-170c49 0 66 33 63 87H46c-8 60 38 80 95 63v10C128-2 108 4 88 4 34 4 14-29 14-84c-1-54 22-86 70-86zm33 73c12-57-57-82-69-24-1 7-2 15-2 24h71" id="ax"/><path d="M125-118c4-37-41-34-68-26v132l23 4v8H8C5-13 21-9 28-12v-141c-7-3-23 1-20-12h47l2 13c31-23 98-29 98 31v109c7 3 23-1 20 12h-72v-8l22-4v-106" id="ay"/><path d="M54-38c-1 25 24 26 44 20v12C71 10 25 9 25-35v-115H4c-2-14 14-10 21-15l18-38h11v38h38v15H54v112" id="az"/><g id="a"><use transform="matrix(0.06172839506172839,0,0,0.06172839506172839,0,0)" xlink:href="#as"/><use transform="matrix(0.06172839506172839,0,0,0.06172839506172839,15.987654320987653,0)" xlink:href="#at"/><use transform="matrix(0.06172839506172839,0,0,0.06172839506172839,27.098765432098766,0)" xlink:href="#au"/><use transform="matrix(0.06172839506172839,0,0,0.06172839506172839,36.91358024691358,0)" xlink:href="#av"/><use transform="matrix(0.06172839506172839,0,0,0.06172839506172839,48.0246913580247,0)" xlink:href="#aw"/><use transform="matrix(0.06172839506172839,0,0,0.06172839506172839,65.30864197530865,0)" xlink:href="#ax"/><use transform="matrix(0.06172839506172839,0,0,0.06172839506172839,75.12345679012346,0)" xlink:href="#ay"/><use transform="matrix(0.06172839506172839,0,0,0.06172839506172839,86.23456790123457,0)" xlink:href="#az"/></g><path d="M81-9v9H4v-9l26-5 81-224h33l83 224 30 5v9h-99v-9l31-5-23-68H73L49-14zm38-203L78-98h82" id="aA"/><path d="M156-12c7 3 23-1 20 12h-75v-8l22-4-38-58-45 58 23 4v8H3v-8l19-3 55-71-48-71c-7-3-23 1-20-12h75v8l-22 4 32 48 37-48-23-4v-8h59v8l-19 3-46 60" id="aB"/><path d="M50-37c14 0 21 9 21 21S62 5 50 5C37 5 28-4 28-16s8-21 22-21zm0-132c12 0 21 9 21 21 0 13-9 22-21 22-13 0-22-9-22-22 0-12 9-21 22-21" id="aC"/><g id="b"><use transform="matrix(0.06172839506172839,0,0,0.06172839506172839,0,0)" xlink:href="#aA"/><use transform="matrix(0.06172839506172839,0,0,0.06172839506172839,15.987654320987653,0)" xlink:href="#ay"/><use transform="matrix(0.06172839506172839,0,0,0.06172839506172839,27.098765432098766,0)" xlink:href="#ay"/><use transform="matrix(0.06172839506172839,0,0,0.06172839506172839,38.20987654320987,0)" xlink:href="#ax"/><use transform="matrix(0.06172839506172839,0,0,0.06172839506172839,48.02469135802469,0)" xlink:href="#aB"/><use transform="matrix(0.06172839506172839,0,0,0.06172839506172839,59.1358024691358,0)" xlink:href="#aC"/></g><path d="M90-236h35l-11 85h-13zm-68 0h35l-11 85H33" id="aD"/><g id="c"><use transform="matrix(0.06172839506172839,0,0,0.06172839506172839,0,0)" xlink:href="#aD"/><use transform="matrix(0.06172839506172839,0,0,0.06172839506172839,9.012345679012345,0)" xlink:href="#aA"/><use transform="matrix(0.06172839506172839,0,0,0.06172839506172839,25,0)" xlink:href="#ay"/><use transform="matrix(0.06172839506172839,0,0,0.06172839506172839,36.111111111111114,0)" xlink:href="#ay"/><use transform="matrix(0.06172839506172839,0,0,0.06172839506172839,47.22222222222223,0)" xlink:href="#ax"/><use transform="matrix(0.06172839506172839,0,0,0.06172839506172839,57.037037037037045,0)" xlink:href="#aB"/></g><g id="d"><use transform="matrix(0.06172839506172839,0,0,0.06172839506172839,0,0)" xlink:href="#aA"/><use transform="matrix(0.06172839506172839,0,0,0.06172839506172839,15.987654320987653,0)" xlink:href="#aD"/></g><path d="M111-226l-36 4v207c33-1 73 2 101-4l11-49h11l-3 68H10v-9l31-5v-208l-31-4v-10h101v10" id="aE"/><path d="M32-163c41-10 102-14 102 39v112c8 3 24-2 21 12h-45l-4-17C83 13 3 13 13-46c-2-50 45-50 92-51 4-36-5-70-42-56-6 2-12 4-16 6-4 7 0 23-15 20v-36zM42-47c0 41 41 33 63 22v-59c-34 1-63-1-63 37" id="aF"/><path d="M53-14c58 12 82-15 82-73 0-52-35-77-82-58v131zM89 4C64 4 42-2 24-9v-229l-24-4v-8h53l-1 94c48-33 114-4 114 69 0 57-23 91-77 91" id="aG"/><path d="M65-12l28 4v8H7v-8l28-4v-226l-28-4v-8h58v238" id="aH"/><path d="M57-145c16-10 35-24 60-25v45c-19 1-8-30-40-17l-20 6v124l29 4v8H7v-8l21-4v-141c-8-3-24 2-21-12h48" id="aI"/><g id="e"><use transform="matrix(0.06172839506172839,0,0,0.06172839506172839,0,0)" xlink:href="#aE"/><use transform="matrix(0.06172839506172839,0,0,0.06172839506172839,13.518518518518517,0)" xlink:href="#aF"/><use transform="matrix(0.06172839506172839,0,0,0.06172839506172839,23.333333333333332,0)" xlink:href="#aG"/><use transform="matrix(0.06172839506172839,0,0,0.06172839506172839,34.44444444444444,0)" xlink:href="#ax"/><use transform="matrix(0.06172839506172839,0,0,0.06172839506172839,44.25925925925926,0)" xlink:href="#aH"/><use transform="matrix(0.06172839506172839,0,0,0.06172839506172839,50.4320987654321,0)" xlink:href="#aH"/><use transform="matrix(0.06172839506172839,0,0,0.06172839506172839,56.604938271604944,0)" xlink:href="#ax"/><use transform="matrix(0.06172839506172839,0,0,0.06172839506172839,66.41975308641976,0)" xlink:href="#aI"/></g><path d="M108-235c-52 28-62 95-58 178 3 56 21 97 58 119v15C7 49-17-153 67-223c12-10 25-19 41-27v15" id="aJ"/><g id="f"><use transform="matrix(0.06172839506172839,0,0,0.06172839506172839,0,0)" xlink:href="#aJ"/><use transform="matrix(0.06172839506172839,0,0,0.06172839506172839,7.345679012345679,0)" xlink:href="#au"/><use transform="matrix(0.06172839506172839,0,0,0.06172839506172839,17.160493827160494,0)" xlink:href="#at"/><use transform="matrix(0.06172839506172839,0,0,0.06172839506172839,28.271604938271604,0)" xlink:href="#ay"/><use transform="matrix(0.06172839506172839,0,0,0.06172839506172839,39.382716049382715,0)" xlink:href="#az"/><use transform="matrix(0.06172839506172839,0,0,0.06172839506172839,45.55555555555556,0)" xlink:href="#ax"/><use transform="matrix(0.06172839506172839,0,0,0.06172839506172839,55.370370370370374,0)" xlink:href="#aB"/><use transform="matrix(0.06172839506172839,0,0,0.06172839506172839,66.48148148148148,0)" xlink:href="#az"/><use transform="matrix(0.06172839506172839,0,0,0.06172839506172839,72.65432098765432,0)" xlink:href="#aC"/></g><g id="g"><use transform="matrix(0.06172839506172839,0,0,0.06172839506172839,0,0)" xlink:href="#aA"/><use transform="matrix(0.06172839506172839,0,0,0.06172839506172839,15.987654320987653,0)" xlink:href="#ay"/><use transform="matrix(0.06172839506172839,0,0,0.06172839506172839,27.098765432098766,0)" xlink:href="#ay"/><use transform="matrix(0.06172839506172839,0,0,0.06172839506172839,38.20987654320987,0)" xlink:href="#ax"/><use transform="matrix(0.06172839506172839,0,0,0.06172839506172839,48.02469135802469,0)" xlink:href="#aB"/></g><path d="M42-37c43 0 23 74-4 81-7 4-14 8-24 11V42c17-5 29-14 31-30C42-2 20 1 21-18c0-12 9-19 21-19" id="aK"/><g id="h"><use transform="matrix(0.06172839506172839,0,0,0.06172839506172839,0,0)" xlink:href="#aA"/><use transform="matrix(0.06172839506172839,0,0,0.06172839506172839,15.987654320987653,0)" xlink:href="#aK"/></g><path d="M161-154L85 37C75 66 49 86 8 75V39c18-2 6 24 29 21 30-4 38-32 47-58L21-153c-7-3-20 0-17-12h77v8l-26 4 45 116 43-116-26-4v-8h62v8" id="aL"/><path d="M166-85c3 67-44 102-111 85l1 64 29 4v9H6v-9l21-4v-217c-7-3-22 1-19-12h46l1 9c11-8 26-14 45-14 47 2 64 36 66 85zM56-13c53 14 83-14 78-72 7-53-33-79-78-60v132" id="aM"/><g id="i"><use transform="matrix(0.06172839506172839,0,0,0.06172839506172839,0,0)" xlink:href="#az"/><use transform="matrix(0.06172839506172839,0,0,0.06172839506172839,6.172839506172839,0)" xlink:href="#aL"/><use transform="matrix(0.06172839506172839,0,0,0.06172839506172839,17.28395061728395,0)" xlink:href="#aM"/><use transform="matrix(0.06172839506172839,0,0,0.06172839506172839,28.39506172839506,0)" xlink:href="#ax"/><use transform="matrix(0.06172839506172839,0,0,0.06172839506172839,38.20987654320987,0)" xlink:href="#aC"/></g><path d="M52-115c0 93 80 130 150 87l7-35h11l-1 55c-23 7-52 12-83 12C60 4 19-37 15-115c-5-113 97-141 201-114l1 51h-12l-5-30c-15-9-39-16-62-16-66 0-86 41-86 109" id="aN"/><path d="M41-130c7 48 86 23 86 84 0 56-69 57-112 41v-40c20 0 9 29 31 31 35 19 77-26 41-50-27-18-72-13-72-59 0-50 58-52 100-41v36c-19 1-8-25-28-25-21-7-50-1-46 23" id="aO"/><g id="j"><use transform="matrix(0.06172839506172839,0,0,0.06172839506172839,0,0)" xlink:href="#aN"/><use transform="matrix(0.06172839506172839,0,0,0.06172839506172839,14.814814814814813,0)" xlink:href="#aH"/><use transform="matrix(0.06172839506172839,0,0,0.06172839506172839,20.98765432098765,0)" xlink:href="#aF"/><use transform="matrix(0.06172839506172839,0,0,0.06172839506172839,30.80246913580247,0)" xlink:href="#av"/><use transform="matrix(0.06172839506172839,0,0,0.06172839506172839,41.91358024691358,0)" xlink:href="#aO"/><use transform="matrix(0.06172839506172839,0,0,0.06172839506172839,50.55555555555556,0)" xlink:href="#ax"/><use transform="matrix(0.06172839506172839,0,0,0.06172839506172839,60.370370370370374,0)" xlink:href="#aK"/></g><path d="M13-82c-2-68 46-101 114-84 8-3 15-8 28-7V64l18 4v9h-70v-9l23-4c1-25-2-53 2-75-11 8-27 15-47 15-49-1-66-35-68-86zm113-70c-53-13-86 12-81 70-6 54 34 80 81 61v-131" id="aP"/><g id="k"><use transform="matrix(0.06172839506172839,0,0,0.06172839506172839,0,0)" xlink:href="#aO"/><use transform="matrix(0.06172839506172839,0,0,0.06172839506172839,8.641975308641975,0)" xlink:href="#ax"/><use transform="matrix(0.06172839506172839,0,0,0.06172839506172839,18.45679012345679,0)" xlink:href="#aP"/><use transform="matrix(0.06172839506172839,0,0,0.06172839506172839,29.567901234567902,0)" xlink:href="#av"/><use transform="matrix(0.06172839506172839,0,0,0.06172839506172839,40.67901234567901,0)" xlink:href="#ax"/><use transform="matrix(0.06172839506172839,0,0,0.06172839506172839,50.49382716049383,0)" xlink:href="#ay"/><use transform="matrix(0.06172839506172839,0,0,0.06172839506172839,61.60493827160494,0)" xlink:href="#au"/><use transform="matrix(0.06172839506172839,0,0,0.06172839506172839,71.41975308641975,0)" xlink:href="#ax"/><use transform="matrix(0.06172839506172839,0,0,0.06172839506172839,81.23456790123456,0)" xlink:href="#aC"/></g><g id="l"><use transform="matrix(0.06172839506172839,0,0,0.06172839506172839,0,0)" xlink:href="#ay"/><use transform="matrix(0.06172839506172839,0,0,0.06172839506172839,11.11111111111111,0)" xlink:href="#av"/><use transform="matrix(0.06172839506172839,0,0,0.06172839506172839,22.22222222222222,0)" xlink:href="#aw"/><use transform="matrix(0.06172839506172839,0,0,0.06172839506172839,39.50617283950617,0)" xlink:href="#ax"/><use transform="matrix(0.06172839506172839,0,0,0.06172839506172839,49.32098765432099,0)" xlink:href="#aI"/><use transform="matrix(0.06172839506172839,0,0,0.06172839506172839,56.666666666666664,0)" xlink:href="#aF"/><use transform="matrix(0.06172839506172839,0,0,0.06172839506172839,66.48148148148148,0)" xlink:href="#aH"/><use transform="matrix(0.06172839506172839,0,0,0.06172839506172839,72.65432098765432,0)" xlink:href="#aK"/></g><g id="m"><use transform="matrix(0.06172839506172839,0,0,0.06172839506172839,0,0)" xlink:href="#aM"/><use transform="matrix(0.06172839506172839,0,0,0.06172839506172839,11.11111111111111,0)" xlink:href="#aF"/><use transform="matrix(0.06172839506172839,0,0,0.06172839506172839,20.925925925925924,0)" xlink:href="#az"/><use transform="matrix(0.06172839506172839,0,0,0.06172839506172839,27.098765432098762,0)" xlink:href="#az"/><use transform="matrix(0.06172839506172839,0,0,0.06172839506172839,33.2716049382716,0)" xlink:href="#ax"/><use transform="matrix(0.06172839506172839,0,0,0.06172839506172839,43.08641975308642,0)" xlink:href="#aI"/><use transform="matrix(0.06172839506172839,0,0,0.06172839506172839,50.432098765432094,0)" xlink:href="#ay"/><use transform="matrix(0.06172839506172839,0,0,0.06172839506172839,61.5432098765432,0)" xlink:href="#aC"/></g><path d="M77 4H58l167-243h19zm-7-243c39 0 57 24 57 64 0 41-16 65-58 65-41 0-57-24-57-65s17-64 58-64zm-1 117c26 0 30-24 30-53 0-28-3-51-30-51s-29 24-29 51c0 28 2 53 29 53zm162-3c39 0 57 24 57 64 0 42-17 66-58 66-40 0-57-25-57-66s17-64 58-64zM230-8c26 0 30-24 30-53 0-28-3-51-30-51s-29 24-29 51c0 28 3 53 29 53" id="aQ"/><path d="M45-37c13 0 21 8 21 21C67-2 57 4 45 5 33 4 23-2 24-16c0-13 8-21 21-21" id="aR"/><path d="M12-250C113-222 137-19 52 49 40 59 28 69 12 77V62C56 37 70-16 70-87c0-70-13-123-58-148v-15" id="aS"/><g id="n"><use transform="matrix(0.06172839506172839,0,0,0.06172839506172839,0,0)" xlink:href="#aD"/><use transform="matrix(0.06172839506172839,0,0,0.06172839506172839,9.012345679012345,0)" xlink:href="#aQ"/><use transform="matrix(0.06172839506172839,0,0,0.06172839506172839,27.469135802469133,0)" xlink:href="#aM"/><use transform="matrix(0.06172839506172839,0,0,0.06172839506172839,38.58024691358024,0)" xlink:href="#aO"/><use transform="matrix(0.06172839506172839,0,0,0.06172839506172839,47.222222222222214,0)" xlink:href="#aR"/><use transform="matrix(0.06172839506172839,0,0,0.06172839506172839,52.77777777777777,0)" xlink:href="#aQ"/><use transform="matrix(0.06172839506172839,0,0,0.06172839506172839,71.23456790123456,0)" xlink:href="#ay"/><use transform="matrix(0.06172839506172839,0,0,0.06172839506172839,82.34567901234567,0)" xlink:href="#aD"/><use transform="matrix(0.06172839506172839,0,0,0.06172839506172839,91.35802469135801,0)" xlink:href="#aS"/></g><g id="o"><use transform="matrix(0.06172839506172839,0,0,0.06172839506172839,0,0)" xlink:href="#aN"/><use transform="matrix(0.06172839506172839,0,0,0.06172839506172839,14.814814814814813,0)" xlink:href="#aH"/><use transform="matrix(0.06172839506172839,0,0,0.06172839506172839,20.98765432098765,0)" xlink:href="#aF"/><use transform="matrix(0.06172839506172839,0,0,0.06172839506172839,30.80246913580247,0)" xlink:href="#av"/><use transform="matrix(0.06172839506172839,0,0,0.06172839506172839,41.91358024691358,0)" xlink:href="#aO"/><use transform="matrix(0.06172839506172839,0,0,0.06172839506172839,50.55555555555556,0)" xlink:href="#ax"/><use transform="matrix(0.06172839506172839,0,0,0.06172839506172839,60.370370370370374,0)" xlink:href="#aC"/></g><g id="p"><use transform="matrix(0.06172839506172839,0,0,0.06172839506172839,0,0)" xlink:href="#aD"/><use transform="matrix(0.06172839506172839,0,0,0.06172839506172839,9.012345679012345,0)" xlink:href="#aN"/><use transform="matrix(0.06172839506172839,0,0,0.06172839506172839,23.827160493827158,0)" xlink:href="#aH"/><use transform="matrix(0.06172839506172839,0,0,0.06172839506172839,29.999999999999996,0)" xlink:href="#aF"/><use transform="matrix(0.06172839506172839,0,0,0.06172839506172839,39.81481481481481,0)" xlink:href="#av"/><use transform="matrix(0.06172839506172839,0,0,0.06172839506172839,50.925925925925924,0)" xlink:href="#aO"/><use transform="matrix(0.06172839506172839,0,0,0.06172839506172839,59.5679012345679,0)" xlink:href="#ax"/></g><path d="M110-14l48 5v9H32v-9l48-5v-192l-48 17v-10l69-39h9v224" id="aT"/><g id="q"><use transform="matrix(0.06172839506172839,0,0,0.06172839506172839,0,0)" xlink:href="#aA"/><use transform="matrix(0.06172839506172839,0,0,0.06172839506172839,15.987654320987653,0)" xlink:href="#aR"/><use transform="matrix(0.06172839506172839,0,0,0.06172839506172839,21.54320987654321,0)" xlink:href="#aT"/><use transform="matrix(0.06172839506172839,0,0,0.06172839506172839,32.654320987654316,0)" xlink:href="#aD"/></g><g id="r"><use transform="matrix(0.06172839506172839,0,0,0.06172839506172839,0,0)" xlink:href="#aN"/><use transform="matrix(0.06172839506172839,0,0,0.06172839506172839,14.814814814814813,0)" xlink:href="#aH"/><use transform="matrix(0.06172839506172839,0,0,0.06172839506172839,20.98765432098765,0)" xlink:href="#aF"/><use transform="matrix(0.06172839506172839,0,0,0.06172839506172839,30.80246913580247,0)" xlink:href="#av"/><use transform="matrix(0.06172839506172839,0,0,0.06172839506172839,41.91358024691358,0)" xlink:href="#aO"/><use transform="matrix(0.06172839506172839,0,0,0.06172839506172839,50.55555555555556,0)" xlink:href="#ax"/></g><g id="s"><use transform="matrix(0.06172839506172839,0,0,0.06172839506172839,0,0)" xlink:href="#aA"/><use transform="matrix(0.06172839506172839,0,0,0.06172839506172839,15.987654320987653,0)" xlink:href="#aR"/><use transform="matrix(0.06172839506172839,0,0,0.06172839506172839,21.54320987654321,0)" xlink:href="#aT"/><use transform="matrix(0.06172839506172839,0,0,0.06172839506172839,32.654320987654316,0)" xlink:href="#aK"/></g><path d="M178-68c0 79-95 82-154 59v-54h12c1 35 22 52 60 52 50 0 69-58 33-82-39-24-105-21-105-85 0-67 86-66 142-53v49h-12l-6-29c-31-27-121-7-89 42 28 43 119 24 119 101" id="aU"/><g id="t"><use transform="matrix(0.06172839506172839,0,0,0.06172839506172839,0,0)" xlink:href="#aU"/><use transform="matrix(0.06172839506172839,0,0,0.06172839506172839,12.345679012345679,0)" xlink:href="#av"/><use transform="matrix(0.06172839506172839,0,0,0.06172839506172839,23.45679012345679,0)" xlink:href="#aG"/><use transform="matrix(0.06172839506172839,0,0,0.06172839506172839,34.5679012345679,0)" xlink:href="#aN"/><use transform="matrix(0.06172839506172839,0,0,0.06172839506172839,49.38271604938271,0)" xlink:href="#aH"/><use transform="matrix(0.06172839506172839,0,0,0.06172839506172839,55.55555555555555,0)" xlink:href="#aF"/><use transform="matrix(0.06172839506172839,0,0,0.06172839506172839,65.37037037037037,0)" xlink:href="#av"/><use transform="matrix(0.06172839506172839,0,0,0.06172839506172839,76.48148148148148,0)" xlink:href="#aO"/><use transform="matrix(0.06172839506172839,0,0,0.06172839506172839,85.12345679012346,0)" xlink:href="#ax"/><use transform="matrix(0.06172839506172839,0,0,0.06172839506172839,94.93827160493827,0)" xlink:href="#aK"/></g><g id="u"><use transform="matrix(0.06172839506172839,0,0,0.06172839506172839,0,0)" xlink:href="#aO"/><use transform="matrix(0.06172839506172839,0,0,0.06172839506172839,8.641975308641975,0)" xlink:href="#ax"/><use transform="matrix(0.06172839506172839,0,0,0.06172839506172839,18.45679012345679,0)" xlink:href="#aP"/><use transform="matrix(0.06172839506172839,0,0,0.06172839506172839,29.567901234567902,0)" xlink:href="#av"/><use transform="matrix(0.06172839506172839,0,0,0.06172839506172839,40.67901234567901,0)" xlink:href="#ax"/><use transform="matrix(0.06172839506172839,0,0,0.06172839506172839,50.49382716049383,0)" xlink:href="#ay"/><use transform="matrix(0.06172839506172839,0,0,0.06172839506172839,61.60493827160494,0)" xlink:href="#au"/><use transform="matrix(0.06172839506172839,0,0,0.06172839506172839,71.41975308641975,0)" xlink:href="#ax"/><use transform="matrix(0.06172839506172839,0,0,0.06172839506172839,81.23456790123456,0)" xlink:href="#aC"/></g><path d="M203-222l-32-4v-10h81v10l-31 4V0h-17L59-212v198l32 5v9H10v-9l31-5v-208l-31-4v-10h72L203-61v-161" id="aV"/><g id="v"><use transform="matrix(0.06172839506172839,0,0,0.06172839506172839,0,0)" xlink:href="#aD"/><use transform="matrix(0.06172839506172839,0,0,0.06172839506172839,9.012345679012345,0)" xlink:href="#aQ"/><use transform="matrix(0.06172839506172839,0,0,0.06172839506172839,27.469135802469133,0)" xlink:href="#aM"/><use transform="matrix(0.06172839506172839,0,0,0.06172839506172839,38.58024691358024,0)" xlink:href="#aV"/><use transform="matrix(0.06172839506172839,0,0,0.06172839506172839,54.56790123456789,0)" xlink:href="#aR"/><use transform="matrix(0.06172839506172839,0,0,0.06172839506172839,60.12345679012345,0)" xlink:href="#aQ"/><use transform="matrix(0.06172839506172839,0,0,0.06172839506172839,78.58024691358024,0)" xlink:href="#ay"/><use transform="matrix(0.06172839506172839,0,0,0.06172839506172839,89.69135802469135,0)" xlink:href="#aD"/><use transform="matrix(0.06172839506172839,0,0,0.06172839506172839,98.7037037037037,0)" xlink:href="#aS"/></g><g id="w"><use transform="matrix(0.06172839506172839,0,0,0.06172839506172839,0,0)" xlink:href="#aU"/><use transform="matrix(0.06172839506172839,0,0,0.06172839506172839,12.345679012345679,0)" xlink:href="#av"/><use transform="matrix(0.06172839506172839,0,0,0.06172839506172839,23.45679012345679,0)" xlink:href="#aG"/><use transform="matrix(0.06172839506172839,0,0,0.06172839506172839,34.5679012345679,0)" xlink:href="#au"/><use transform="matrix(0.06172839506172839,0,0,0.06172839506172839,44.382716049382715,0)" xlink:href="#aH"/><use transform="matrix(0.06172839506172839,0,0,0.06172839506172839,50.55555555555556,0)" xlink:href="#aF"/><use transform="matrix(0.06172839506172839,0,0,0.06172839506172839,60.370370370370374,0)" xlink:href="#av"/><use transform="matrix(0.06172839506172839,0,0,0.06172839506172839,71.48148148148148,0)" xlink:href="#aO"/><use transform="matrix(0.06172839506172839,0,0,0.06172839506172839,80.12345679012346,0)" xlink:href="#ax"/><use transform="matrix(0.06172839506172839,0,0,0.06172839506172839,89.93827160493827,0)" xlink:href="#aC"/></g><g id="x"><use transform="matrix(0.06172839506172839,0,0,0.06172839506172839,0,0)" xlink:href="#aD"/><use transform="matrix(0.06172839506172839,0,0,0.06172839506172839,9.012345679012345,0)" xlink:href="#aA"/><use transform="matrix(0.06172839506172839,0,0,0.06172839506172839,25,0)" xlink:href="#aR"/><use transform="matrix(0.06172839506172839,0,0,0.06172839506172839,30.555555555555557,0)" xlink:href="#aT"/><use transform="matrix(0.06172839506172839,0,0,0.06172839506172839,41.66666666666667,0)" xlink:href="#aR"/><use transform="matrix(0.06172839506172839,0,0,0.06172839506172839,47.22222222222223,0)" xlink:href="#aT"/><use transform="matrix(0.06172839506172839,0,0,0.06172839506172839,58.33333333333334,0)" xlink:href="#aD"/></g><path d="M47-200c-23 0-25-39 0-38 13 0 18 7 20 19-1 11-8 19-20 19zM65-12l28 4v8H8v-8l28-4v-141l-24-4v-8h53v153" id="aW"/><g id="y"><use transform="matrix(0.06172839506172839,0,0,0.06172839506172839,0,0)" xlink:href="#aE"/><use transform="matrix(0.06172839506172839,0,0,0.06172839506172839,13.518518518518517,0)" xlink:href="#aW"/><use transform="matrix(0.06172839506172839,0,0,0.06172839506172839,19.691358024691358,0)" xlink:href="#aO"/><use transform="matrix(0.06172839506172839,0,0,0.06172839506172839,28.333333333333332,0)" xlink:href="#az"/></g><g id="z"><use transform="matrix(0.06172839506172839,0,0,0.06172839506172839,0,0)" xlink:href="#aT"/><use transform="matrix(0.06172839506172839,0,0,0.06172839506172839,11.11111111111111,0)" xlink:href="#aK"/></g><path d="M77-14l30 5v9H13v-9l30-5v-208l-30-4v-10h94v10l-30 4v208" id="aX"/><g id="A"><use transform="matrix(0.06172839506172839,0,0,0.06172839506172839,0,0)" xlink:href="#aE"/><use transform="matrix(0.06172839506172839,0,0,0.06172839506172839,13.518518518518517,0)" xlink:href="#aW"/><use transform="matrix(0.06172839506172839,0,0,0.06172839506172839,19.691358024691358,0)" xlink:href="#aO"/><use transform="matrix(0.06172839506172839,0,0,0.06172839506172839,28.333333333333332,0)" xlink:href="#az"/><use transform="matrix(0.06172839506172839,0,0,0.06172839506172839,34.50617283950617,0)" xlink:href="#aX"/><use transform="matrix(0.06172839506172839,0,0,0.06172839506172839,41.85185185185185,0)" xlink:href="#az"/><use transform="matrix(0.06172839506172839,0,0,0.06172839506172839,48.02469135802469,0)" xlink:href="#ax"/><use transform="matrix(0.06172839506172839,0,0,0.06172839506172839,57.839506172839506,0)" xlink:href="#aw"/><use transform="matrix(0.06172839506172839,0,0,0.06172839506172839,75.12345679012346,0)" xlink:href="#aK"/></g><path d="M126-119c3-38-42-31-69-25v132l23 4v8H7v-8l21-4v-226l-24-4v-8h53l-1 98c31-22 99-31 99 31v109c7 3 23-1 20 12h-71v-8l22-4v-107" id="aY"/><g id="B"><use transform="matrix(0.06172839506172839,0,0,0.06172839506172839,0,0)" xlink:href="#aF"/><use transform="matrix(0.06172839506172839,0,0,0.06172839506172839,9.814814814814815,0)" xlink:href="#aH"/><use transform="matrix(0.06172839506172839,0,0,0.06172839506172839,15.987654320987653,0)" xlink:href="#aM"/><use transform="matrix(0.06172839506172839,0,0,0.06172839506172839,27.098765432098766,0)" xlink:href="#aY"/><use transform="matrix(0.06172839506172839,0,0,0.06172839506172839,38.20987654320987,0)" xlink:href="#aF"/><use transform="matrix(0.06172839506172839,0,0,0.06172839506172839,48.02469135802469,0)" xlink:href="#aK"/></g><path d="M-3 46V28h186v18H-3" id="aZ"/><g id="C"><use transform="matrix(0.06172839506172839,0,0,0.06172839506172839,0,0)" xlink:href="#aM"/><use transform="matrix(0.06172839506172839,0,0,0.06172839506172839,11.11111111111111,0)" xlink:href="#aF"/><use transform="matrix(0.06172839506172839,0,0,0.06172839506172839,20.925925925925924,0)" xlink:href="#az"/><use transform="matrix(0.06172839506172839,0,0,0.06172839506172839,27.098765432098762,0)" xlink:href="#az"/><use transform="matrix(0.06172839506172839,0,0,0.06172839506172839,33.2716049382716,0)" xlink:href="#ax"/><use transform="matrix(0.06172839506172839,0,0,0.06172839506172839,43.08641975308642,0)" xlink:href="#aI"/><use transform="matrix(0.06172839506172839,0,0,0.06172839506172839,50.432098765432094,0)" xlink:href="#ay"/><use transform="matrix(0.06172839506172839,0,0,0.06172839506172839,61.5432098765432,0)" xlink:href="#aZ"/><use transform="matrix(0.06172839506172839,0,0,0.06172839506172839,72.65432098765432,0)" xlink:href="#aH"/><use transform="matrix(0.06172839506172839,0,0,0.06172839506172839,78.82716049382715,0)" xlink:href="#at"/><use transform="matrix(0.06172839506172839,0,0,0.06172839506172839,89.93827160493827,0)" xlink:href="#au"/><use transform="matrix(0.06172839506172839,0,0,0.06172839506172839,99.75308641975307,0)" xlink:href="#aF"/><use transform="matrix(0.06172839506172839,0,0,0.06172839506172839,109.56790123456788,0)" xlink:href="#aH"/><use transform="matrix(0.06172839506172839,0,0,0.06172839506172839,115.74074074074072,0)" xlink:href="#aC"/></g><g id="D"><use transform="matrix(0.06172839506172839,0,0,0.06172839506172839,0,0)" xlink:href="#aD"/><use transform="matrix(0.06172839506172839,0,0,0.06172839506172839,9.012345679012345,0)" xlink:href="#aQ"/><use transform="matrix(0.06172839506172839,0,0,0.06172839506172839,27.469135802469133,0)" xlink:href="#ay"/><use transform="matrix(0.06172839506172839,0,0,0.06172839506172839,38.58024691358024,0)" xlink:href="#aS"/><use transform="matrix(0.06172839506172839,0,0,0.06172839506172839,45.92592592592592,0)" xlink:href="#aD"/><use transform="matrix(0.06172839506172839,0,0,0.06172839506172839,54.938271604938265,0)" xlink:href="#aK"/></g><path d="M141-152c28 39 5 97-54 97-9 0-20-2-27-3L49-35c29 22 130-14 124 52-4 45-38 57-88 61C21 83-8 26 45-2 33-6 22-15 21-31l28-31c-19-9-28-26-28-51-2-51 53-65 100-52l38-20 7 8zM85 64c35 0 61-11 61-42 0-35-57-17-89-21-9 8-16 19-17 34 0 25 19 29 45 29zM52-113c1 26 7 46 35 44 28-1 34-16 35-44 0-26-6-43-34-43s-36 17-36 43" id="ba"/><g id="E"><use transform="matrix(0.06172839506172839,0,0,0.06172839506172839,0,0)" xlink:href="#aM"/><use transform="matrix(0.06172839506172839,0,0,0.06172839506172839,11.11111111111111,0)" xlink:href="#aF"/><use transform="matrix(0.06172839506172839,0,0,0.06172839506172839,20.925925925925924,0)" xlink:href="#az"/><use transform="matrix(0.06172839506172839,0,0,0.06172839506172839,27.098765432098762,0)" xlink:href="#az"/><use transform="matrix(0.06172839506172839,0,0,0.06172839506172839,33.2716049382716,0)" xlink:href="#ax"/><use transform="matrix(0.06172839506172839,0,0,0.06172839506172839,43.08641975308642,0)" xlink:href="#aI"/><use transform="matrix(0.06172839506172839,0,0,0.06172839506172839,50.432098765432094,0)" xlink:href="#ay"/><use transform="matrix(0.06172839506172839,0,0,0.06172839506172839,61.5432098765432,0)" xlink:href="#aZ"/><use transform="matrix(0.06172839506172839,0,0,0.06172839506172839,72.65432098765432,0)" xlink:href="#ba"/><use transform="matrix(0.06172839506172839,0,0,0.06172839506172839,83.76543209876543,0)" xlink:href="#aH"/><use transform="matrix(0.06172839506172839,0,0,0.06172839506172839,89.93827160493827,0)" xlink:href="#at"/><use transform="matrix(0.06172839506172839,0,0,0.06172839506172839,101.04938271604938,0)" xlink:href="#aG"/><use transform="matrix(0.06172839506172839,0,0,0.06172839506172839,112.1604938271605,0)" xlink:href="#aF"/><use transform="matrix(0.06172839506172839,0,0,0.06172839506172839,121.9753086419753,0)" xlink:href="#aH"/><use transform="matrix(0.06172839506172839,0,0,0.06172839506172839,128.14814814814815,0)" xlink:href="#aC"/></g><g id="F"><use transform="matrix(0.06172839506172839,0,0,0.06172839506172839,0,0)" xlink:href="#aD"/><use transform="matrix(0.06172839506172839,0,0,0.06172839506172839,9.012345679012345,0)" xlink:href="#aQ"/><use transform="matrix(0.06172839506172839,0,0,0.06172839506172839,27.469135802469133,0)" xlink:href="#aM"/><use transform="matrix(0.06172839506172839,0,0,0.06172839506172839,38.58024691358024,0)" xlink:href="#aF"/><use transform="matrix(0.06172839506172839,0,0,0.06172839506172839,48.395061728395056,0)" xlink:href="#aI"/><use transform="matrix(0.06172839506172839,0,0,0.06172839506172839,55.74074074074073,0)" xlink:href="#ax"/><use transform="matrix(0.06172839506172839,0,0,0.06172839506172839,65.55555555555554,0)" xlink:href="#ay"/><use transform="matrix(0.06172839506172839,0,0,0.06172839506172839,76.66666666666666,0)" xlink:href="#az"/></g><g id="G"><use transform="matrix(0.06172839506172839,0,0,0.06172839506172839,0,0)" xlink:href="#aQ"/><use transform="matrix(0.06172839506172839,0,0,0.06172839506172839,18.456790123456788,0)" xlink:href="#aH"/><use transform="matrix(0.06172839506172839,0,0,0.06172839506172839,24.629629629629626,0)" xlink:href="#at"/><use transform="matrix(0.06172839506172839,0,0,0.06172839506172839,35.74074074074073,0)" xlink:href="#au"/><use transform="matrix(0.06172839506172839,0,0,0.06172839506172839,45.55555555555555,0)" xlink:href="#aF"/><use transform="matrix(0.06172839506172839,0,0,0.06172839506172839,55.37037037037037,0)" xlink:href="#aH"/><use transform="matrix(0.06172839506172839,0,0,0.06172839506172839,61.54320987654321,0)" xlink:href="#aD"/><use transform="matrix(0.06172839506172839,0,0,0.06172839506172839,70.55555555555556,0)" xlink:href="#aS"/><use transform="matrix(0.06172839506172839,0,0,0.06172839506172839,77.90123456790124,0)" xlink:href="#aS"/></g><path fill="#333" d="M128-223l-36 5v199l103-3 14-49h16l-7 71H6v-13l30-5v-200l-30-5v-13h122v13" id="bb"/><path fill="#333" d="M31-163c51-5 127-20 127 40v107l17 4V0h-61l-4-13C82 13 12 12 12-46c0-51 46-52 95-53 9-45-22-69-57-44l-7 20H31v-40zM62-47c0 30 26 34 45 23v-59c-28 0-45 6-45 36" id="bc"/><path fill="#333" d="M72-18c49 15 64-22 62-69-1-34-4-62-34-63-10-1-23 2-28 6v126zm33 22C77 4 48-3 21-8v-226l-16-4v-12h67c-1 31 2 66-2 94 11-8 28-14 47-14 51 0 70 31 69 83-1 55-26 91-81 91" id="bd"/><path fill="#333" d="M12-83c0-55 22-85 75-86 52-1 66 33 63 88H64c-1 37 6 64 44 63 14 0 28-4 39-6 3 28-28 25-55 27-57 4-80-31-80-86zm90-17c2-26 0-63-27-48-10 9-11 28-11 48h38" id="be"/><path fill="#333" d="M76-16l18 4V0H7v-12l18-4v-218l-17-4v-12h68v234" id="bf"/><path fill="#333" d="M102-142c-14-17-68-15-54 18 24 26 83 17 83 72 0 62-72 62-120 47v-45h12c4 23 16 37 43 37 35 0 39-37 9-46-31-9-65-19-64-61 0-52 59-55 108-45v43h-11" id="bg"/><g id="H"><use transform="matrix(0.04938271604938272,0,0,0.04938271604938272,0,0)" xlink:href="#bb"/><use transform="matrix(0.04938271604938272,0,0,0.04938271604938272,11.851851851851853,0)" xlink:href="#bc"/><use transform="matrix(0.04938271604938272,0,0,0.04938271604938272,20.74074074074074,0)" xlink:href="#bd"/><use transform="matrix(0.04938271604938272,0,0,0.04938271604938272,30.617283950617285,0)" xlink:href="#be"/><use transform="matrix(0.04938271604938272,0,0,0.04938271604938272,38.46913580246914,0)" xlink:href="#bf"/><use transform="matrix(0.04938271604938272,0,0,0.04938271604938272,43.40740740740741,0)" xlink:href="#bg"/></g><path fill="#333" d="M92-112c43 4 61-13 61-54s-18-54-61-50v104zm118-54c0 63-50 78-118 74v74l39 5V0H8v-13l28-5v-200l-30-5v-13c88 3 205-20 204 70" id="bh"/><path fill="#333" d="M132-132c-21 0-37 9-50 16v100l26 4V0H10v-12l21-4v-133l-21-5v-11h69l2 34c17-18 35-41 71-40v61c-17 3-14-14-20-22" id="bi"/><path fill="#333" d="M127-114c3-31-26-38-50-25v123l15 4V0H10v-12l16-4v-133l-16-5v-11h64l2 14c31-23 102-32 102 30v105l17 4V0h-82v-12l14-4v-98" id="bj"/><path fill="#333" d="M78-41c-2 24 21 26 40 20C122 3 98 2 77 4 5 10 32-84 27-147H6v-11l25-7 21-38h26v38h35v18H78v106" id="bk"/><g id="I"><use transform="matrix(0.04938271604938272,0,0,0.04938271604938272,0,0)" xlink:href="#bh"/><use transform="matrix(0.04938271604938272,0,0,0.04938271604938272,10.814814814814815,0)" xlink:href="#bc"/><use transform="matrix(0.04938271604938272,0,0,0.04938271604938272,19.703703703703702,0)" xlink:href="#bi"/><use transform="matrix(0.04938271604938272,0,0,0.04938271604938272,27.209876543209873,0)" xlink:href="#be"/><use transform="matrix(0.04938271604938272,0,0,0.04938271604938272,35.06172839506173,0)" xlink:href="#bj"/><use transform="matrix(0.04938271604938272,0,0,0.04938271604938272,44.93827160493827,0)" xlink:href="#bk"/></g><g id="J"><use transform="matrix(0.06172839506172839,0,0,0.06172839506172839,0,0)" xlink:href="#as"/><use transform="matrix(0.06172839506172839,0,0,0.06172839506172839,15.987654320987653,0)" xlink:href="#at"/><use transform="matrix(0.06172839506172839,0,0,0.06172839506172839,27.098765432098766,0)" xlink:href="#au"/><use transform="matrix(0.06172839506172839,0,0,0.06172839506172839,36.91358024691358,0)" xlink:href="#av"/><use transform="matrix(0.06172839506172839,0,0,0.06172839506172839,48.0246913580247,0)" xlink:href="#aw"/><use transform="matrix(0.06172839506172839,0,0,0.06172839506172839,65.30864197530865,0)" xlink:href="#ax"/><use transform="matrix(0.06172839506172839,0,0,0.06172839506172839,75.12345679012346,0)" xlink:href="#ay"/><use transform="matrix(0.06172839506172839,0,0,0.06172839506172839,86.23456790123457,0)" xlink:href="#az"/><use transform="matrix(0.06172839506172839,0,0,0.06172839506172839,92.4074074074074,0)" xlink:href="#aK"/></g><g id="K"><use transform="matrix(0.06172839506172839,0,0,0.06172839506172839,0,0)" xlink:href="#aA"/><use transform="matrix(0.06172839506172839,0,0,0.06172839506172839,15.987654320987653,0)" xlink:href="#ay"/><use transform="matrix(0.06172839506172839,0,0,0.06172839506172839,27.098765432098766,0)" xlink:href="#ay"/><use transform="matrix(0.06172839506172839,0,0,0.06172839506172839,38.20987654320987,0)" xlink:href="#ax"/><use transform="matrix(0.06172839506172839,0,0,0.06172839506172839,48.02469135802469,0)" xlink:href="#aB"/><use transform="matrix(0.06172839506172839,0,0,0.06172839506172839,59.1358024691358,0)" xlink:href="#aK"/></g><g id="L"><use transform="matrix(0.06172839506172839,0,0,0.06172839506172839,0,0)" xlink:href="#aD"/><use transform="matrix(0.06172839506172839,0,0,0.06172839506172839,9.012345679012345,0)" xlink:href="#aA"/><use transform="matrix(0.06172839506172839,0,0,0.06172839506172839,25,0)" xlink:href="#ay"/><use transform="matrix(0.06172839506172839,0,0,0.06172839506172839,36.111111111111114,0)" xlink:href="#ay"/><use transform="matrix(0.06172839506172839,0,0,0.06172839506172839,47.22222222222223,0)" xlink:href="#ax"/><use transform="matrix(0.06172839506172839,0,0,0.06172839506172839,57.037037037037045,0)" xlink:href="#aB"/></g><g id="M"><use transform="matrix(0.06172839506172839,0,0,0.06172839506172839,0,0)" xlink:href="#aQ"/><use transform="matrix(0.06172839506172839,0,0,0.06172839506172839,18.456790123456788,0)" xlink:href="#ay"/><use transform="matrix(0.06172839506172839,0,0,0.06172839506172839,29.5679012345679,0)" xlink:href="#aD"/><use transform="matrix(0.06172839506172839,0,0,0.06172839506172839,38.58024691358024,0)" xlink:href="#aS"/></g><g id="N"><use transform="matrix(0.06172839506172839,0,0,0.06172839506172839,0,0)" xlink:href="#aE"/><use transform="matrix(0.06172839506172839,0,0,0.06172839506172839,13.518518518518517,0)" xlink:href="#aW"/><use transform="matrix(0.06172839506172839,0,0,0.06172839506172839,19.691358024691358,0)" xlink:href="#aO"/><use transform="matrix(0.06172839506172839,0,0,0.06172839506172839,28.333333333333332,0)" xlink:href="#az"/><use transform="matrix(0.06172839506172839,0,0,0.06172839506172839,34.50617283950617,0)" xlink:href="#aX"/><use transform="matrix(0.06172839506172839,0,0,0.06172839506172839,41.85185185185185,0)" xlink:href="#az"/><use transform="matrix(0.06172839506172839,0,0,0.06172839506172839,48.02469135802469,0)" xlink:href="#ax"/><use transform="matrix(0.06172839506172839,0,0,0.06172839506172839,57.839506172839506,0)" xlink:href="#aw"/><use transform="matrix(0.06172839506172839,0,0,0.06172839506172839,75.12345679012346,0)" xlink:href="#aC"/></g><g id="O"><use transform="matrix(0.06172839506172839,0,0,0.06172839506172839,0,0)" xlink:href="#aD"/><use transform="matrix(0.06172839506172839,0,0,0.06172839506172839,9.012345679012345,0)" xlink:href="#aA"/><use transform="matrix(0.06172839506172839,0,0,0.06172839506172839,25,0)" xlink:href="#aR"/><use transform="matrix(0.06172839506172839,0,0,0.06172839506172839,30.555555555555557,0)" xlink:href="#aT"/><use transform="matrix(0.06172839506172839,0,0,0.06172839506172839,41.66666666666667,0)" xlink:href="#aR"/><use transform="matrix(0.06172839506172839,0,0,0.06172839506172839,47.22222222222223,0)" xlink:href="#aT"/></g><g id="P"><use transform="matrix(0.06172839506172839,0,0,0.06172839506172839,0,0)" xlink:href="#aF"/><use transform="matrix(0.06172839506172839,0,0,0.06172839506172839,9.814814814814815,0)" xlink:href="#aS"/><use transform="matrix(0.06172839506172839,0,0,0.06172839506172839,17.160493827160494,0)" xlink:href="#aD"/></g><path d="M55 0v-9l38-5v-207c-22 1-53 0-70 4l-5 37H7v-56h207v56h-12l-5-37-70-3v206l37 5v9H55" id="bl"/><g id="Q"><use transform="matrix(0.06172839506172839,0,0,0.06172839506172839,0,0)" xlink:href="#bl"/><use transform="matrix(0.06172839506172839,0,0,0.06172839506172839,11.975308641975307,0)" xlink:href="#aF"/><use transform="matrix(0.06172839506172839,0,0,0.06172839506172839,21.79012345679012,0)" xlink:href="#aG"/><use transform="matrix(0.06172839506172839,0,0,0.06172839506172839,32.90123456790123,0)" xlink:href="#aH"/><use transform="matrix(0.06172839506172839,0,0,0.06172839506172839,39.07407407407407,0)" xlink:href="#ax"/><use transform="matrix(0.06172839506172839,0,0,0.06172839506172839,48.888888888888886,0)" xlink:href="#aK"/></g><g id="R"><use transform="matrix(0.06172839506172839,0,0,0.06172839506172839,0,0)" xlink:href="#aD"/><use transform="matrix(0.06172839506172839,0,0,0.06172839506172839,9.012345679012345,0)" xlink:href="#bl"/><use transform="matrix(0.06172839506172839,0,0,0.06172839506172839,20.98765432098765,0)" xlink:href="#aF"/><use transform="matrix(0.06172839506172839,0,0,0.06172839506172839,30.80246913580247,0)" xlink:href="#aG"/><use transform="matrix(0.06172839506172839,0,0,0.06172839506172839,41.91358024691358,0)" xlink:href="#aH"/><use transform="matrix(0.06172839506172839,0,0,0.06172839506172839,48.086419753086425,0)" xlink:href="#ax"/></g><g id="S"><use transform="matrix(0.06172839506172839,0,0,0.06172839506172839,0,0)" xlink:href="#aQ"/><use transform="matrix(0.06172839506172839,0,0,0.06172839506172839,18.456790123456788,0)" xlink:href="#aM"/><use transform="matrix(0.06172839506172839,0,0,0.06172839506172839,29.5679012345679,0)" xlink:href="#ay"/><use transform="matrix(0.06172839506172839,0,0,0.06172839506172839,40.67901234567901,0)" xlink:href="#aR"/><use transform="matrix(0.06172839506172839,0,0,0.06172839506172839,46.23456790123457,0)" xlink:href="#aQ"/><use transform="matrix(0.06172839506172839,0,0,0.06172839506172839,64.69135802469135,0)" xlink:href="#ay"/><use transform="matrix(0.06172839506172839,0,0,0.06172839506172839,75.80246913580247,0)" xlink:href="#aD"/><use transform="matrix(0.06172839506172839,0,0,0.06172839506172839,84.81481481481481,0)" xlink:href="#aS"/></g><g id="T"><use transform="matrix(0.06172839506172839,0,0,0.06172839506172839,0,0)" xlink:href="#bl"/><use transform="matrix(0.06172839506172839,0,0,0.06172839506172839,11.975308641975307,0)" xlink:href="#aF"/><use transform="matrix(0.06172839506172839,0,0,0.06172839506172839,21.79012345679012,0)" xlink:href="#aG"/><use transform="matrix(0.06172839506172839,0,0,0.06172839506172839,32.90123456790123,0)" xlink:href="#aH"/><use transform="matrix(0.06172839506172839,0,0,0.06172839506172839,39.07407407407407,0)" xlink:href="#ax"/><use transform="matrix(0.06172839506172839,0,0,0.06172839506172839,48.888888888888886,0)" xlink:href="#aC"/></g><g id="U"><use transform="matrix(0.06172839506172839,0,0,0.06172839506172839,0,0)" xlink:href="#aD"/><use transform="matrix(0.06172839506172839,0,0,0.06172839506172839,9.012345679012345,0)" xlink:href="#bl"/><use transform="matrix(0.06172839506172839,0,0,0.06172839506172839,20.98765432098765,0)" xlink:href="#aF"/><use transform="matrix(0.06172839506172839,0,0,0.06172839506172839,30.80246913580247,0)" xlink:href="#aG"/><use transform="matrix(0.06172839506172839,0,0,0.06172839506172839,41.91358024691358,0)" xlink:href="#aH"/><use transform="matrix(0.06172839506172839,0,0,0.06172839506172839,48.086419753086425,0)" xlink:href="#ax"/></g><g id="V"><use transform="matrix(0.06172839506172839,0,0,0.06172839506172839,0,0)" xlink:href="#aT"/><use transform="matrix(0.06172839506172839,0,0,0.06172839506172839,11.11111111111111,0)" xlink:href="#aR"/><use transform="matrix(0.06172839506172839,0,0,0.06172839506172839,16.666666666666664,0)" xlink:href="#aT"/><use transform="matrix(0.06172839506172839,0,0,0.06172839506172839,27.777777777777775,0)" xlink:href="#aK"/></g><g id="W"><use transform="matrix(0.06172839506172839,0,0,0.06172839506172839,0,0)" xlink:href="#aE"/><use transform="matrix(0.06172839506172839,0,0,0.06172839506172839,13.518518518518517,0)" xlink:href="#aW"/><use transform="matrix(0.06172839506172839,0,0,0.06172839506172839,19.691358024691358,0)" xlink:href="#aO"/><use transform="matrix(0.06172839506172839,0,0,0.06172839506172839,28.333333333333332,0)" xlink:href="#az"/><use transform="matrix(0.06172839506172839,0,0,0.06172839506172839,34.50617283950617,0)" xlink:href="#aK"/></g><g id="X"><use transform="matrix(0.06172839506172839,0,0,0.06172839506172839,0,0)" xlink:href="#ay"/><use transform="matrix(0.06172839506172839,0,0,0.06172839506172839,11.11111111111111,0)" xlink:href="#av"/><use transform="matrix(0.06172839506172839,0,0,0.06172839506172839,22.22222222222222,0)" xlink:href="#aw"/><use transform="matrix(0.06172839506172839,0,0,0.06172839506172839,39.50617283950617,0)" xlink:href="#ax"/><use transform="matrix(0.06172839506172839,0,0,0.06172839506172839,49.32098765432099,0)" xlink:href="#aI"/><use transform="matrix(0.06172839506172839,0,0,0.06172839506172839,56.666666666666664,0)" xlink:href="#aW"/><use transform="matrix(0.06172839506172839,0,0,0.06172839506172839,62.839506172839506,0)" xlink:href="#au"/><use transform="matrix(0.06172839506172839,0,0,0.06172839506172839,72.65432098765432,0)" xlink:href="#aK"/></g><g id="Y"><use transform="matrix(0.06172839506172839,0,0,0.06172839506172839,0,0)" xlink:href="#aD"/><use transform="matrix(0.06172839506172839,0,0,0.06172839506172839,9.012345679012345,0)" xlink:href="#aE"/><use transform="matrix(0.06172839506172839,0,0,0.06172839506172839,22.53086419753086,0)" xlink:href="#aW"/><use transform="matrix(0.06172839506172839,0,0,0.06172839506172839,28.7037037037037,0)" xlink:href="#aO"/><use transform="matrix(0.06172839506172839,0,0,0.06172839506172839,37.34567901234567,0)" xlink:href="#az"/></g><g id="Z"><use transform="matrix(0.06172839506172839,0,0,0.06172839506172839,0,0)" xlink:href="#aQ"/><use transform="matrix(0.06172839506172839,0,0,0.06172839506172839,18.456790123456788,0)" xlink:href="#ay"/><use transform="matrix(0.06172839506172839,0,0,0.06172839506172839,29.5679012345679,0)" xlink:href="#aD"/><use transform="matrix(0.06172839506172839,0,0,0.06172839506172839,38.58024691358024,0)" xlink:href="#aK"/></g><g id="aa"><use transform="matrix(0.06172839506172839,0,0,0.06172839506172839,0,0)" xlink:href="#aM"/><use transform="matrix(0.06172839506172839,0,0,0.06172839506172839,11.11111111111111,0)" xlink:href="#aF"/><use transform="matrix(0.06172839506172839,0,0,0.06172839506172839,20.925925925925924,0)" xlink:href="#az"/><use transform="matrix(0.06172839506172839,0,0,0.06172839506172839,27.098765432098762,0)" xlink:href="#az"/><use transform="matrix(0.06172839506172839,0,0,0.06172839506172839,33.2716049382716,0)" xlink:href="#ax"/><use transform="matrix(0.06172839506172839,0,0,0.06172839506172839,43.08641975308642,0)" xlink:href="#aI"/><use transform="matrix(0.06172839506172839,0,0,0.06172839506172839,50.432098765432094,0)" xlink:href="#ay"/><use transform="matrix(0.06172839506172839,0,0,0.06172839506172839,61.5432098765432,0)" xlink:href="#aZ"/><use transform="matrix(0.06172839506172839,0,0,0.06172839506172839,72.65432098765432,0)" xlink:href="#ba"/><use transform="matrix(0.06172839506172839,0,0,0.06172839506172839,83.76543209876543,0)" xlink:href="#aH"/><use transform="matrix(0.06172839506172839,0,0,0.06172839506172839,89.93827160493827,0)" xlink:href="#at"/><use transform="matrix(0.06172839506172839,0,0,0.06172839506172839,101.04938271604938,0)" xlink:href="#aG"/><use transform="matrix(0.06172839506172839,0,0,0.06172839506172839,112.1604938271605,0)" xlink:href="#aF"/><use transform="matrix(0.06172839506172839,0,0,0.06172839506172839,121.9753086419753,0)" xlink:href="#aH"/><use transform="matrix(0.06172839506172839,0,0,0.06172839506172839,128.14814814814815,0)" xlink:href="#aC"/></g><g id="ab"><use transform="matrix(0.06172839506172839,0,0,0.06172839506172839,0,0)" xlink:href="#aD"/><use transform="matrix(0.06172839506172839,0,0,0.06172839506172839,9.012345679012345,0)" xlink:href="#aQ"/><use transform="matrix(0.06172839506172839,0,0,0.06172839506172839,27.469135802469133,0)" xlink:href="#aM"/><use transform="matrix(0.06172839506172839,0,0,0.06172839506172839,38.58024691358024,0)" xlink:href="#aF"/><use transform="matrix(0.06172839506172839,0,0,0.06172839506172839,48.395061728395056,0)" xlink:href="#aI"/><use transform="matrix(0.06172839506172839,0,0,0.06172839506172839,55.74074074074073,0)" xlink:href="#ax"/><use transform="matrix(0.06172839506172839,0,0,0.06172839506172839,65.55555555555554,0)" xlink:href="#ay"/><use transform="matrix(0.06172839506172839,0,0,0.06172839506172839,76.66666666666666,0)" xlink:href="#az"/></g><g id="ac"><use transform="matrix(0.06172839506172839,0,0,0.06172839506172839,0,0)" xlink:href="#aE"/><use transform="matrix(0.06172839506172839,0,0,0.06172839506172839,13.518518518518517,0)" xlink:href="#aW"/><use transform="matrix(0.06172839506172839,0,0,0.06172839506172839,19.691358024691358,0)" xlink:href="#aO"/><use transform="matrix(0.06172839506172839,0,0,0.06172839506172839,28.333333333333332,0)" xlink:href="#az"/><use transform="matrix(0.06172839506172839,0,0,0.06172839506172839,34.50617283950617,0)" xlink:href="#aC"/></g><g id="ad"><use transform="matrix(0.06172839506172839,0,0,0.06172839506172839,0,0)" xlink:href="#aD"/><use transform="matrix(0.06172839506172839,0,0,0.06172839506172839,9.012345679012345,0)" xlink:href="#aA"/><use transform="matrix(0.06172839506172839,0,0,0.06172839506172839,25,0)" xlink:href="#aR"/><use transform="matrix(0.06172839506172839,0,0,0.06172839506172839,30.555555555555557,0)" xlink:href="#aT"/><use transform="matrix(0.06172839506172839,0,0,0.06172839506172839,41.66666666666667,0)" xlink:href="#aR"/><use transform="matrix(0.06172839506172839,0,0,0.06172839506172839,47.22222222222223,0)" xlink:href="#aT"/></g><g id="ae"><use transform="matrix(0.06172839506172839,0,0,0.06172839506172839,0,0)" xlink:href="#aE"/><use transform="matrix(0.06172839506172839,0,0,0.06172839506172839,13.518518518518517,0)" xlink:href="#aW"/><use transform="matrix(0.06172839506172839,0,0,0.06172839506172839,19.691358024691358,0)" xlink:href="#aO"/><use transform="matrix(0.06172839506172839,0,0,0.06172839506172839,28.333333333333332,0)" xlink:href="#az"/></g><g id="af"><use transform="matrix(0.06172839506172839,0,0,0.06172839506172839,0,0)" xlink:href="#aT"/><use transform="matrix(0.06172839506172839,0,0,0.06172839506172839,11.11111111111111,0)" xlink:href="#aD"/></g><g id="ag"><use transform="matrix(0.06172839506172839,0,0,0.06172839506172839,0,0)" xlink:href="#aN"/><use transform="matrix(0.06172839506172839,0,0,0.06172839506172839,14.814814814814813,0)" xlink:href="#at"/><use transform="matrix(0.06172839506172839,0,0,0.06172839506172839,25.925925925925924,0)" xlink:href="#ay"/><use transform="matrix(0.06172839506172839,0,0,0.06172839506172839,37.03703703703704,0)" xlink:href="#az"/><use transform="matrix(0.06172839506172839,0,0,0.06172839506172839,43.20987654320988,0)" xlink:href="#ax"/><use transform="matrix(0.06172839506172839,0,0,0.06172839506172839,53.0246913580247,0)" xlink:href="#aB"/><use transform="matrix(0.06172839506172839,0,0,0.06172839506172839,64.13580246913581,0)" xlink:href="#az"/></g><g id="ah"><use transform="matrix(0.06172839506172839,0,0,0.06172839506172839,0,0)" xlink:href="#aJ"/><use transform="matrix(0.06172839506172839,0,0,0.06172839506172839,7.345679012345679,0)" xlink:href="#as"/><use transform="matrix(0.06172839506172839,0,0,0.06172839506172839,23.333333333333332,0)" xlink:href="#at"/><use transform="matrix(0.06172839506172839,0,0,0.06172839506172839,34.44444444444444,0)" xlink:href="#au"/><use transform="matrix(0.06172839506172839,0,0,0.06172839506172839,44.25925925925926,0)" xlink:href="#av"/><use transform="matrix(0.06172839506172839,0,0,0.06172839506172839,55.37037037037037,0)" xlink:href="#aw"/><use transform="matrix(0.06172839506172839,0,0,0.06172839506172839,72.65432098765432,0)" xlink:href="#ax"/><use transform="matrix(0.06172839506172839,0,0,0.06172839506172839,82.46913580246913,0)" xlink:href="#ay"/><use transform="matrix(0.06172839506172839,0,0,0.06172839506172839,93.58024691358024,0)" xlink:href="#az"/><use transform="matrix(0.06172839506172839,0,0,0.06172839506172839,99.75308641975307,0)" xlink:href="#aS"/></g><g id="ai"><use transform="matrix(0.06172839506172839,0,0,0.06172839506172839,0,0)" xlink:href="#aJ"/><use transform="matrix(0.06172839506172839,0,0,0.06172839506172839,7.345679012345679,0)" xlink:href="#aA"/><use transform="matrix(0.06172839506172839,0,0,0.06172839506172839,23.333333333333332,0)" xlink:href="#ay"/><use transform="matrix(0.06172839506172839,0,0,0.06172839506172839,34.44444444444444,0)" xlink:href="#ay"/><use transform="matrix(0.06172839506172839,0,0,0.06172839506172839,45.55555555555556,0)" xlink:href="#ax"/><use transform="matrix(0.06172839506172839,0,0,0.06172839506172839,55.370370370370374,0)" xlink:href="#aB"/></g><g id="aj"><use transform="matrix(0.06172839506172839,0,0,0.06172839506172839,0,0)" xlink:href="#aA"/><use transform="matrix(0.06172839506172839,0,0,0.06172839506172839,15.987654320987653,0)" xlink:href="#aS"/></g><g id="ak"><use transform="matrix(0.06172839506172839,0,0,0.06172839506172839,0,0)" xlink:href="#aJ"/><use transform="matrix(0.06172839506172839,0,0,0.06172839506172839,7.345679012345679,0)" xlink:href="#aN"/><use transform="matrix(0.06172839506172839,0,0,0.06172839506172839,22.160493827160494,0)" xlink:href="#aH"/><use transform="matrix(0.06172839506172839,0,0,0.06172839506172839,28.333333333333332,0)" xlink:href="#aF"/><use transform="matrix(0.06172839506172839,0,0,0.06172839506172839,38.148148148148145,0)" xlink:href="#av"/><use transform="matrix(0.06172839506172839,0,0,0.06172839506172839,49.25925925925925,0)" xlink:href="#aO"/><use transform="matrix(0.06172839506172839,0,0,0.06172839506172839,57.90123456790123,0)" xlink:href="#ax"/></g><g id="al"><use transform="matrix(0.06172839506172839,0,0,0.06172839506172839,0,0)" xlink:href="#aA"/><use transform="matrix(0.06172839506172839,0,0,0.06172839506172839,15.987654320987653,0)" xlink:href="#aR"/><use transform="matrix(0.06172839506172839,0,0,0.06172839506172839,21.54320987654321,0)" xlink:href="#aT"/><use transform="matrix(0.06172839506172839,0,0,0.06172839506172839,32.654320987654316,0)" xlink:href="#aS"/></g><g id="am"><use transform="matrix(0.06172839506172839,0,0,0.06172839506172839,0,0)" xlink:href="#aJ"/><use transform="matrix(0.06172839506172839,0,0,0.06172839506172839,7.345679012345679,0)" xlink:href="#aU"/><use transform="matrix(0.06172839506172839,0,0,0.06172839506172839,19.691358024691358,0)" xlink:href="#av"/><use transform="matrix(0.06172839506172839,0,0,0.06172839506172839,30.80246913580247,0)" xlink:href="#aG"/><use transform="matrix(0.06172839506172839,0,0,0.06172839506172839,41.91358024691358,0)" xlink:href="#au"/><use transform="matrix(0.06172839506172839,0,0,0.06172839506172839,51.7283950617284,0)" xlink:href="#aH"/><use transform="matrix(0.06172839506172839,0,0,0.06172839506172839,57.90123456790124,0)" xlink:href="#aF"/><use transform="matrix(0.06172839506172839,0,0,0.06172839506172839,67.71604938271605,0)" xlink:href="#av"/><use transform="matrix(0.06172839506172839,0,0,0.06172839506172839,78.82716049382717,0)" xlink:href="#aO"/><use transform="matrix(0.06172839506172839,0,0,0.06172839506172839,87.46913580246914,0)" xlink:href="#ax"/></g><g id="an"><use transform="matrix(0.06172839506172839,0,0,0.06172839506172839,0,0)" xlink:href="#aA"/><use transform="matrix(0.06172839506172839,0,0,0.06172839506172839,15.987654320987653,0)" xlink:href="#aR"/><use transform="matrix(0.06172839506172839,0,0,0.06172839506172839,21.54320987654321,0)" xlink:href="#aT"/><use transform="matrix(0.06172839506172839,0,0,0.06172839506172839,32.654320987654316,0)" xlink:href="#aR"/><use transform="matrix(0.06172839506172839,0,0,0.06172839506172839,38.20987654320987,0)" xlink:href="#aT"/><use transform="matrix(0.06172839506172839,0,0,0.06172839506172839,49.32098765432099,0)" xlink:href="#aS"/></g><g id="ao"><use transform="matrix(0.06172839506172839,0,0,0.06172839506172839,0,0)" xlink:href="#aJ"/><use transform="matrix(0.06172839506172839,0,0,0.06172839506172839,7.345679012345679,0)" xlink:href="#aA"/><use transform="matrix(0.06172839506172839,0,0,0.06172839506172839,23.333333333333332,0)" xlink:href="#aR"/><use transform="matrix(0.06172839506172839,0,0,0.06172839506172839,28.888888888888886,0)" xlink:href="#aT"/><use transform="matrix(0.06172839506172839,0,0,0.06172839506172839,40,0)" xlink:href="#aR"/><use transform="matrix(0.06172839506172839,0,0,0.06172839506172839,45.55555555555556,0)" xlink:href="#aT"/></g><g id="ap"><use transform="matrix(0.06172839506172839,0,0,0.06172839506172839,0,0)" xlink:href="#aT"/><use transform="matrix(0.06172839506172839,0,0,0.06172839506172839,11.11111111111111,0)" xlink:href="#aS"/></g><use transform="matrix(0.06172839506172839,0,0,0.06172839506172839,0,0)" xlink:href="#aT" id="aq"/><g id="ar"><use transform="matrix(0.06172839506172839,0,0,0.06172839506172839,0,0)" xlink:href="#aF"/><use transform="matrix(0.06172839506172839,0,0,0.06172839506172839,9.814814814814815,0)" xlink:href="#aS"/><use transform="matrix(0.06172839506172839,0,0,0.06172839506172839,17.160493827160494,0)" xlink:href="#aS"/></g></defs></g></svg>