<svg xmlns="http://www.w3.org/2000/svg" xmlns:xlink="http://www.w3.org/1999/xlink" xmlns:lucid="lucid" width="1814.61" height="1331.05"><g transform="translate(-210.32358455192298 -99)" lucid:page-tab-id="fJeXwV-7ekxq"><path d="M460 106a6 6 0 0 1 6-6h111.8a6 6 0 0 1 6 6v49.9a6 6 0 0 1-6 6H466a6 6 0 0 1-6-6z" stroke="#3a414a" stroke-width="2" fill="#fff"/><use xlink:href="#a" transform="matrix(1,0,0,1,465,105) translate(10.796296296296298 30.77777777777778)"/><path d="M600 305.3a6 6 0 0 1 6-6h111.8a6 6 0 0 1 6 6v51.32a6 6 0 0 1-6 6H606a6 6 0 0 1-6-6z" stroke="#3a414a" stroke-width="2" fill="#fff"/><use xlink:href="#b" transform="matrix(1,0,0,1,605,304.2857142857143) translate(23.728395061728392 21.15277777777778)"/><use xlink:href="#c" transform="matrix(1,0,0,1,605,304.2857142857143) translate(9.46913580246914 47.81944444444444)"/><use xlink:href="#d" transform="matrix(1,0,0,1,605,304.2857142857143) translate(84.4074074074074 47.81944444444444)"/><path d="M523.9 163.9v10.74m0 10.74v21.47m0 10.74v21.46m0 10.74v21.47m0 10.74v21.48m0 10.74v10.73l.05.63.15.6.24.6.33.52.4.48.48.4.54.34.57.24.6.14.63.05h8.77m8.77 0h17.53m8.76 0h8.77" stroke="#3a414a" stroke-width="2" fill="none"/><path d="M519.9 163.9v10.74m0 10.74v21.47m0 10.74v21.46m0 10.74v21.47m0 10.74v21.48m0 10.74v10.73l.1 1.25.3 1.23.48 1.15.65 1.07.82.96.95.82 1.07.66 1.16.48 1.22.3 1.25.1h8.77m8.77 0h17.53m8.76 0h8.77" stroke="#3a414a" stroke-width="2" fill="none"/><path d="M524.88 163.93h-1.95v-1.03h1.95zM520.88 163.93h-1.95v-1.03h1.95z" stroke="#3a414a" stroke-width=".05" fill="#3a414a"/><path d="M595.76 330.95l-14.26 4.64v-9.28z" stroke="#3a414a" stroke-width="2" fill="#3a414a"/><path d="M612.5 167.9a6 6 0 0 1 6-6h491.92a6 6 0 0 1 6 6v78a6 6 0 0 1-6 6H618.5a6 6 0 0 1-6-6z" stroke="#3a414a" stroke-width="2" fill="#edf5ff"/><use xlink:href="#e" transform="matrix(1,0,0,1,617.4859392575929,166.9047619047619) translate(8.975308641975317 30.27777777777778)"/><use xlink:href="#f" transform="matrix(1,0,0,1,617.4859392575929,166.9047619047619) translate(88.29629629629632 30.27777777777778)"/><use xlink:href="#g" transform="matrix(1,0,0,1,617.4859392575929,166.9047619047619) translate(172.679012345679 30.27777777777778)"/><use xlink:href="#h" transform="matrix(1,0,0,1,617.4859392575929,166.9047619047619) translate(276.1975308641976 30.27777777777778)"/><use xlink:href="#i" transform="matrix(1,0,0,1,617.4859392575929,166.9047619047619) translate(326.1358024691358 30.27777777777778)"/><use xlink:href="#j" transform="matrix(1,0,0,1,617.4859392575929,166.9047619047619) translate(397.6172839506173 30.27777777777778)"/><use xlink:href="#k" transform="matrix(1,0,0,1,617.4859392575929,166.9047619047619) translate(108.0493827160494 56.94444444444445)"/><use xlink:href="#l" transform="matrix(1,0,0,1,617.4859392575929,166.9047619047619) translate(191.81481481481484 56.94444444444445)"/><use xlink:href="#m" transform="matrix(1,0,0,1,617.4859392575929,166.9047619047619) translate(265.0864197530864 56.94444444444445)"/><use xlink:href="#n" transform="matrix(1,0,0,1,617.4859392575929,166.9047619047619) translate(340.0246913580247 56.94444444444445)"/><path d="M585.3 130.95h273.15a6 6 0 0 1 6 6v7.57" stroke="#3a414a" fill="none"/><path d="M585.32 131.43h-.5v-.95h.5z" stroke="#3a414a" stroke-width=".05" fill="#3a414a"/><path d="M864.45 159.3L859.82 145h9.27z" stroke="#3a414a" fill="#3a414a"/><path d="M760 367.9a6 6 0 0 1 6-6h491.94a6 6 0 0 1 6 6v78a6 6 0 0 1-6 6H766a6 6 0 0 1-6-6z" stroke="#3a414a" stroke-width="2" fill="#edf5ff"/><use xlink:href="#e" transform="matrix(1,0,0,1,765,366.90476190476187) translate(45.858024691358025 30.27777777777778)"/><use xlink:href="#f" transform="matrix(1,0,0,1,765,366.90476190476187) translate(125.17901234567903 30.27777777777778)"/><use xlink:href="#o" transform="matrix(1,0,0,1,765,366.90476190476187) translate(209.56172839506172 30.27777777777778)"/><use xlink:href="#p" transform="matrix(1,0,0,1,765,366.90476190476187) translate(275.48765432098764 30.27777777777778)"/><use xlink:href="#h" transform="matrix(1,0,0,1,765,366.90476190476187) translate(297.7098765432099 30.27777777777778)"/><use xlink:href="#q" transform="matrix(1,0,0,1,765,366.90476190476187) translate(347.64814814814815 30.27777777777778)"/><use xlink:href="#r" transform="matrix(1,0,0,1,765,366.90476190476187) translate(76.96913580246917 56.94444444444445)"/><use xlink:href="#k" transform="matrix(1,0,0,1,765,366.90476190476187) translate(169.9320987654321 56.94444444444445)"/><use xlink:href="#l" transform="matrix(1,0,0,1,765,366.90476190476187) translate(253.69753086419755 56.94444444444445)"/><use xlink:href="#s" transform="matrix(1,0,0,1,765,366.90476190476187) translate(326.96913580246917 56.94444444444445)"/><path d="M725.3 330.95h280.67a6 6 0 0 1 6 6v7.57" stroke="#3a414a" fill="none"/><path d="M725.32 331.43h-.5v-.95h.5z" stroke="#3a414a" stroke-width=".05" fill="#3a414a"/><path d="M1011.97 359.3l-4.64-14.28h9.27z" stroke="#3a414a" fill="#3a414a"/><path d="M723.8 505.3a6 6 0 0 1 6-6h111.82a6 6 0 0 1 6 6v51.32a6 6 0 0 1-6 6h-111.8a6 6 0 0 1-6-6z" stroke="#3a414a" stroke-width="2" fill="#fff"/><use xlink:href="#t" transform="matrix(1,0,0,1,728.8095238095239,504.2857142857143) translate(8.94444444444445 21.15277777777778)"/><use xlink:href="#u" transform="matrix(1,0,0,1,728.8095238095239,504.2857142857143) translate(34.098765432098766 47.81944444444444)"/><path d="M1000 769.33a6 6 0 0 1 6-6h491.94a6 6 0 0 1 6 6v78a6 6 0 0 1-6 6H1006a6 6 0 0 1-6-6z" stroke="#3a414a" stroke-width="2" fill="#edf5ff"/><use xlink:href="#e" transform="matrix(1,0,0,1,1005,768.3333333333334) translate(0.9506172839506348 20.30902777777778)"/><use xlink:href="#f" transform="matrix(1,0,0,1,1005,768.3333333333334) translate(80.27160493827164 20.30902777777778)"/><use xlink:href="#o" transform="matrix(1,0,0,1,1005,768.3333333333334) translate(164.65432098765433 20.30902777777778)"/><use xlink:href="#v" transform="matrix(1,0,0,1,1005,768.3333333333334) translate(230.58024691358025 20.30902777777778)"/><use xlink:href="#h" transform="matrix(1,0,0,1,1005,768.3333333333334) translate(269.4691358024691 20.30902777777778)"/><use xlink:href="#w" transform="matrix(1,0,0,1,1005,768.3333333333334) translate(319.4074074074074 20.30902777777778)"/><use xlink:href="#j" transform="matrix(1,0,0,1,1005,768.3333333333334) translate(405.641975308642 20.30902777777778)"/><use xlink:href="#x" transform="matrix(1,0,0,1,1005,768.3333333333334) translate(9.314814814814838 46.97569444444444)"/><use xlink:href="#y" transform="matrix(1,0,0,1,1005,768.3333333333334) translate(68.45061728395063 46.97569444444444)"/><use xlink:href="#z" transform="matrix(1,0,0,1,1005,768.3333333333334) translate(195.91975308641975 46.97569444444444)"/><use xlink:href="#A" transform="matrix(1,0,0,1,1005,768.3333333333334) translate(261.9691358024691 46.97569444444444)"/><use xlink:href="#B" transform="matrix(1,0,0,1,1005,768.3333333333334) translate(401.84567901234567 46.97569444444444)"/><use xlink:href="#C" transform="matrix(1,0,0,1,1005,768.3333333333334) translate(204.37654320987653 73.64236111111111)"/><path d="M972.93 731.67h273.04a6 6 0 0 1 6 6v8.28" stroke="#3a414a" fill="none"/><path d="M972.94 732.14h-.5v-.95h.5z" stroke="#3a414a" stroke-width=".05" fill="#3a414a"/><path d="M1251.97 760.7l-4.64-14.25h9.27z" stroke="#3a414a" fill="#3a414a"/><path d="M663.9 364.62v10.7m0 10.68v21.38m0 10.68v21.38m0 10.7v21.37m0 10.7v21.38m0 10.68v10.7l.05.62.15.6.24.6.33.52.4.48.48.4.54.34.57.24.6.14.63.05h12.14m12.13 0h12.14" stroke="#3a414a" stroke-width="2" fill="none"/><path d="M659.9 364.62v10.7m0 10.68v21.38m0 10.68v21.38m0 10.7v21.37m0 10.7v21.38m0 10.68v10.7l.1 1.24.3 1.22.48 1.16.65 1.07.82.96.95.82 1.07.66 1.16.48 1.22.3 1.25.1h12.14m12.13 0h12.14" stroke="#3a414a" stroke-width="2" fill="none"/><path d="M664.88 364.64h-1.95v-1.02h1.95zM660.88 364.64h-1.95v-1.02h1.95z" stroke="#3a414a" stroke-width=".05" fill="#3a414a"/><path d="M719.57 530.95l-14.26 4.64v-9.28z" stroke="#3a414a" stroke-width="2" fill="#3a414a"/><path d="M738.02 276.07h-70.1l-.88.07-.84.2-.8.33-.74.46-.66.56-.56.65-.46.74-.33.8-.2.83-.07.88v.3h-.95v-.32l.08-1 .25-1 .38-.93.53-.86.67-.78.77-.66.87-.54.93-.38 1-.24 1-.08H738zm126.9-6.46l-.07 1-.24 1-.38.94-.53.86-.67.78-.77.65-.87.54-.94.38-1 .24-1 .07h-70.12v-.95h70.1l.88-.07.84-.2.8-.33.74-.46.66-.56.56-.66.46-.74.33-.8.2-.84.08-.88V253.4h.95z" stroke="#3a414a" stroke-width=".05" fill="#3a414a"/><path d="M864.93 253.42h-.95v-.5h.95z" fill="#3a414a"/><path stroke="#3a414a" stroke-width=".05" fill="#3a414a"/><path d="M661.9 296.67l-4.63-14.27h9.27z" fill="#3a414a"/><path d="M661.9 298.2l-5.28-16.27h10.57zm-3.98-15.32l4 12.25 3.97-12.25z" stroke="#3a414a" stroke-width=".05" fill="#3a414a"/><use xlink:href="#D" transform="matrix(1,0,0,1,738.0191087225209,264.9285714285713) translate(0 14.222222222222223)"/><path d="M873.68 476.07h-81.95l-.88.07-.84.2-.8.33-.73.46-.66.56-.55.65-.46.74-.34.8-.2.83-.07.88v.3h-.96v-.32l.08-1 .23-1 .4-.93.52-.86.66-.78.78-.66.87-.54.94-.38 1-.24 1-.08h81.98zm138.76-6.46l-.08 1-.23 1-.4.94-.52.86-.65.78-.77.65-.87.54-.93.38-1 .24-.98.07h-82v-.95h81.95l.88-.07.84-.2.8-.33.75-.46.65-.56.57-.66.45-.74.32-.8.2-.84.07-.88V453.4h.94z" stroke="#3a414a" stroke-width=".05" fill="#3a414a"/><path d="M1012.44 453.42h-.95v-.52h.94z" fill="#3a414a"/><path stroke="#3a414a" stroke-width=".05" fill="#3a414a"/><path d="M785.7 496.67l-4.62-14.27h9.27z" fill="#3a414a"/><path d="M785.7 498.2l-5.28-16.27H791zm-3.97-15.32l3.98 12.25 4-12.25z" stroke="#3a414a" stroke-width=".05" fill="#3a414a"/><use xlink:href="#D" transform="matrix(1,0,0,1,873.6809009984863,464.9285714285713) translate(0 14.222222222222223)"/><path d="M1545.4 802.35l-.07 1-.23 1-.4.92-.52.87-.66.77-.78.67-.86.53-.94.4-1 .23-.98.08h-33.52v-.94h33.48l.88-.07.84-.2.8-.35.74-.45.66-.56.57-.66.46-.74.33-.8.2-.84.06-.88V658.3h.95zm-5.45-195.84l1 .25.93.38.86.53.78.67.66.77.53.87.4.93.23 1 .08 1v24.05h-.94v-24.03l-.07-.88-.2-.84-.34-.8-.45-.74-.56-.66-.66-.56-.74-.46-.8-.33-.84-.2-.88-.07h-137.6v-.95h137.64z" stroke="#3a414a" stroke-width=".05" fill="#3a414a"/><path d="M1505.45 808.8h-.5v-.94h.5z" fill="#3a414a"/><path stroke="#3a414a" stroke-width=".05" fill="#3a414a"/><path d="M1400.82 611.54l-14.26-4.63 14.26-4.63z" fill="#3a414a"/><path d="M1401.3 612.2l-16.28-5.3 16.28-5.28zm-13.2-5.3l12.25 4v-7.98z" stroke="#3a414a" stroke-width=".05" fill="#3a414a"/><use xlink:href="#E" transform="matrix(1,0,0,1,1519.5295505925935,636.952380952381) translate(0 14.222222222222223)"/><path d="M1305.4 400.92l-.07 1-.23 1-.4.93-.52.86-.66.78-.78.66-.86.54-.94.38-1 .24-.98.08h-33.52v-.95h33.48l.88-.07.84-.2.8-.33.74-.46.66-.56.57-.65.46-.74.33-.8.2-.83.06-.88V243.8h.95zm-5.45-194.4l1 .22.93.4.86.53.78.66.66.77.53.87.4.93.23 1 .08 1v9.58h-.94v-9.56l-.07-.88-.2-.84-.34-.8-.45-.74-.56-.66-.66-.56-.74-.46-.8-.33-.84-.2-.88-.07h-165.1v-.95h165.14z" stroke="#3a414a" stroke-width=".05" fill="#3a414a"/><path d="M1265.45 407.38h-.5v-.95h.5z" fill="#3a414a"/><path stroke="#3a414a" stroke-width=".05" fill="#3a414a"/><path d="M1133.3 211.54l-14.26-4.63 14.27-4.63z" fill="#3a414a"/><path d="M1133.78 212.2l-16.28-5.3 16.28-5.28zm-13.2-5.3l12.25 4v-7.98z" stroke="#3a414a" stroke-width=".05" fill="#3a414a"/><use xlink:href="#E" transform="matrix(1,0,0,1,1279.5295505925935,222.48106486689167) translate(0 14.222222222222223)"/><path d="M980 907.43a6 6 0 0 1 6-6h111.8a6 6 0 0 1 6 6v51.33a6 6 0 0 1-6 6H986a6 6 0 0 1-6-6z" stroke="#3a414a" stroke-width="2" fill="#fff"/><use xlink:href="#F" transform="matrix(1,0,0,1,985,906.4285714285716) translate(16.351851851851855 21.15277777777778)"/><use xlink:href="#G" transform="matrix(1,0,0,1,985,906.4285714285716) translate(22.74074074074074 47.81944444444444)"/><use xlink:href="#H" transform="matrix(1,0,0,1,985,906.4285714285716) translate(65.08641975308643 47.81944444444444)"/><path d="M1120 970.76a6 6 0 0 1 6-6h491.94a6 6 0 0 1 6 6v78a6 6 0 0 1-6 6H1126a6 6 0 0 1-6-6z" stroke="#3a414a" stroke-width="2" fill="#edf5ff"/><use xlink:href="#e" transform="matrix(1,0,0,1,1125,969.7619047619049) translate(27.06172839506175 20.30902777777778)"/><use xlink:href="#f" transform="matrix(1,0,0,1,1125,969.7619047619049) translate(106.38271604938275 20.30902777777778)"/><use xlink:href="#o" transform="matrix(1,0,0,1,1125,969.7619047619049) translate(190.76543209876544 20.30902777777778)"/><use xlink:href="#I" transform="matrix(1,0,0,1,1125,969.7619047619049) translate(256.69135802469134 20.30902777777778)"/><use xlink:href="#J" transform="matrix(1,0,0,1,1125,969.7619047619049) translate(290.0246913580247 20.30902777777778)"/><use xlink:href="#p" transform="matrix(1,0,0,1,1125,969.7619047619049) translate(330.0864197530864 20.30902777777778)"/><use xlink:href="#h" transform="matrix(1,0,0,1,1125,969.7619047619049) translate(352.30864197530866 20.30902777777778)"/><use xlink:href="#K" transform="matrix(1,0,0,1,1125,969.7619047619049) translate(402.2469135802469 20.30902777777778)"/><use xlink:href="#r" transform="matrix(1,0,0,1,1125,969.7619047619049) translate(68.97530864197535 46.97569444444444)"/><use xlink:href="#L" transform="matrix(1,0,0,1,1125,969.7619047619049) translate(161.93827160493828 46.97569444444444)"/><use xlink:href="#y" transform="matrix(1,0,0,1,1125,969.7619047619049) translate(229.71604938271608 46.97569444444444)"/><use xlink:href="#M" transform="matrix(1,0,0,1,1125,969.7619047619049) translate(357.18518518518516 46.97569444444444)"/><use xlink:href="#A" transform="matrix(1,0,0,1,1125,969.7619047619049) translate(93.91358024691357 73.64236111111111)"/><use xlink:href="#N" transform="matrix(1,0,0,1,1125,969.7619047619049) translate(233.7901234567901 73.64236111111111)"/><use xlink:href="#O" transform="matrix(1,0,0,1,1125,969.7619047619049) translate(322.18518518518516 73.64236111111111)"/><path d="M1105.3 933.1h260.67a6 6 0 0 1 6 6v8.28" stroke="#3a414a" fill="none"/><path d="M1105.32 933.57h-.5v-.95h.5z" stroke="#3a414a" stroke-width=".05" fill="#3a414a"/><path d="M1371.97 962.14l-4.64-14.26h9.27z" stroke="#3a414a" fill="#3a414a"/><path d="M787.7 564.62v10.74m0 10.73v21.47m0 10.73v21.48m0 10.73V672m0 10.74v21.47m0 10.73v10.74l.06.62.15.6.25.58.33.54.4.48.48.4.54.33.58.24.6.15.63.05h12.15m12.13 0h12.14" stroke="#3a414a" stroke-width="2" fill="none"/><path d="M783.7 564.62v10.74m0 10.73v21.47m0 10.73v21.48m0 10.73V672m0 10.74v21.47m0 10.73v10.74l.1 1.25.3 1.22.5 1.16.64 1.07.82.95.95.82 1.08.65 1.16.48 1.22.3 1.25.1h12.15m12.13 0h12.14" stroke="#3a414a" stroke-width="2" fill="none"/><path d="M788.7 564.64h-1.96v-1.02h1.95zM784.7 564.64h-1.96v-1.02h1.95z" stroke="#3a414a" stroke-width=".05" fill="#3a414a"/><path d="M843.38 731.67l-14.26 4.63v-9.27z" stroke="#3a414a" stroke-width="2" fill="#3a414a"/><path d="M1123.73 877.86h-71.9l-.9.06-.83.2-.8.34-.74.45-.66.58-.56.65-.45.74-.35.8-.2.85-.07.88v.64h-.95v-.68l.08-1 .25-.98.4-.94.52-.87.66-.77.77-.66.87-.53.94-.38 1-.24 1-.07h71.93zm128.7-6.46l-.07 1-.23.98-.4.94-.52.87-.65.76-.77.66-.87.53-.93.4-1 .23-.98.08h-71.95v-.95h71.9l.88-.06.85-.2.8-.34.73-.45.67-.56.57-.67.45-.74.32-.8.2-.86.07-.88v-16.53h.94z" stroke="#3a414a" stroke-width=".05" fill="#3a414a"/><path d="M1252.44 854.85h-.95v-.52h.94z" fill="#3a414a"/><path stroke="#3a414a" stroke-width=".05" fill="#3a414a"/><path d="M1045.8 898.8l-4.63-14.25h9.27z" fill="#3a414a"/><path d="M1045.8 900.35l-5.28-16.28h10.58zm-3.97-15.33l3.98 12.25 4-12.25z" stroke="#3a414a" stroke-width=".05" fill="#3a414a"/><use xlink:href="#D" transform="matrix(1,0,0,1,1123.727093628871,866.7142839693945) translate(0 14.222222222222223)"/><path d="M1665.4 1003.78l-.07 1-.23.98-.4.94-.52.87-.66.77-.78.66-.86.53-.94.4-1 .23-.98.08h-33.52v-.95h33.48l.88-.08.84-.2.8-.34.74-.45.66-.56.57-.66.46-.73.33-.8.2-.84.06-.9V859.72h.95zm-5.45-195.84l1 .23.93.4.86.52.78.65.66.78.53.86.4.93.23 1 .08 1v24.05h-.94v-24.03l-.07-.88-.2-.84-.34-.8-.45-.74-.56-.67-.66-.56-.74-.46-.8-.32-.84-.2-.88-.07h-137.6v-.94h137.64z" stroke="#3a414a" stroke-width=".05" fill="#3a414a"/><path d="M1625.45 1010.24h-.5v-.95h.5z" fill="#3a414a"/><path stroke="#3a414a" stroke-width=".05" fill="#3a414a"/><path d="M1520.82 812.97l-14.26-4.64 14.26-4.63z" fill="#3a414a"/><path d="M1521.3 813.62l-16.28-5.3 16.28-5.28zm-13.2-5.3l12.25 4v-7.97z" stroke="#3a414a" stroke-width=".05" fill="#3a414a"/><use xlink:href="#E" transform="matrix(1,0,0,1,1639.5295505925935,838.3809523809525) translate(0 14.222222222222223)"/><path d="M847.62 1345.05a6 6 0 0 1 6-6h111.8a6 6 0 0 1 6 6v78a6 6 0 0 1-6 6h-111.8a6 6 0 0 1-6-6z" stroke="#3a414a" stroke-width="2" fill="#fff"/><use xlink:href="#P" transform="matrix(1,0,0,1,852.6190476190476,1344.047619047619) translate(24.962962962962962 30.27777777777778)"/><use xlink:href="#Q" transform="matrix(1,0,0,1,852.6190476190476,1344.047619047619) translate(10.703703703703702 56.94444444444445)"/><use xlink:href="#d" transform="matrix(1,0,0,1,852.6190476190476,1344.047619047619) translate(83.17283950617283 56.94444444444445)"/><path d="M787.7 564.62v10.04m0 10.04v20.1m0 10.03v20.08m0 10.06v20.08m0 10.05v20.07m0 10.04v20.1m0 10.04v20.08m0 10.05v20.08m0 10.04v20.08m0 10.04v20.08m0 10.05v20.08m0 10.04v20.1m0 10.03v20.08m0 10.05v20.08m0 10.05v20.1m0 10.03v20.1m0 10.03v20.1m0 10.03v20.1m0 10.03v20.1m0 10.03v20.07m0 10.05v20.08m0 10.04v20.1m0 10.03v20.1m0 10.03v20.08m0 10.04v20.1m0 10.03v20.1m0 10.03v20.08m0 10.05v10.05l.06.62.15.6.25.6.33.53.4.48.48.4.54.33.58.25.6.15.63.05h12.15m12.13 0h12.14" stroke="#3a414a" stroke-width="2" fill="none"/><path d="M783.7 564.62v10.04m0 10.04v20.1m0 10.03v20.08m0 10.06v20.08m0 10.05v20.07m0 10.04v20.1m0 10.04v20.08m0 10.05v20.08m0 10.04v20.08m0 10.04v20.08m0 10.05v20.08m0 10.04v20.1m0 10.03v20.08m0 10.05v20.08m0 10.05v20.1m0 10.03v20.1m0 10.03v20.1m0 10.03v20.1m0 10.03v20.1m0 10.03v20.07m0 10.05v20.08m0 10.04v20.1m0 10.03v20.1m0 10.03v20.08m0 10.04v20.1m0 10.03v20.1m0 10.03v20.08m0 10.05v10.05l.1 1.25.3 1.22.5 1.16.64 1.07.82.95.95.82 1.08.66 1.16.48 1.22.3 1.25.1h12.15m12.13 0h12.14" stroke="#3a414a" stroke-width="2" fill="none"/><path d="M788.7 564.64h-1.96v-1.02h1.95zM784.7 564.64h-1.96v-1.02h1.95z" stroke="#3a414a" stroke-width=".05" fill="#3a414a"/><path d="M843.38 1384.05l-14.26 4.63v-9.27z" stroke="#3a414a" stroke-width="2" fill="#3a414a"/><path d="M1520 1186a6 6 0 0 1 6-6h491.94a6 6 0 0 1 6 6v78a6 6 0 0 1-6 6H1526a6 6 0 0 1-6-6z" stroke="#3a414a" stroke-width="2" fill="#edf5ff"/><use xlink:href="#e" transform="matrix(1,0,0,1,1525,1185) translate(10.209876543209873 30.43402777777778)"/><use xlink:href="#f" transform="matrix(1,0,0,1,1525,1185) translate(89.53086419753087 30.43402777777778)"/><use xlink:href="#g" transform="matrix(1,0,0,1,1525,1185) translate(173.91358024691357 30.43402777777778)"/><use xlink:href="#h" transform="matrix(1,0,0,1,1525,1185) translate(277.4320987654321 30.43402777777778)"/><use xlink:href="#R" transform="matrix(1,0,0,1,1525,1185) translate(327.3703703703704 30.43402777777778)"/><use xlink:href="#j" transform="matrix(1,0,0,1,1525,1185) translate(396.38271604938274 30.43402777777778)"/><use xlink:href="#k" transform="matrix(1,0,0,1,1525,1185) translate(82.18518518518519 57.10069444444445)"/><use xlink:href="#y" transform="matrix(1,0,0,1,1525,1185) translate(165.95061728395063 57.10069444444445)"/><use xlink:href="#S" transform="matrix(1,0,0,1,1525,1185) translate(293.41975308641975 57.10069444444445)"/><use xlink:href="#n" transform="matrix(1,0,0,1,1525,1185) translate(365.8888888888889 57.10069444444445)"/><path d="M1766.98 130.56l1 .23.93.38.88.53.77.67.66.78.54.86.4.95.22 1 .08.98v1025.7h-.95V136.96l-.08-.88-.2-.85-.33-.8-.46-.74-.57-.65-.65-.57-.74-.45-.8-.33-.85-.2-.88-.07H585.3v-.95H1766z" stroke="#3a414a" stroke-width=".05" fill="#3a414a"/><path d="M585.32 131.43h-.5v-.95h.5z" fill="#3a414a"/><path stroke="#3a414a" stroke-width=".05" fill="#3a414a"/><path d="M1771.97 1177.38l-4.64-14.26h9.27z" fill="#3a414a"/><path d="M1771.97 1178.92l-5.3-16.28h10.6zm-3.98-15.33l3.97 12.25 3.98-12.26zM1315.6 1305H915.53l-.88.07-.84.2-.8.33-.74.46-.66.56-.57.66-.45.74-.33.8-.2.84-.07.88v11.12h-.95v-11.15l.08-1 .23-.98.4-.94.52-.86.66-.78.78-.66.86-.53.94-.4 1-.22 1-.08h400.07zm456.84-6.46l-.08 1-.23 1-.4.92-.52.87-.65.77-.77.66-.87.53-.93.38-1 .24-.98.08h-400.1v-.95h400.05l.88-.07.85-.2.8-.34.73-.45.67-.57.57-.66.45-.74.32-.8.2-.84.07-.9v-27h.94z" stroke="#3a414a" stroke-width=".05" fill="#3a414a"/><path d="M1772.44 1271.5h-.95v-.5h.94z" fill="#3a414a"/><path stroke="#3a414a" stroke-width=".05" fill="#3a414a"/><path d="M909.52 1336.43l-4.63-14.27h9.26z" fill="#3a414a"/><path d="M909.52 1337.97l-5.28-16.28h10.57zm-3.98-15.33l3.98 12.25 4-12.26z" stroke="#3a414a" stroke-width=".05" fill="#3a414a"/><use xlink:href="#D" transform="matrix(1,0,0,1,1315.5856629226707,1293.8571428571427) translate(0 14.222222222222223)"/><path d="M847.62 706a6 6 0 0 1 6-6h111.8a6 6 0 0 1 6 6v51.33a6 6 0 0 1-6 6h-111.8a6 6 0 0 1-6-6z" stroke="#3a414a" stroke-width="2" fill="#fff"/><use xlink:href="#T" transform="matrix(1,0,0,1,852.6190476190532,705) translate(12.123456790123456 21.15277777777778)"/><use xlink:href="#U" transform="matrix(1,0,0,1,852.6190476190532,705) translate(58.358024691358025 21.15277777777778)"/><use xlink:href="#d" transform="matrix(1,0,0,1,852.6190476190532,705) translate(46.93827160493827 47.81944444444444)"/><path d="M911.52 765.33v10.8m0 10.77v21.57m0 10.78v21.57m0 10.8v21.55m0 10.8v21.56m0 10.78v10.8l.05.62.15.6.24.6.33.53.4.47.47.4.54.34.6.24.6.15.62.05h15m15 0h14.98" stroke="#3a414a" stroke-width="2" fill="none"/><path d="M907.52 765.33v10.8m0 10.77v21.57m0 10.78v21.57m0 10.8v21.55m0 10.8v21.56m0 10.78v10.8l.1 1.25.3 1.22.48 1.16.65 1.07.82.95.95.82 1.07.65 1.15.48 1.22.3 1.25.1h15m15 0h14.98" stroke="#3a414a" stroke-width="2" fill="none"/><path d="M912.5 765.36h-1.95v-1.03h1.95zM908.5 765.36h-1.95v-1.03h1.95z" stroke="#3a414a" stroke-width=".05" fill="#3a414a"/><path d="M975.76 933.1l-14.26 4.63v-9.27z" stroke="#3a414a" stroke-width="2" fill="#3a414a"/><path d="M880 567.9a6 6 0 0 1 6-6h491.94a6 6 0 0 1 6 6v78a6 6 0 0 1-6 6H886a6 6 0 0 1-6-6z" stroke="#3a414a" stroke-width="2" fill="#edf5ff"/><g><use xlink:href="#e" transform="matrix(1,0,0,1,885,566.9047619047618) translate(21.259259259259295 20.30902777777778)"/><use xlink:href="#f" transform="matrix(1,0,0,1,885,566.9047619047618) translate(100.5802469135803 20.30902777777778)"/><use xlink:href="#o" transform="matrix(1,0,0,1,885,566.9047619047618) translate(184.962962962963 20.30902777777778)"/><use xlink:href="#v" transform="matrix(1,0,0,1,885,566.9047619047618) translate(250.8888888888889 20.30902777777778)"/><use xlink:href="#h" transform="matrix(1,0,0,1,885,566.9047619047618) translate(289.77777777777777 20.30902777777778)"/><use xlink:href="#V" transform="matrix(1,0,0,1,885,566.9047619047618) translate(339.71604938271605 20.30902777777778)"/><use xlink:href="#j" transform="matrix(1,0,0,1,885,566.9047619047618) translate(385.3333333333333 20.30902777777778)"/><use xlink:href="#W" transform="matrix(1,0,0,1,885,566.9047619047618) translate(20.549382716049422 46.97569444444444)"/><use xlink:href="#y" transform="matrix(1,0,0,1,885,566.9047619047618) translate(112.89506172839509 46.97569444444444)"/><use xlink:href="#X" transform="matrix(1,0,0,1,885,566.9047619047618) translate(240.3641975308642 46.97569444444444)"/><use xlink:href="#Y" transform="matrix(1,0,0,1,885,566.9047619047618) translate(289.4382716049383 46.97569444444444)"/><use xlink:href="#Z" transform="matrix(1,0,0,1,885,566.9047619047618) translate(339.1296296296296 46.97569444444444)"/><use xlink:href="#N" transform="matrix(1,0,0,1,885,566.9047619047618) translate(160.179012345679 73.64236111111111)"/><use xlink:href="#C" transform="matrix(1,0,0,1,885,566.9047619047618) translate(248.57407407407408 73.64236111111111)"/></g><path d="M849.12 530.95h276.85a6 6 0 0 1 6 6v7.57" stroke="#3a414a" fill="none"/><path d="M849.13 531.43h-.5v-.95h.5z" stroke="#3a414a" stroke-width=".05" fill="#3a414a"/><path d="M1131.97 559.3l-4.64-14.28h9.27z" stroke="#3a414a" fill="#3a414a"/><path d="M1425.4 600.92l-.07 1-.23 1-.4.93-.52.86-.66.78-.78.66-.86.53-.94.4-1 .23-.98.08h-33.52v-.95h33.48l.88-.07.84-.2.8-.33.74-.46.66-.56.57-.65.46-.74.33-.8.2-.83.06-.88V457.56h.95zm-5.45-194.4l1 .23.93.38.86.54.78.65.66.78.53.86.4.94.23 1 .08 1v23.34h-.94v-23.32l-.07-.88-.2-.84-.34-.8-.45-.74-.56-.66-.66-.56-.74-.46-.8-.33-.84-.2-.88-.07h-137.6v-.95h137.64z" stroke="#3a414a" stroke-width=".05" fill="#3a414a"/><path d="M1385.45 607.38h-.5v-.95h.5z" fill="#3a414a"/><path stroke="#3a414a" stroke-width=".05" fill="#3a414a"/><path d="M1280.82 411.54l-14.26-4.64 14.26-4.63z" fill="#3a414a"/><path d="M1281.3 412.2l-16.28-5.3 16.28-5.28zm-13.2-5.3l12.25 4v-7.98z" stroke="#3a414a" stroke-width=".05" fill="#3a414a"/><g><use xlink:href="#E" transform="matrix(1,0,0,1,1399.5295505925935,436.2380952380951) translate(0 14.222222222222223)"/></g><path d="M995.6 676.43h-80.06l-.88.07-.84.2-.8.33-.74.45-.66.57-.57.66-.45.75-.33.8-.2.84-.07.87v.65h-.95v-.7l.08-.98.23-1 .4-.93.52-.85.66-.78.78-.66.86-.52.94-.4 1-.22 1-.08h80.07zm136.84-6.46l-.08 1-.23.98-.4.94-.52.86-.65.77-.77.66-.87.52-.93.4-1 .23-.98.08h-80.1v-.95h80.05l.88-.07.85-.2.8-.33.73-.45.67-.56.57-.66.45-.74.32-.8.2-.84.07-.9v-16.5h.94z" stroke="#3a414a" stroke-width=".05" fill="#3a414a"/><path d="M1132.44 653.42h-.95v-.5h.94z" fill="#3a414a"/><path stroke="#3a414a" stroke-width=".05" fill="#3a414a"/><path d="M909.52 697.38l-4.63-14.26h9.26z" fill="#3a414a"/><path d="M909.52 698.92l-5.28-16.28h10.57zm-3.98-15.33l3.98 12.25 4-12.26z" stroke="#3a414a" stroke-width=".05" fill="#3a414a"/><g><use xlink:href="#D" transform="matrix(1,0,0,1,995.5856628417739,665.2857142857141) translate(0 14.222222222222223)"/></g><path d="M1120 1106a6 6 0 0 1 6-6h111.8a6 6 0 0 1 6 6v51.33a6 6 0 0 1-6 6H1126a6 6 0 0 1-6-6z" stroke="#3a414a" stroke-width="2" fill="#fff"/><g><use xlink:href="#F" transform="matrix(1,0,0,1,1125,1105) translate(16.351851851851855 21.15277777777778)"/><use xlink:href="#G" transform="matrix(1,0,0,1,1125,1105) translate(9.53086419753086 47.81944444444444)"/><use xlink:href="#aa" transform="matrix(1,0,0,1,1125,1105) translate(51.876543209876544 47.81944444444444)"/><use xlink:href="#ab" transform="matrix(1,0,0,1,1125,1105) translate(74.5925925925926 47.81944444444444)"/></g><path d="M1041.9 966.76v10.6m0 10.6v21.18m0 10.6v21.18m0 10.6v21.18m0 10.6v21.18m0 10.6v10.6l.04.6.15.62.23.58.33.54.4.47.5.4.52.33.58.24.6.15.64.05h9.1m9.1 0h18.2m9.1 0h9.1" stroke="#3a414a" stroke-width="2" fill="none"/><path d="M1037.9 966.76v10.6m0 10.6v21.18m0 10.6v21.18m0 10.6v21.18m0 10.6v21.18m0 10.6v10.6l.1 1.24.3 1.22.47 1.16.65 1.07.82.95.95.82 1.06.65 1.16.48 1.22.3 1.26.1h9.1m9.1 0h18.2m9.1 0h9.1" stroke="#3a414a" stroke-width="2" fill="none"/><path d="M1042.87 966.8h-1.95v-1.04h1.95zM1038.87 966.8h-1.95v-1.04h1.95z" stroke="#3a414a" stroke-width=".05" fill="#3a414a"/><path d="M1115.76 1131.67l-14.26 4.63v-9.27z" stroke="#3a414a" stroke-width="2" fill="#3a414a"/><path d="M1251.78 1077.86h-64.62l-.76.06-.73.17-.7.28-.63.4-.56.47-.5.57-.38.64-.3.7-.16.7-.06.8-.95-.08.07-.86.2-.87.35-.83.47-.76.58-.68.68-.6.77-.45.83-.35.87-.2.87-.07h64.66zm120.66-6.46l-.08 1-.23.98-.4.94-.52.87-.65.76-.77.66-.87.53-.93.4-1 .23-.98.08h-63.9v-.95h63.85l.88-.06.85-.2.8-.34.73-.45.67-.56.57-.67.45-.74.32-.8.2-.86.07-.88v-15.1h.94z" stroke="#3a414a" stroke-width=".05" fill="#3a414a"/><path d="M1372.44 1056.28h-.95v-.52h.94z" fill="#3a414a"/><path stroke="#3a414a" stroke-width=".05" fill="#3a414a"/><path d="M1181.9 1097.38l-4.63-14.26h9.27z" fill="#3a414a"/><path d="M1181.9 1098.92l-5.28-16.28h10.57zm-3.98-15.33l3.98 12.25 4-12.26z" stroke="#3a414a" stroke-width=".05" fill="#3a414a"/><g><use xlink:href="#D" transform="matrix(1,0,0,1,1251.7761391506917,1066.7142857142856) translate(0 14.222222222222223)"/></g><path d="M211.32 106a6 6 0 0 1 6-6h208a6 6 0 0 1 6 6v49.9a6 6 0 0 1-6 6h-208a6 6 0 0 1-6-6z" stroke="#3a414a" stroke-width="2" fill="#f7f4e4"/><g><use xlink:href="#ac" transform="matrix(1,0,0,1,216.32358455193094,105.00000000000001) translate(13.518518518518519 30.77777777777778)"/><use xlink:href="#ad" transform="matrix(1,0,0,1,216.32358455193094,105.00000000000001) translate(89.38271604938272 30.77777777777778)"/></g><path d="M211.32 306a6 6 0 0 1 6-6h208a6 6 0 0 1 6 6v51.33a6 6 0 0 1-6 6h-208a6 6 0 0 1-6-6z" stroke="#3a414a" stroke-width="2" fill="#f7f4e4"/><g><use xlink:href="#ac" transform="matrix(1,0,0,1,216.32358455193094,304.99999999999994) translate(21.20370370370371 31.27777777777778)"/><use xlink:href="#ae" transform="matrix(1,0,0,1,216.32358455193094,304.99999999999994) translate(97.06790123456791 31.27777777777778)"/><use xlink:href="#af" transform="matrix(1,0,0,1,216.32358455193094,304.99999999999994) translate(170.3395061728395 31.27777777777778)"/></g><path d="M321.32 163.4v119.22" stroke="#3a414a" fill="none"/><path d="M321.8 163.42h-.95v-.5h.95z" stroke="#3a414a" stroke-width=".05" fill="#3a414a"/><path d="M321.32 297.38l-4.63-14.26h9.26z" stroke="#3a414a" fill="#3a414a"/><path d="M211.32 506a6 6 0 0 1 6-6h208a6 6 0 0 1 6 6v51.33a6 6 0 0 1-6 6h-208a6 6 0 0 1-6-6z" stroke="#3a414a" stroke-width="2" fill="#f7f4e4"/><g><use xlink:href="#ac" transform="matrix(1,0,0,1,216.32358455192298,504.99999999999994) translate(18.425925925925924 21.15277777777778)"/><use xlink:href="#ag" transform="matrix(1,0,0,1,216.32358455192298,504.99999999999994) translate(94.29012345679013 21.15277777777778)"/><use xlink:href="#ah" transform="matrix(1,0,0,1,216.32358455192298,504.99999999999994) translate(87.43827160493828 47.81944444444444)"/></g><path d="M321.32 364.83V482.6" stroke="#3a414a" fill="none"/><path d="M321.8 364.85h-.95v-.52h.95z" stroke="#3a414a" stroke-width=".05" fill="#3a414a"/><path d="M321.32 497.38l-4.63-14.26h9.26z" stroke="#3a414a" fill="#3a414a"/><path d="M211.32 706a6 6 0 0 1 6-6h208a6 6 0 0 1 6 6v51.33a6 6 0 0 1-6 6h-208a6 6 0 0 1-6-6z" stroke="#3a414a" stroke-width="2" fill="#f7f4e4"/><g><use xlink:href="#ac" transform="matrix(1,0,0,1,216.32358455192298,705) translate(34.1358024691358 31.27777777777778)"/><use xlink:href="#ai" transform="matrix(1,0,0,1,216.32358455192298,705) translate(110 31.27777777777778)"/><use xlink:href="#af" transform="matrix(1,0,0,1,216.32358455192298,705) translate(157.40740740740742 31.27777777777778)"/></g><path d="M211.32 907.43a6 6 0 0 1 6-6h208a6 6 0 0 1 6 6v51.33a6 6 0 0 1-6 6h-208a6 6 0 0 1-6-6z" stroke="#3a414a" stroke-width="2" fill="#f7f4e4"/><g><use xlink:href="#ac" transform="matrix(1,0,0,1,216.32358455192298,906.4285714285216) translate(6.388888888888886 21.15277777777778)"/><use xlink:href="#ai" transform="matrix(1,0,0,1,216.32358455192298,906.4285714285216) translate(82.25308641975309 21.15277777777778)"/><use xlink:href="#aj" transform="matrix(1,0,0,1,216.32358455192298,906.4285714285216) translate(129.6604938271605 21.15277777777778)"/><use xlink:href="#ak" transform="matrix(1,0,0,1,216.32358455192298,906.4285714285216) translate(175.83333333333334 21.15277777777778)"/><use xlink:href="#al" transform="matrix(1,0,0,1,216.32358455192298,906.4285714285216) translate(92.74691358024691 47.81944444444444)"/></g><path d="M211.32 1106a6 6 0 0 1 6-6h208a6 6 0 0 1 6 6v51.33a6 6 0 0 1-6 6h-208a6 6 0 0 1-6-6z" stroke="#3a414a" stroke-width="2" fill="#f7f4e4"/><g><use xlink:href="#ac" transform="matrix(1,0,0,1,216.32358455192298,1104.9999999999998) translate(6.388888888888886 21.15277777777778)"/><use xlink:href="#ai" transform="matrix(1,0,0,1,216.32358455192298,1104.9999999999998) translate(82.25308641975309 21.15277777777778)"/><use xlink:href="#aj" transform="matrix(1,0,0,1,216.32358455192298,1104.9999999999998) translate(129.6604938271605 21.15277777777778)"/><use xlink:href="#ak" transform="matrix(1,0,0,1,216.32358455192298,1104.9999999999998) translate(175.83333333333334 21.15277777777778)"/><use xlink:href="#am" transform="matrix(1,0,0,1,216.32358455192298,1104.9999999999998) translate(79.53703703703704 47.81944444444444)"/><use xlink:href="#an" transform="matrix(1,0,0,1,216.32358455192298,1104.9999999999998) translate(102.25308641975309 47.81944444444444)"/></g><path d="M321.32 564.83v117.8" stroke="#3a414a" fill="none"/><path d="M321.8 564.85h-.95v-.52h.95z" stroke="#3a414a" stroke-width=".05" fill="#3a414a"/><path d="M321.32 697.38l-4.63-14.26h9.26z" stroke="#3a414a" fill="#3a414a"/><path d="M321.32 764.83v119.2" stroke="#3a414a" fill="none"/><path d="M321.8 764.85h-.95v-.52h.95z" stroke="#3a414a" stroke-width=".05" fill="#3a414a"/><path d="M321.32 898.8l-4.63-14.25h9.26z" stroke="#3a414a" fill="#3a414a"/><path d="M321.32 966.26v116.36" stroke="#3a414a" fill="none"/><path d="M321.8 966.27h-.95v-.5h.95z" stroke="#3a414a" stroke-width=".05" fill="#3a414a"/><path d="M321.32 1097.38l-4.63-14.26h9.26z" stroke="#3a414a" fill="#3a414a"/><path d="M1000 1360.05a6 6 0 0 1 6-6h184.2a6 6 0 0 1 6 6v48a6 6 0 0 1-6 6H1006a6 6 0 0 1-6-6z" fill="none"/><g><use xlink:href="#ao" transform="matrix(1,0,0,1,1000,1354.047619047619) translate(27.08024691358024 21.111111111111114)"/><use xlink:href="#ap" transform="matrix(1,0,0,1,1000,1354.047619047619) translate(91.77160493827161 21.111111111111114)"/><use xlink:href="#aq" transform="matrix(1,0,0,1,1000,1354.047619047619) translate(128.0679012345679 21.111111111111114)"/><use xlink:href="#ar" transform="matrix(1,0,0,1,1000,1354.047619047619) translate(52.2962962962963 47.777777777777786)"/></g><defs><path d="M75-17c87 13 134-18 134-103 0-78-51-106-134-100v203zm171-102C246 5 139 7 10 0v-9l31-5v-208l-31-4v-10h107c82 0 129 35 129 117" id="as"/><path d="M90-170c52 0 76 32 76 87 0 54-24 87-77 87-51 0-75-34-75-87 0-54 24-87 76-87zM89-10c39 0 46-35 46-73 0-39-7-73-46-73-39 1-44 34-44 73s6 72 44 73" id="at"/><path d="M45-84c0 64 52 80 104 63 1 25-30 25-55 25-56 0-80-32-80-88 0-76 62-98 131-80v46h-10c-5-15-4-31-23-35-47-10-67 21-67 69" id="au"/><path d="M124-13C89 8 26 15 26-45v-108c-8-3-24 2-21-12h50v118c-3 37 42 32 69 25v-131l-25-4v-8h54v153c8 3 24-2 21 12h-48" id="av"/><path d="M126-118c4-37-42-32-68-25v131l24 4v8H8C5-13 21-9 28-12v-141c-7-3-23 1-20-12h48l1 13c22-15 77-30 92 2 32-22 104-36 104 29v109c8 3 24-2 21 12h-75v-8l25-4v-106c3-39-45-31-72-24 7 37 1 88 3 130l25 4v8h-78v-8l24-4v-106" id="aw"/><path d="M84-170c49 0 66 33 63 87H46c-8 60 38 80 95 63v10C128-2 108 4 88 4 34 4 14-29 14-84c-1-54 22-86 70-86zm33 73c12-57-57-82-69-24-1 7-2 15-2 24h71" id="ax"/><path d="M125-118c4-37-41-34-68-26v132l23 4v8H8C5-13 21-9 28-12v-141c-7-3-23 1-20-12h47l2 13c31-23 98-29 98 31v109c7 3 23-1 20 12h-72v-8l22-4v-106" id="ay"/><path d="M54-38c-1 25 24 26 44 20v12C71 10 25 9 25-35v-115H4c-2-14 14-10 21-15l18-38h11v38h38v15H54v112" id="az"/><g id="a"><use transform="matrix(0.06172839506172839,0,0,0.06172839506172839,0,0)" xlink:href="#as"/><use transform="matrix(0.06172839506172839,0,0,0.06172839506172839,15.987654320987653,0)" xlink:href="#at"/><use transform="matrix(0.06172839506172839,0,0,0.06172839506172839,27.098765432098766,0)" xlink:href="#au"/><use transform="matrix(0.06172839506172839,0,0,0.06172839506172839,36.91358024691358,0)" xlink:href="#av"/><use transform="matrix(0.06172839506172839,0,0,0.06172839506172839,48.0246913580247,0)" xlink:href="#aw"/><use transform="matrix(0.06172839506172839,0,0,0.06172839506172839,65.30864197530865,0)" xlink:href="#ax"/><use transform="matrix(0.06172839506172839,0,0,0.06172839506172839,75.12345679012346,0)" xlink:href="#ay"/><use transform="matrix(0.06172839506172839,0,0,0.06172839506172839,86.23456790123457,0)" xlink:href="#az"/></g><path d="M52-115c0 93 80 130 150 87l7-35h11l-1 55c-23 7-52 12-83 12C60 4 19-37 15-115c-5-113 97-141 201-114l1 51h-12l-5-30c-15-9-39-16-62-16-66 0-86 41-86 109" id="aA"/><path d="M65-12l28 4v8H7v-8l28-4v-226l-28-4v-8h58v238" id="aB"/><path d="M32-163c41-10 102-14 102 39v112c8 3 24-2 21 12h-45l-4-17C83 13 3 13 13-46c-2-50 45-50 92-51 4-36-5-70-42-56-6 2-12 4-16 6-4 7 0 23-15 20v-36zM42-47c0 41 41 33 63 22v-59c-34 1-63-1-63 37" id="aC"/><path d="M41-130c7 48 86 23 86 84 0 56-69 57-112 41v-40c20 0 9 29 31 31 35 19 77-26 41-50-27-18-72-13-72-59 0-50 58-52 100-41v36c-19 1-8-25-28-25-21-7-50-1-46 23" id="aD"/><path d="M50-37c14 0 21 9 21 21S62 5 50 5C37 5 28-4 28-16s8-21 22-21zm0-132c12 0 21 9 21 21 0 13-9 22-21 22-13 0-22-9-22-22 0-12 9-21 22-21" id="aE"/><g id="b"><use transform="matrix(0.06172839506172839,0,0,0.06172839506172839,0,0)" xlink:href="#aA"/><use transform="matrix(0.06172839506172839,0,0,0.06172839506172839,14.814814814814813,0)" xlink:href="#aB"/><use transform="matrix(0.06172839506172839,0,0,0.06172839506172839,20.98765432098765,0)" xlink:href="#aC"/><use transform="matrix(0.06172839506172839,0,0,0.06172839506172839,30.80246913580247,0)" xlink:href="#av"/><use transform="matrix(0.06172839506172839,0,0,0.06172839506172839,41.91358024691358,0)" xlink:href="#aD"/><use transform="matrix(0.06172839506172839,0,0,0.06172839506172839,50.55555555555556,0)" xlink:href="#ax"/><use transform="matrix(0.06172839506172839,0,0,0.06172839506172839,60.370370370370374,0)" xlink:href="#aE"/></g><path d="M90-236h35l-11 85h-13zm-68 0h35l-11 85H33" id="aF"/><g id="c"><use transform="matrix(0.06172839506172839,0,0,0.06172839506172839,0,0)" xlink:href="#aF"/><use transform="matrix(0.06172839506172839,0,0,0.06172839506172839,9.012345679012345,0)" xlink:href="#aA"/><use transform="matrix(0.06172839506172839,0,0,0.06172839506172839,23.827160493827158,0)" xlink:href="#aB"/><use transform="matrix(0.06172839506172839,0,0,0.06172839506172839,29.999999999999996,0)" xlink:href="#aC"/><use transform="matrix(0.06172839506172839,0,0,0.06172839506172839,39.81481481481481,0)" xlink:href="#av"/><use transform="matrix(0.06172839506172839,0,0,0.06172839506172839,50.925925925925924,0)" xlink:href="#aD"/><use transform="matrix(0.06172839506172839,0,0,0.06172839506172839,59.5679012345679,0)" xlink:href="#ax"/></g><path d="M110-14l48 5v9H32v-9l48-5v-192l-48 17v-10l69-39h9v224" id="aG"/><g id="d"><use transform="matrix(0.06172839506172839,0,0,0.06172839506172839,0,0)" xlink:href="#aG"/><use transform="matrix(0.06172839506172839,0,0,0.06172839506172839,11.11111111111111,0)" xlink:href="#aF"/></g><path d="M111-226l-36 4v207c33-1 73 2 101-4l11-49h11l-3 68H10v-9l31-5v-208l-31-4v-10h101v10" id="aH"/><path d="M53-14c58 12 82-15 82-73 0-52-35-77-82-58v131zM89 4C64 4 42-2 24-9v-229l-24-4v-8h53l-1 94c48-33 114-4 114 69 0 57-23 91-77 91" id="aI"/><path d="M57-145c16-10 35-24 60-25v45c-19 1-8-30-40-17l-20 6v124l29 4v8H7v-8l21-4v-141c-8-3-24 2-21-12h48" id="aJ"/><g id="e"><use transform="matrix(0.06172839506172839,0,0,0.06172839506172839,0,0)" xlink:href="#aH"/><use transform="matrix(0.06172839506172839,0,0,0.06172839506172839,13.518518518518517,0)" xlink:href="#aC"/><use transform="matrix(0.06172839506172839,0,0,0.06172839506172839,23.333333333333332,0)" xlink:href="#aI"/><use transform="matrix(0.06172839506172839,0,0,0.06172839506172839,34.44444444444444,0)" xlink:href="#ax"/><use transform="matrix(0.06172839506172839,0,0,0.06172839506172839,44.25925925925926,0)" xlink:href="#aB"/><use transform="matrix(0.06172839506172839,0,0,0.06172839506172839,50.4320987654321,0)" xlink:href="#aB"/><use transform="matrix(0.06172839506172839,0,0,0.06172839506172839,56.604938271604944,0)" xlink:href="#ax"/><use transform="matrix(0.06172839506172839,0,0,0.06172839506172839,66.41975308641976,0)" xlink:href="#aJ"/></g><path d="M108-235c-52 28-62 95-58 178 3 56 21 97 58 119v15C7 49-17-153 67-223c12-10 25-19 41-27v15" id="aK"/><path d="M156-12c7 3 23-1 20 12h-75v-8l22-4-38-58-45 58 23 4v8H3v-8l19-3 55-71-48-71c-7-3-23 1-20-12h75v8l-22 4 32 48 37-48-23-4v-8h59v8l-19 3-46 60" id="aL"/><g id="f"><use transform="matrix(0.06172839506172839,0,0,0.06172839506172839,0,0)" xlink:href="#aK"/><use transform="matrix(0.06172839506172839,0,0,0.06172839506172839,7.345679012345679,0)" xlink:href="#au"/><use transform="matrix(0.06172839506172839,0,0,0.06172839506172839,17.160493827160494,0)" xlink:href="#at"/><use transform="matrix(0.06172839506172839,0,0,0.06172839506172839,28.271604938271604,0)" xlink:href="#ay"/><use transform="matrix(0.06172839506172839,0,0,0.06172839506172839,39.382716049382715,0)" xlink:href="#az"/><use transform="matrix(0.06172839506172839,0,0,0.06172839506172839,45.55555555555556,0)" xlink:href="#ax"/><use transform="matrix(0.06172839506172839,0,0,0.06172839506172839,55.370370370370374,0)" xlink:href="#aL"/><use transform="matrix(0.06172839506172839,0,0,0.06172839506172839,66.48148148148148,0)" xlink:href="#az"/><use transform="matrix(0.06172839506172839,0,0,0.06172839506172839,72.65432098765432,0)" xlink:href="#aE"/></g><path d="M42-37c43 0 23 74-4 81-7 4-14 8-24 11V42c17-5 29-14 31-30C42-2 20 1 21-18c0-12 9-19 21-19" id="aM"/><g id="g"><use transform="matrix(0.06172839506172839,0,0,0.06172839506172839,0,0)" xlink:href="#as"/><use transform="matrix(0.06172839506172839,0,0,0.06172839506172839,15.987654320987653,0)" xlink:href="#at"/><use transform="matrix(0.06172839506172839,0,0,0.06172839506172839,27.098765432098766,0)" xlink:href="#au"/><use transform="matrix(0.06172839506172839,0,0,0.06172839506172839,36.91358024691358,0)" xlink:href="#av"/><use transform="matrix(0.06172839506172839,0,0,0.06172839506172839,48.0246913580247,0)" xlink:href="#aw"/><use transform="matrix(0.06172839506172839,0,0,0.06172839506172839,65.30864197530865,0)" xlink:href="#ax"/><use transform="matrix(0.06172839506172839,0,0,0.06172839506172839,75.12345679012346,0)" xlink:href="#ay"/><use transform="matrix(0.06172839506172839,0,0,0.06172839506172839,86.23456790123457,0)" xlink:href="#az"/><use transform="matrix(0.06172839506172839,0,0,0.06172839506172839,92.4074074074074,0)" xlink:href="#aM"/></g><path d="M161-154L85 37C75 66 49 86 8 75V39c18-2 6 24 29 21 30-4 38-32 47-58L21-153c-7-3-20 0-17-12h77v8l-26 4 45 116 43-116-26-4v-8h62v8" id="aN"/><path d="M166-85c3 67-44 102-111 85l1 64 29 4v9H6v-9l21-4v-217c-7-3-22 1-19-12h46l1 9c11-8 26-14 45-14 47 2 64 36 66 85zM56-13c53 14 83-14 78-72 7-53-33-79-78-60v132" id="aO"/><g id="h"><use transform="matrix(0.06172839506172839,0,0,0.06172839506172839,0,0)" xlink:href="#az"/><use transform="matrix(0.06172839506172839,0,0,0.06172839506172839,6.172839506172839,0)" xlink:href="#aN"/><use transform="matrix(0.06172839506172839,0,0,0.06172839506172839,17.28395061728395,0)" xlink:href="#aO"/><use transform="matrix(0.06172839506172839,0,0,0.06172839506172839,28.39506172839506,0)" xlink:href="#ax"/><use transform="matrix(0.06172839506172839,0,0,0.06172839506172839,38.20987654320987,0)" xlink:href="#aE"/></g><g id="i"><use transform="matrix(0.06172839506172839,0,0,0.06172839506172839,0,0)" xlink:href="#aA"/><use transform="matrix(0.06172839506172839,0,0,0.06172839506172839,14.814814814814813,0)" xlink:href="#aB"/><use transform="matrix(0.06172839506172839,0,0,0.06172839506172839,20.98765432098765,0)" xlink:href="#aC"/><use transform="matrix(0.06172839506172839,0,0,0.06172839506172839,30.80246913580247,0)" xlink:href="#av"/><use transform="matrix(0.06172839506172839,0,0,0.06172839506172839,41.91358024691358,0)" xlink:href="#aD"/><use transform="matrix(0.06172839506172839,0,0,0.06172839506172839,50.55555555555556,0)" xlink:href="#ax"/><use transform="matrix(0.06172839506172839,0,0,0.06172839506172839,60.370370370370374,0)" xlink:href="#aM"/></g><path d="M13-82c-2-68 46-101 114-84 8-3 15-8 28-7V64l18 4v9h-70v-9l23-4c1-25-2-53 2-75-11 8-27 15-47 15-49-1-66-35-68-86zm113-70c-53-13-86 12-81 70-6 54 34 80 81 61v-131" id="aP"/><g id="j"><use transform="matrix(0.06172839506172839,0,0,0.06172839506172839,0,0)" xlink:href="#aD"/><use transform="matrix(0.06172839506172839,0,0,0.06172839506172839,8.641975308641975,0)" xlink:href="#ax"/><use transform="matrix(0.06172839506172839,0,0,0.06172839506172839,18.45679012345679,0)" xlink:href="#aP"/><use transform="matrix(0.06172839506172839,0,0,0.06172839506172839,29.567901234567902,0)" xlink:href="#av"/><use transform="matrix(0.06172839506172839,0,0,0.06172839506172839,40.67901234567901,0)" xlink:href="#ax"/><use transform="matrix(0.06172839506172839,0,0,0.06172839506172839,50.49382716049383,0)" xlink:href="#ay"/><use transform="matrix(0.06172839506172839,0,0,0.06172839506172839,61.60493827160494,0)" xlink:href="#au"/><use transform="matrix(0.06172839506172839,0,0,0.06172839506172839,71.41975308641975,0)" xlink:href="#ax"/><use transform="matrix(0.06172839506172839,0,0,0.06172839506172839,81.23456790123456,0)" xlink:href="#aE"/></g><g id="k"><use transform="matrix(0.06172839506172839,0,0,0.06172839506172839,0,0)" xlink:href="#ay"/><use transform="matrix(0.06172839506172839,0,0,0.06172839506172839,11.11111111111111,0)" xlink:href="#av"/><use transform="matrix(0.06172839506172839,0,0,0.06172839506172839,22.22222222222222,0)" xlink:href="#aw"/><use transform="matrix(0.06172839506172839,0,0,0.06172839506172839,39.50617283950617,0)" xlink:href="#ax"/><use transform="matrix(0.06172839506172839,0,0,0.06172839506172839,49.32098765432099,0)" xlink:href="#aJ"/><use transform="matrix(0.06172839506172839,0,0,0.06172839506172839,56.666666666666664,0)" xlink:href="#aC"/><use transform="matrix(0.06172839506172839,0,0,0.06172839506172839,66.48148148148148,0)" xlink:href="#aB"/><use transform="matrix(0.06172839506172839,0,0,0.06172839506172839,72.65432098765432,0)" xlink:href="#aM"/></g><g id="l"><use transform="matrix(0.06172839506172839,0,0,0.06172839506172839,0,0)" xlink:href="#aO"/><use transform="matrix(0.06172839506172839,0,0,0.06172839506172839,11.11111111111111,0)" xlink:href="#aC"/><use transform="matrix(0.06172839506172839,0,0,0.06172839506172839,20.925925925925924,0)" xlink:href="#az"/><use transform="matrix(0.06172839506172839,0,0,0.06172839506172839,27.098765432098762,0)" xlink:href="#az"/><use transform="matrix(0.06172839506172839,0,0,0.06172839506172839,33.2716049382716,0)" xlink:href="#ax"/><use transform="matrix(0.06172839506172839,0,0,0.06172839506172839,43.08641975308642,0)" xlink:href="#aJ"/><use transform="matrix(0.06172839506172839,0,0,0.06172839506172839,50.432098765432094,0)" xlink:href="#ay"/><use transform="matrix(0.06172839506172839,0,0,0.06172839506172839,61.5432098765432,0)" xlink:href="#aE"/></g><g id="m"><use transform="matrix(0.06172839506172839,0,0,0.06172839506172839,0,0)" xlink:href="#aF"/><use transform="matrix(0.06172839506172839,0,0,0.06172839506172839,9.012345679012345,0)" xlink:href="#aA"/><use transform="matrix(0.06172839506172839,0,0,0.06172839506172839,23.827160493827158,0)" xlink:href="#aB"/><use transform="matrix(0.06172839506172839,0,0,0.06172839506172839,29.999999999999996,0)" xlink:href="#aC"/><use transform="matrix(0.06172839506172839,0,0,0.06172839506172839,39.81481481481481,0)" xlink:href="#av"/><use transform="matrix(0.06172839506172839,0,0,0.06172839506172839,50.925925925925924,0)" xlink:href="#aD"/><use transform="matrix(0.06172839506172839,0,0,0.06172839506172839,59.5679012345679,0)" xlink:href="#ax"/></g><path d="M77 4H58l167-243h19zm-7-243c39 0 57 24 57 64 0 41-16 65-58 65-41 0-57-24-57-65s17-64 58-64zm-1 117c26 0 30-24 30-53 0-28-3-51-30-51s-29 24-29 51c0 28 2 53 29 53zm162-3c39 0 57 24 57 64 0 42-17 66-58 66-40 0-57-25-57-66s17-64 58-64zM230-8c26 0 30-24 30-53 0-28-3-51-30-51s-29 24-29 51c0 28 3 53 29 53" id="aQ"/><path d="M12-250C113-222 137-19 52 49 40 59 28 69 12 77V62C56 37 70-16 70-87c0-70-13-123-58-148v-15" id="aR"/><g id="n"><use transform="matrix(0.06172839506172839,0,0,0.06172839506172839,0,0)" xlink:href="#aQ"/><use transform="matrix(0.06172839506172839,0,0,0.06172839506172839,18.456790123456788,0)" xlink:href="#ay"/><use transform="matrix(0.06172839506172839,0,0,0.06172839506172839,29.5679012345679,0)" xlink:href="#aF"/><use transform="matrix(0.06172839506172839,0,0,0.06172839506172839,38.58024691358024,0)" xlink:href="#aR"/></g><g id="o"><use transform="matrix(0.06172839506172839,0,0,0.06172839506172839,0,0)" xlink:href="#aA"/><use transform="matrix(0.06172839506172839,0,0,0.06172839506172839,14.814814814814813,0)" xlink:href="#aB"/><use transform="matrix(0.06172839506172839,0,0,0.06172839506172839,20.98765432098765,0)" xlink:href="#aC"/><use transform="matrix(0.06172839506172839,0,0,0.06172839506172839,30.80246913580247,0)" xlink:href="#av"/><use transform="matrix(0.06172839506172839,0,0,0.06172839506172839,41.91358024691358,0)" xlink:href="#aD"/><use transform="matrix(0.06172839506172839,0,0,0.06172839506172839,50.55555555555556,0)" xlink:href="#ax"/></g><g id="p"><use transform="matrix(0.06172839506172839,0,0,0.06172839506172839,0,0)" xlink:href="#aG"/><use transform="matrix(0.06172839506172839,0,0,0.06172839506172839,11.11111111111111,0)" xlink:href="#aM"/></g><path d="M178-68c0 79-95 82-154 59v-54h12c1 35 22 52 60 52 50 0 69-58 33-82-39-24-105-21-105-85 0-67 86-66 142-53v49h-12l-6-29c-31-27-121-7-89 42 28 43 119 24 119 101" id="aS"/><g id="q"><use transform="matrix(0.06172839506172839,0,0,0.06172839506172839,0,0)" xlink:href="#aS"/><use transform="matrix(0.06172839506172839,0,0,0.06172839506172839,12.345679012345679,0)" xlink:href="#av"/><use transform="matrix(0.06172839506172839,0,0,0.06172839506172839,23.45679012345679,0)" xlink:href="#aI"/><use transform="matrix(0.06172839506172839,0,0,0.06172839506172839,34.5679012345679,0)" xlink:href="#aA"/><use transform="matrix(0.06172839506172839,0,0,0.06172839506172839,49.38271604938271,0)" xlink:href="#aB"/><use transform="matrix(0.06172839506172839,0,0,0.06172839506172839,55.55555555555555,0)" xlink:href="#aC"/><use transform="matrix(0.06172839506172839,0,0,0.06172839506172839,65.37037037037037,0)" xlink:href="#av"/><use transform="matrix(0.06172839506172839,0,0,0.06172839506172839,76.48148148148148,0)" xlink:href="#aD"/><use transform="matrix(0.06172839506172839,0,0,0.06172839506172839,85.12345679012346,0)" xlink:href="#ax"/><use transform="matrix(0.06172839506172839,0,0,0.06172839506172839,94.93827160493827,0)" xlink:href="#aM"/></g><g id="r"><use transform="matrix(0.06172839506172839,0,0,0.06172839506172839,0,0)" xlink:href="#aD"/><use transform="matrix(0.06172839506172839,0,0,0.06172839506172839,8.641975308641975,0)" xlink:href="#ax"/><use transform="matrix(0.06172839506172839,0,0,0.06172839506172839,18.45679012345679,0)" xlink:href="#aP"/><use transform="matrix(0.06172839506172839,0,0,0.06172839506172839,29.567901234567902,0)" xlink:href="#av"/><use transform="matrix(0.06172839506172839,0,0,0.06172839506172839,40.67901234567901,0)" xlink:href="#ax"/><use transform="matrix(0.06172839506172839,0,0,0.06172839506172839,50.49382716049383,0)" xlink:href="#ay"/><use transform="matrix(0.06172839506172839,0,0,0.06172839506172839,61.60493827160494,0)" xlink:href="#au"/><use transform="matrix(0.06172839506172839,0,0,0.06172839506172839,71.41975308641975,0)" xlink:href="#ax"/><use transform="matrix(0.06172839506172839,0,0,0.06172839506172839,81.23456790123456,0)" xlink:href="#aE"/></g><path d="M45-37c13 0 21 8 21 21C67-2 57 4 45 5 33 4 23-2 24-16c0-13 8-21 21-21" id="aT"/><g id="s"><use transform="matrix(0.06172839506172839,0,0,0.06172839506172839,0,0)" xlink:href="#aF"/><use transform="matrix(0.06172839506172839,0,0,0.06172839506172839,9.012345679012345,0)" xlink:href="#aQ"/><use transform="matrix(0.06172839506172839,0,0,0.06172839506172839,27.469135802469133,0)" xlink:href="#aO"/><use transform="matrix(0.06172839506172839,0,0,0.06172839506172839,38.58024691358024,0)" xlink:href="#aT"/><use transform="matrix(0.06172839506172839,0,0,0.06172839506172839,44.1358024691358,0)" xlink:href="#aQ"/><use transform="matrix(0.06172839506172839,0,0,0.06172839506172839,62.59259259259258,0)" xlink:href="#ay"/><use transform="matrix(0.06172839506172839,0,0,0.06172839506172839,73.7037037037037,0)" xlink:href="#aF"/><use transform="matrix(0.06172839506172839,0,0,0.06172839506172839,82.71604938271604,0)" xlink:href="#aR"/></g><g id="t"><use transform="matrix(0.06172839506172839,0,0,0.06172839506172839,0,0)" xlink:href="#aS"/><use transform="matrix(0.06172839506172839,0,0,0.06172839506172839,12.345679012345679,0)" xlink:href="#av"/><use transform="matrix(0.06172839506172839,0,0,0.06172839506172839,23.45679012345679,0)" xlink:href="#aI"/><use transform="matrix(0.06172839506172839,0,0,0.06172839506172839,34.5679012345679,0)" xlink:href="#au"/><use transform="matrix(0.06172839506172839,0,0,0.06172839506172839,44.382716049382715,0)" xlink:href="#aB"/><use transform="matrix(0.06172839506172839,0,0,0.06172839506172839,50.55555555555556,0)" xlink:href="#aC"/><use transform="matrix(0.06172839506172839,0,0,0.06172839506172839,60.370370370370374,0)" xlink:href="#av"/><use transform="matrix(0.06172839506172839,0,0,0.06172839506172839,71.48148148148148,0)" xlink:href="#aD"/><use transform="matrix(0.06172839506172839,0,0,0.06172839506172839,80.12345679012346,0)" xlink:href="#ax"/><use transform="matrix(0.06172839506172839,0,0,0.06172839506172839,89.93827160493827,0)" xlink:href="#aE"/></g><g id="u"><use transform="matrix(0.06172839506172839,0,0,0.06172839506172839,0,0)" xlink:href="#aF"/><use transform="matrix(0.06172839506172839,0,0,0.06172839506172839,9.012345679012345,0)" xlink:href="#aG"/><use transform="matrix(0.06172839506172839,0,0,0.06172839506172839,20.123456790123456,0)" xlink:href="#aT"/><use transform="matrix(0.06172839506172839,0,0,0.06172839506172839,25.679012345679013,0)" xlink:href="#aG"/><use transform="matrix(0.06172839506172839,0,0,0.06172839506172839,36.79012345679013,0)" xlink:href="#aF"/></g><g id="v"><use transform="matrix(0.06172839506172839,0,0,0.06172839506172839,0,0)" xlink:href="#aG"/><use transform="matrix(0.06172839506172839,0,0,0.06172839506172839,11.11111111111111,0)" xlink:href="#aT"/><use transform="matrix(0.06172839506172839,0,0,0.06172839506172839,16.666666666666664,0)" xlink:href="#aG"/><use transform="matrix(0.06172839506172839,0,0,0.06172839506172839,27.777777777777775,0)" xlink:href="#aM"/></g><path d="M47-200c-23 0-25-39 0-38 13 0 18 7 20 19-1 11-8 19-20 19zM65-12l28 4v8H8v-8l28-4v-141l-24-4v-8h53v153" id="aU"/><path d="M77-14l30 5v9H13v-9l30-5v-208l-30-4v-10h94v10l-30 4v208" id="aV"/><g id="w"><use transform="matrix(0.06172839506172839,0,0,0.06172839506172839,0,0)" xlink:href="#aH"/><use transform="matrix(0.06172839506172839,0,0,0.06172839506172839,13.518518518518517,0)" xlink:href="#aU"/><use transform="matrix(0.06172839506172839,0,0,0.06172839506172839,19.691358024691358,0)" xlink:href="#aD"/><use transform="matrix(0.06172839506172839,0,0,0.06172839506172839,28.333333333333332,0)" xlink:href="#az"/><use transform="matrix(0.06172839506172839,0,0,0.06172839506172839,34.50617283950617,0)" xlink:href="#aV"/><use transform="matrix(0.06172839506172839,0,0,0.06172839506172839,41.85185185185185,0)" xlink:href="#az"/><use transform="matrix(0.06172839506172839,0,0,0.06172839506172839,48.02469135802469,0)" xlink:href="#ax"/><use transform="matrix(0.06172839506172839,0,0,0.06172839506172839,57.839506172839506,0)" xlink:href="#aw"/><use transform="matrix(0.06172839506172839,0,0,0.06172839506172839,75.12345679012346,0)" xlink:href="#aM"/></g><path d="M126-119c3-38-42-31-69-25v132l23 4v8H7v-8l21-4v-226l-24-4v-8h53l-1 98c31-22 99-31 99 31v109c7 3 23-1 20 12h-71v-8l22-4v-107" id="aW"/><g id="x"><use transform="matrix(0.06172839506172839,0,0,0.06172839506172839,0,0)" xlink:href="#aC"/><use transform="matrix(0.06172839506172839,0,0,0.06172839506172839,9.814814814814815,0)" xlink:href="#aB"/><use transform="matrix(0.06172839506172839,0,0,0.06172839506172839,15.987654320987653,0)" xlink:href="#aO"/><use transform="matrix(0.06172839506172839,0,0,0.06172839506172839,27.098765432098766,0)" xlink:href="#aW"/><use transform="matrix(0.06172839506172839,0,0,0.06172839506172839,38.20987654320987,0)" xlink:href="#aC"/><use transform="matrix(0.06172839506172839,0,0,0.06172839506172839,48.02469135802469,0)" xlink:href="#aM"/></g><path d="M-3 46V28h186v18H-3" id="aX"/><g id="y"><use transform="matrix(0.06172839506172839,0,0,0.06172839506172839,0,0)" xlink:href="#aO"/><use transform="matrix(0.06172839506172839,0,0,0.06172839506172839,11.11111111111111,0)" xlink:href="#aC"/><use transform="matrix(0.06172839506172839,0,0,0.06172839506172839,20.925925925925924,0)" xlink:href="#az"/><use transform="matrix(0.06172839506172839,0,0,0.06172839506172839,27.098765432098762,0)" xlink:href="#az"/><use transform="matrix(0.06172839506172839,0,0,0.06172839506172839,33.2716049382716,0)" xlink:href="#ax"/><use transform="matrix(0.06172839506172839,0,0,0.06172839506172839,43.08641975308642,0)" xlink:href="#aJ"/><use transform="matrix(0.06172839506172839,0,0,0.06172839506172839,50.432098765432094,0)" xlink:href="#ay"/><use transform="matrix(0.06172839506172839,0,0,0.06172839506172839,61.5432098765432,0)" xlink:href="#aX"/><use transform="matrix(0.06172839506172839,0,0,0.06172839506172839,72.65432098765432,0)" xlink:href="#aB"/><use transform="matrix(0.06172839506172839,0,0,0.06172839506172839,78.82716049382715,0)" xlink:href="#at"/><use transform="matrix(0.06172839506172839,0,0,0.06172839506172839,89.93827160493827,0)" xlink:href="#au"/><use transform="matrix(0.06172839506172839,0,0,0.06172839506172839,99.75308641975307,0)" xlink:href="#aC"/><use transform="matrix(0.06172839506172839,0,0,0.06172839506172839,109.56790123456788,0)" xlink:href="#aB"/><use transform="matrix(0.06172839506172839,0,0,0.06172839506172839,115.74074074074072,0)" xlink:href="#aE"/></g><g id="z"><use transform="matrix(0.06172839506172839,0,0,0.06172839506172839,0,0)" xlink:href="#aF"/><use transform="matrix(0.06172839506172839,0,0,0.06172839506172839,9.012345679012345,0)" xlink:href="#aQ"/><use transform="matrix(0.06172839506172839,0,0,0.06172839506172839,27.469135802469133,0)" xlink:href="#ay"/><use transform="matrix(0.06172839506172839,0,0,0.06172839506172839,38.58024691358024,0)" xlink:href="#aR"/><use transform="matrix(0.06172839506172839,0,0,0.06172839506172839,45.92592592592592,0)" xlink:href="#aF"/><use transform="matrix(0.06172839506172839,0,0,0.06172839506172839,54.938271604938265,0)" xlink:href="#aM"/></g><path d="M141-152c28 39 5 97-54 97-9 0-20-2-27-3L49-35c29 22 130-14 124 52-4 45-38 57-88 61C21 83-8 26 45-2 33-6 22-15 21-31l28-31c-19-9-28-26-28-51-2-51 53-65 100-52l38-20 7 8zM85 64c35 0 61-11 61-42 0-35-57-17-89-21-9 8-16 19-17 34 0 25 19 29 45 29zM52-113c1 26 7 46 35 44 28-1 34-16 35-44 0-26-6-43-34-43s-36 17-36 43" id="aY"/><g id="A"><use transform="matrix(0.06172839506172839,0,0,0.06172839506172839,0,0)" xlink:href="#aO"/><use transform="matrix(0.06172839506172839,0,0,0.06172839506172839,11.11111111111111,0)" xlink:href="#aC"/><use transform="matrix(0.06172839506172839,0,0,0.06172839506172839,20.925925925925924,0)" xlink:href="#az"/><use transform="matrix(0.06172839506172839,0,0,0.06172839506172839,27.098765432098762,0)" xlink:href="#az"/><use transform="matrix(0.06172839506172839,0,0,0.06172839506172839,33.2716049382716,0)" xlink:href="#ax"/><use transform="matrix(0.06172839506172839,0,0,0.06172839506172839,43.08641975308642,0)" xlink:href="#aJ"/><use transform="matrix(0.06172839506172839,0,0,0.06172839506172839,50.432098765432094,0)" xlink:href="#ay"/><use transform="matrix(0.06172839506172839,0,0,0.06172839506172839,61.5432098765432,0)" xlink:href="#aX"/><use transform="matrix(0.06172839506172839,0,0,0.06172839506172839,72.65432098765432,0)" xlink:href="#aY"/><use transform="matrix(0.06172839506172839,0,0,0.06172839506172839,83.76543209876543,0)" xlink:href="#aB"/><use transform="matrix(0.06172839506172839,0,0,0.06172839506172839,89.93827160493827,0)" xlink:href="#at"/><use transform="matrix(0.06172839506172839,0,0,0.06172839506172839,101.04938271604938,0)" xlink:href="#aI"/><use transform="matrix(0.06172839506172839,0,0,0.06172839506172839,112.1604938271605,0)" xlink:href="#aC"/><use transform="matrix(0.06172839506172839,0,0,0.06172839506172839,121.9753086419753,0)" xlink:href="#aB"/><use transform="matrix(0.06172839506172839,0,0,0.06172839506172839,128.14814814814815,0)" xlink:href="#aE"/></g><g id="B"><use transform="matrix(0.06172839506172839,0,0,0.06172839506172839,0,0)" xlink:href="#aF"/><use transform="matrix(0.06172839506172839,0,0,0.06172839506172839,9.012345679012345,0)" xlink:href="#aQ"/><use transform="matrix(0.06172839506172839,0,0,0.06172839506172839,27.469135802469133,0)" xlink:href="#aO"/><use transform="matrix(0.06172839506172839,0,0,0.06172839506172839,38.58024691358024,0)" xlink:href="#aC"/><use transform="matrix(0.06172839506172839,0,0,0.06172839506172839,48.395061728395056,0)" xlink:href="#aJ"/><use transform="matrix(0.06172839506172839,0,0,0.06172839506172839,55.74074074074073,0)" xlink:href="#ax"/><use transform="matrix(0.06172839506172839,0,0,0.06172839506172839,65.55555555555554,0)" xlink:href="#ay"/><use transform="matrix(0.06172839506172839,0,0,0.06172839506172839,76.66666666666666,0)" xlink:href="#az"/></g><g id="C"><use transform="matrix(0.06172839506172839,0,0,0.06172839506172839,0,0)" xlink:href="#aQ"/><use transform="matrix(0.06172839506172839,0,0,0.06172839506172839,18.456790123456788,0)" xlink:href="#aB"/><use transform="matrix(0.06172839506172839,0,0,0.06172839506172839,24.629629629629626,0)" xlink:href="#at"/><use transform="matrix(0.06172839506172839,0,0,0.06172839506172839,35.74074074074073,0)" xlink:href="#au"/><use transform="matrix(0.06172839506172839,0,0,0.06172839506172839,45.55555555555555,0)" xlink:href="#aC"/><use transform="matrix(0.06172839506172839,0,0,0.06172839506172839,55.37037037037037,0)" xlink:href="#aB"/><use transform="matrix(0.06172839506172839,0,0,0.06172839506172839,61.54320987654321,0)" xlink:href="#aF"/><use transform="matrix(0.06172839506172839,0,0,0.06172839506172839,70.55555555555556,0)" xlink:href="#aR"/><use transform="matrix(0.06172839506172839,0,0,0.06172839506172839,77.90123456790124,0)" xlink:href="#aR"/></g><path fill="#333" d="M128-223l-36 5v199l103-3 14-49h16l-7 71H6v-13l30-5v-200l-30-5v-13h122v13" id="aZ"/><path fill="#333" d="M31-163c51-5 127-20 127 40v107l17 4V0h-61l-4-13C82 13 12 12 12-46c0-51 46-52 95-53 9-45-22-69-57-44l-7 20H31v-40zM62-47c0 30 26 34 45 23v-59c-28 0-45 6-45 36" id="ba"/><path fill="#333" d="M72-18c49 15 64-22 62-69-1-34-4-62-34-63-10-1-23 2-28 6v126zm33 22C77 4 48-3 21-8v-226l-16-4v-12h67c-1 31 2 66-2 94 11-8 28-14 47-14 51 0 70 31 69 83-1 55-26 91-81 91" id="bb"/><path fill="#333" d="M12-83c0-55 22-85 75-86 52-1 66 33 63 88H64c-1 37 6 64 44 63 14 0 28-4 39-6 3 28-28 25-55 27-57 4-80-31-80-86zm90-17c2-26 0-63-27-48-10 9-11 28-11 48h38" id="bc"/><path fill="#333" d="M76-16l18 4V0H7v-12l18-4v-218l-17-4v-12h68v234" id="bd"/><path fill="#333" d="M102-142c-14-17-68-15-54 18 24 26 83 17 83 72 0 62-72 62-120 47v-45h12c4 23 16 37 43 37 35 0 39-37 9-46-31-9-65-19-64-61 0-52 59-55 108-45v43h-11" id="be"/><g id="D"><use transform="matrix(0.04938271604938272,0,0,0.04938271604938272,0,0)" xlink:href="#aZ"/><use transform="matrix(0.04938271604938272,0,0,0.04938271604938272,11.851851851851853,0)" xlink:href="#ba"/><use transform="matrix(0.04938271604938272,0,0,0.04938271604938272,20.74074074074074,0)" xlink:href="#bb"/><use transform="matrix(0.04938271604938272,0,0,0.04938271604938272,30.617283950617285,0)" xlink:href="#bc"/><use transform="matrix(0.04938271604938272,0,0,0.04938271604938272,38.46913580246914,0)" xlink:href="#bd"/><use transform="matrix(0.04938271604938272,0,0,0.04938271604938272,43.40740740740741,0)" xlink:href="#be"/></g><path fill="#333" d="M92-112c43 4 61-13 61-54s-18-54-61-50v104zm118-54c0 63-50 78-118 74v74l39 5V0H8v-13l28-5v-200l-30-5v-13c88 3 205-20 204 70" id="bf"/><path fill="#333" d="M132-132c-21 0-37 9-50 16v100l26 4V0H10v-12l21-4v-133l-21-5v-11h69l2 34c17-18 35-41 71-40v61c-17 3-14-14-20-22" id="bg"/><path fill="#333" d="M127-114c3-31-26-38-50-25v123l15 4V0H10v-12l16-4v-133l-16-5v-11h64l2 14c31-23 102-32 102 30v105l17 4V0h-82v-12l14-4v-98" id="bh"/><path fill="#333" d="M78-41c-2 24 21 26 40 20C122 3 98 2 77 4 5 10 32-84 27-147H6v-11l25-7 21-38h26v38h35v18H78v106" id="bi"/><g id="E"><use transform="matrix(0.04938271604938272,0,0,0.04938271604938272,0,0)" xlink:href="#bf"/><use transform="matrix(0.04938271604938272,0,0,0.04938271604938272,10.814814814814815,0)" xlink:href="#ba"/><use transform="matrix(0.04938271604938272,0,0,0.04938271604938272,19.703703703703702,0)" xlink:href="#bg"/><use transform="matrix(0.04938271604938272,0,0,0.04938271604938272,27.209876543209873,0)" xlink:href="#bc"/><use transform="matrix(0.04938271604938272,0,0,0.04938271604938272,35.06172839506173,0)" xlink:href="#bh"/><use transform="matrix(0.04938271604938272,0,0,0.04938271604938272,44.93827160493827,0)" xlink:href="#bi"/></g><g id="F"><use transform="matrix(0.06172839506172839,0,0,0.06172839506172839,0,0)" xlink:href="#aH"/><use transform="matrix(0.06172839506172839,0,0,0.06172839506172839,13.518518518518517,0)" xlink:href="#aU"/><use transform="matrix(0.06172839506172839,0,0,0.06172839506172839,19.691358024691358,0)" xlink:href="#aD"/><use transform="matrix(0.06172839506172839,0,0,0.06172839506172839,28.333333333333332,0)" xlink:href="#az"/><use transform="matrix(0.06172839506172839,0,0,0.06172839506172839,34.50617283950617,0)" xlink:href="#aV"/><use transform="matrix(0.06172839506172839,0,0,0.06172839506172839,41.85185185185185,0)" xlink:href="#az"/><use transform="matrix(0.06172839506172839,0,0,0.06172839506172839,48.02469135802469,0)" xlink:href="#ax"/><use transform="matrix(0.06172839506172839,0,0,0.06172839506172839,57.839506172839506,0)" xlink:href="#aw"/><use transform="matrix(0.06172839506172839,0,0,0.06172839506172839,75.12345679012346,0)" xlink:href="#aE"/></g><g id="G"><use transform="matrix(0.06172839506172839,0,0,0.06172839506172839,0,0)" xlink:href="#aF"/><use transform="matrix(0.06172839506172839,0,0,0.06172839506172839,9.012345679012345,0)" xlink:href="#aG"/><use transform="matrix(0.06172839506172839,0,0,0.06172839506172839,20.123456790123456,0)" xlink:href="#aT"/><use transform="matrix(0.06172839506172839,0,0,0.06172839506172839,25.679012345679013,0)" xlink:href="#aG"/></g><g id="H"><use transform="matrix(0.06172839506172839,0,0,0.06172839506172839,0,0)" xlink:href="#aC"/><use transform="matrix(0.06172839506172839,0,0,0.06172839506172839,9.814814814814815,0)" xlink:href="#aR"/><use transform="matrix(0.06172839506172839,0,0,0.06172839506172839,17.160493827160494,0)" xlink:href="#aF"/></g><g id="I"><use transform="matrix(0.06172839506172839,0,0,0.06172839506172839,0,0)" xlink:href="#aG"/><use transform="matrix(0.06172839506172839,0,0,0.06172839506172839,11.11111111111111,0)" xlink:href="#aT"/><use transform="matrix(0.06172839506172839,0,0,0.06172839506172839,16.666666666666664,0)" xlink:href="#aG"/></g><g id="J"><use transform="matrix(0.06172839506172839,0,0,0.06172839506172839,0,0)" xlink:href="#aH"/><use transform="matrix(0.06172839506172839,0,0,0.06172839506172839,13.518518518518517,0)" xlink:href="#aU"/><use transform="matrix(0.06172839506172839,0,0,0.06172839506172839,19.691358024691358,0)" xlink:href="#aD"/><use transform="matrix(0.06172839506172839,0,0,0.06172839506172839,28.333333333333332,0)" xlink:href="#az"/></g><path d="M24-231c66-21 156 2 128 81C132-92 78-66 39-27h121V0H16v-26l59-54c26-25 47-47 47-97 0-48-47-57-81-37l-6 29H24v-46" id="bj"/><g id="K"><use transform="matrix(0.06172839506172839,0,0,0.06172839506172839,0,0)" xlink:href="#aH"/><use transform="matrix(0.06172839506172839,0,0,0.06172839506172839,13.518518518518517,0)" xlink:href="#aU"/><use transform="matrix(0.06172839506172839,0,0,0.06172839506172839,19.691358024691358,0)" xlink:href="#aD"/><use transform="matrix(0.06172839506172839,0,0,0.06172839506172839,28.333333333333332,0)" xlink:href="#az"/><use transform="matrix(0.06172839506172839,0,0,0.06172839506172839,34.50617283950617,0)" xlink:href="#aH"/><use transform="matrix(0.06172839506172839,0,0,0.06172839506172839,48.02469135802469,0)" xlink:href="#bj"/><use transform="matrix(0.06172839506172839,0,0,0.06172839506172839,59.1358024691358,0)" xlink:href="#aM"/></g><g id="L"><use transform="matrix(0.06172839506172839,0,0,0.06172839506172839,0,0)" xlink:href="#aJ"/><use transform="matrix(0.06172839506172839,0,0,0.06172839506172839,7.345679012345679,0)" xlink:href="#at"/><use transform="matrix(0.06172839506172839,0,0,0.06172839506172839,18.45679012345679,0)" xlink:href="#aw"/><use transform="matrix(0.06172839506172839,0,0,0.06172839506172839,35.74074074074074,0)" xlink:href="#aC"/><use transform="matrix(0.06172839506172839,0,0,0.06172839506172839,45.55555555555556,0)" xlink:href="#ay"/><use transform="matrix(0.06172839506172839,0,0,0.06172839506172839,56.66666666666667,0)" xlink:href="#aM"/></g><g id="M"><use transform="matrix(0.06172839506172839,0,0,0.06172839506172839,0,0)" xlink:href="#aF"/><use transform="matrix(0.06172839506172839,0,0,0.06172839506172839,9.012345679012345,0)" xlink:href="#aK"/><use transform="matrix(0.06172839506172839,0,0,0.06172839506172839,16.358024691358025,0)" xlink:href="#aQ"/><use transform="matrix(0.06172839506172839,0,0,0.06172839506172839,34.81481481481481,0)" xlink:href="#ay"/><use transform="matrix(0.06172839506172839,0,0,0.06172839506172839,45.925925925925924,0)" xlink:href="#aR"/><use transform="matrix(0.06172839506172839,0,0,0.06172839506172839,53.2716049382716,0)" xlink:href="#aF"/><use transform="matrix(0.06172839506172839,0,0,0.06172839506172839,62.28395061728395,0)" xlink:href="#aM"/></g><g id="N"><use transform="matrix(0.06172839506172839,0,0,0.06172839506172839,0,0)" xlink:href="#aF"/><use transform="matrix(0.06172839506172839,0,0,0.06172839506172839,9.012345679012345,0)" xlink:href="#aQ"/><use transform="matrix(0.06172839506172839,0,0,0.06172839506172839,27.469135802469133,0)" xlink:href="#aO"/><use transform="matrix(0.06172839506172839,0,0,0.06172839506172839,38.58024691358024,0)" xlink:href="#aC"/><use transform="matrix(0.06172839506172839,0,0,0.06172839506172839,48.395061728395056,0)" xlink:href="#aJ"/><use transform="matrix(0.06172839506172839,0,0,0.06172839506172839,55.74074074074073,0)" xlink:href="#ax"/><use transform="matrix(0.06172839506172839,0,0,0.06172839506172839,65.55555555555554,0)" xlink:href="#ay"/><use transform="matrix(0.06172839506172839,0,0,0.06172839506172839,76.66666666666666,0)" xlink:href="#az"/></g><g id="O"><use transform="matrix(0.06172839506172839,0,0,0.06172839506172839,0,0)" xlink:href="#aQ"/><use transform="matrix(0.06172839506172839,0,0,0.06172839506172839,18.456790123456788,0)" xlink:href="#aB"/><use transform="matrix(0.06172839506172839,0,0,0.06172839506172839,24.629629629629626,0)" xlink:href="#at"/><use transform="matrix(0.06172839506172839,0,0,0.06172839506172839,35.74074074074073,0)" xlink:href="#au"/><use transform="matrix(0.06172839506172839,0,0,0.06172839506172839,45.55555555555555,0)" xlink:href="#aC"/><use transform="matrix(0.06172839506172839,0,0,0.06172839506172839,55.37037037037037,0)" xlink:href="#aB"/><use transform="matrix(0.06172839506172839,0,0,0.06172839506172839,61.54320987654321,0)" xlink:href="#aF"/><use transform="matrix(0.06172839506172839,0,0,0.06172839506172839,70.55555555555556,0)" xlink:href="#aR"/></g><path d="M75-106v92l39 5v9H13v-9l28-5v-208l-31-4v-10h177v57h-11l-6-38c-28-4-63-3-95-3v98h69l5-28h11v73h-11l-5-29H75" id="bk"/><g id="P"><use transform="matrix(0.06172839506172839,0,0,0.06172839506172839,0,0)" xlink:href="#bk"/><use transform="matrix(0.06172839506172839,0,0,0.06172839506172839,12.345679012345679,0)" xlink:href="#aU"/><use transform="matrix(0.06172839506172839,0,0,0.06172839506172839,18.51851851851852,0)" xlink:href="#aY"/><use transform="matrix(0.06172839506172839,0,0,0.06172839506172839,29.62962962962963,0)" xlink:href="#av"/><use transform="matrix(0.06172839506172839,0,0,0.06172839506172839,40.74074074074074,0)" xlink:href="#aJ"/><use transform="matrix(0.06172839506172839,0,0,0.06172839506172839,48.08641975308642,0)" xlink:href="#ax"/><use transform="matrix(0.06172839506172839,0,0,0.06172839506172839,57.901234567901234,0)" xlink:href="#aE"/></g><g id="Q"><use transform="matrix(0.06172839506172839,0,0,0.06172839506172839,0,0)" xlink:href="#aF"/><use transform="matrix(0.06172839506172839,0,0,0.06172839506172839,9.012345679012345,0)" xlink:href="#bk"/><use transform="matrix(0.06172839506172839,0,0,0.06172839506172839,21.358024691358025,0)" xlink:href="#aU"/><use transform="matrix(0.06172839506172839,0,0,0.06172839506172839,27.530864197530864,0)" xlink:href="#aY"/><use transform="matrix(0.06172839506172839,0,0,0.06172839506172839,38.641975308641975,0)" xlink:href="#av"/><use transform="matrix(0.06172839506172839,0,0,0.06172839506172839,49.75308641975309,0)" xlink:href="#aJ"/><use transform="matrix(0.06172839506172839,0,0,0.06172839506172839,57.098765432098766,0)" xlink:href="#ax"/></g><g id="R"><use transform="matrix(0.06172839506172839,0,0,0.06172839506172839,0,0)" xlink:href="#bk"/><use transform="matrix(0.06172839506172839,0,0,0.06172839506172839,12.345679012345679,0)" xlink:href="#aU"/><use transform="matrix(0.06172839506172839,0,0,0.06172839506172839,18.51851851851852,0)" xlink:href="#aY"/><use transform="matrix(0.06172839506172839,0,0,0.06172839506172839,29.62962962962963,0)" xlink:href="#av"/><use transform="matrix(0.06172839506172839,0,0,0.06172839506172839,40.74074074074074,0)" xlink:href="#aJ"/><use transform="matrix(0.06172839506172839,0,0,0.06172839506172839,48.08641975308642,0)" xlink:href="#ax"/><use transform="matrix(0.06172839506172839,0,0,0.06172839506172839,57.901234567901234,0)" xlink:href="#aM"/></g><g id="S"><use transform="matrix(0.06172839506172839,0,0,0.06172839506172839,0,0)" xlink:href="#aF"/><use transform="matrix(0.06172839506172839,0,0,0.06172839506172839,9.012345679012345,0)" xlink:href="#bk"/><use transform="matrix(0.06172839506172839,0,0,0.06172839506172839,21.358024691358025,0)" xlink:href="#aU"/><use transform="matrix(0.06172839506172839,0,0,0.06172839506172839,27.530864197530864,0)" xlink:href="#aY"/><use transform="matrix(0.06172839506172839,0,0,0.06172839506172839,38.641975308641975,0)" xlink:href="#av"/><use transform="matrix(0.06172839506172839,0,0,0.06172839506172839,49.75308641975309,0)" xlink:href="#aJ"/><use transform="matrix(0.06172839506172839,0,0,0.06172839506172839,57.098765432098766,0)" xlink:href="#ax"/></g><g id="T"><use transform="matrix(0.06172839506172839,0,0,0.06172839506172839,0,0)" xlink:href="#aH"/><use transform="matrix(0.06172839506172839,0,0,0.06172839506172839,13.518518518518517,0)" xlink:href="#aU"/><use transform="matrix(0.06172839506172839,0,0,0.06172839506172839,19.691358024691358,0)" xlink:href="#aD"/><use transform="matrix(0.06172839506172839,0,0,0.06172839506172839,28.333333333333332,0)" xlink:href="#az"/><use transform="matrix(0.06172839506172839,0,0,0.06172839506172839,34.50617283950617,0)" xlink:href="#aE"/></g><g id="U"><use transform="matrix(0.06172839506172839,0,0,0.06172839506172839,0,0)" xlink:href="#aF"/><use transform="matrix(0.06172839506172839,0,0,0.06172839506172839,9.012345679012345,0)" xlink:href="#aH"/><use transform="matrix(0.06172839506172839,0,0,0.06172839506172839,22.53086419753086,0)" xlink:href="#aU"/><use transform="matrix(0.06172839506172839,0,0,0.06172839506172839,28.7037037037037,0)" xlink:href="#aD"/><use transform="matrix(0.06172839506172839,0,0,0.06172839506172839,37.34567901234567,0)" xlink:href="#az"/></g><g id="V"><use transform="matrix(0.06172839506172839,0,0,0.06172839506172839,0,0)" xlink:href="#aH"/><use transform="matrix(0.06172839506172839,0,0,0.06172839506172839,13.518518518518517,0)" xlink:href="#aU"/><use transform="matrix(0.06172839506172839,0,0,0.06172839506172839,19.691358024691358,0)" xlink:href="#aD"/><use transform="matrix(0.06172839506172839,0,0,0.06172839506172839,28.333333333333332,0)" xlink:href="#az"/><use transform="matrix(0.06172839506172839,0,0,0.06172839506172839,34.50617283950617,0)" xlink:href="#aM"/></g><g id="W"><use transform="matrix(0.06172839506172839,0,0,0.06172839506172839,0,0)" xlink:href="#aD"/><use transform="matrix(0.06172839506172839,0,0,0.06172839506172839,8.641975308641975,0)" xlink:href="#ax"/><use transform="matrix(0.06172839506172839,0,0,0.06172839506172839,18.45679012345679,0)" xlink:href="#aP"/><use transform="matrix(0.06172839506172839,0,0,0.06172839506172839,29.567901234567902,0)" xlink:href="#av"/><use transform="matrix(0.06172839506172839,0,0,0.06172839506172839,40.67901234567901,0)" xlink:href="#ax"/><use transform="matrix(0.06172839506172839,0,0,0.06172839506172839,50.49382716049383,0)" xlink:href="#ay"/><use transform="matrix(0.06172839506172839,0,0,0.06172839506172839,61.60493827160494,0)" xlink:href="#au"/><use transform="matrix(0.06172839506172839,0,0,0.06172839506172839,71.41975308641975,0)" xlink:href="#ax"/><use transform="matrix(0.06172839506172839,0,0,0.06172839506172839,81.23456790123456,0)" xlink:href="#aM"/></g><g id="X"><use transform="matrix(0.06172839506172839,0,0,0.06172839506172839,0,0)" xlink:href="#aF"/><use transform="matrix(0.06172839506172839,0,0,0.06172839506172839,9.012345679012345,0)" xlink:href="#aH"/><use transform="matrix(0.06172839506172839,0,0,0.06172839506172839,22.53086419753086,0)" xlink:href="#aU"/><use transform="matrix(0.06172839506172839,0,0,0.06172839506172839,28.7037037037037,0)" xlink:href="#aD"/><use transform="matrix(0.06172839506172839,0,0,0.06172839506172839,37.34567901234567,0)" xlink:href="#az"/></g><g id="Y"><use transform="matrix(0.06172839506172839,0,0,0.06172839506172839,0,0)" xlink:href="#aQ"/><use transform="matrix(0.06172839506172839,0,0,0.06172839506172839,18.456790123456788,0)" xlink:href="#ay"/><use transform="matrix(0.06172839506172839,0,0,0.06172839506172839,29.5679012345679,0)" xlink:href="#aF"/><use transform="matrix(0.06172839506172839,0,0,0.06172839506172839,38.58024691358024,0)" xlink:href="#aM"/></g><g id="Z"><use transform="matrix(0.06172839506172839,0,0,0.06172839506172839,0,0)" xlink:href="#aO"/><use transform="matrix(0.06172839506172839,0,0,0.06172839506172839,11.11111111111111,0)" xlink:href="#aC"/><use transform="matrix(0.06172839506172839,0,0,0.06172839506172839,20.925925925925924,0)" xlink:href="#az"/><use transform="matrix(0.06172839506172839,0,0,0.06172839506172839,27.098765432098762,0)" xlink:href="#az"/><use transform="matrix(0.06172839506172839,0,0,0.06172839506172839,33.2716049382716,0)" xlink:href="#ax"/><use transform="matrix(0.06172839506172839,0,0,0.06172839506172839,43.08641975308642,0)" xlink:href="#aJ"/><use transform="matrix(0.06172839506172839,0,0,0.06172839506172839,50.432098765432094,0)" xlink:href="#ay"/><use transform="matrix(0.06172839506172839,0,0,0.06172839506172839,61.5432098765432,0)" xlink:href="#aX"/><use transform="matrix(0.06172839506172839,0,0,0.06172839506172839,72.65432098765432,0)" xlink:href="#aY"/><use transform="matrix(0.06172839506172839,0,0,0.06172839506172839,83.76543209876543,0)" xlink:href="#aB"/><use transform="matrix(0.06172839506172839,0,0,0.06172839506172839,89.93827160493827,0)" xlink:href="#at"/><use transform="matrix(0.06172839506172839,0,0,0.06172839506172839,101.04938271604938,0)" xlink:href="#aI"/><use transform="matrix(0.06172839506172839,0,0,0.06172839506172839,112.1604938271605,0)" xlink:href="#aC"/><use transform="matrix(0.06172839506172839,0,0,0.06172839506172839,121.9753086419753,0)" xlink:href="#aB"/><use transform="matrix(0.06172839506172839,0,0,0.06172839506172839,128.14814814814815,0)" xlink:href="#aE"/></g><g id="aa"><use transform="matrix(0.06172839506172839,0,0,0.06172839506172839,0,0)" xlink:href="#aC"/><use transform="matrix(0.06172839506172839,0,0,0.06172839506172839,9.814814814814815,0)" xlink:href="#aR"/></g><g id="ab"><use transform="matrix(0.06172839506172839,0,0,0.06172839506172839,0,0)" xlink:href="#aK"/><use transform="matrix(0.06172839506172839,0,0,0.06172839506172839,7.345679012345679,0)" xlink:href="#aU"/><use transform="matrix(0.06172839506172839,0,0,0.06172839506172839,13.518518518518519,0)" xlink:href="#aR"/><use transform="matrix(0.06172839506172839,0,0,0.06172839506172839,20.864197530864196,0)" xlink:href="#aF"/></g><g id="ac"><use transform="matrix(0.06172839506172839,0,0,0.06172839506172839,0,0)" xlink:href="#aA"/><use transform="matrix(0.06172839506172839,0,0,0.06172839506172839,14.814814814814813,0)" xlink:href="#at"/><use transform="matrix(0.06172839506172839,0,0,0.06172839506172839,25.925925925925924,0)" xlink:href="#ay"/><use transform="matrix(0.06172839506172839,0,0,0.06172839506172839,37.03703703703704,0)" xlink:href="#az"/><use transform="matrix(0.06172839506172839,0,0,0.06172839506172839,43.20987654320988,0)" xlink:href="#ax"/><use transform="matrix(0.06172839506172839,0,0,0.06172839506172839,53.0246913580247,0)" xlink:href="#aL"/><use transform="matrix(0.06172839506172839,0,0,0.06172839506172839,64.13580246913581,0)" xlink:href="#az"/></g><g id="ad"><use transform="matrix(0.06172839506172839,0,0,0.06172839506172839,0,0)" xlink:href="#aK"/><use transform="matrix(0.06172839506172839,0,0,0.06172839506172839,7.345679012345679,0)" xlink:href="#as"/><use transform="matrix(0.06172839506172839,0,0,0.06172839506172839,23.333333333333332,0)" xlink:href="#at"/><use transform="matrix(0.06172839506172839,0,0,0.06172839506172839,34.44444444444444,0)" xlink:href="#au"/><use transform="matrix(0.06172839506172839,0,0,0.06172839506172839,44.25925925925926,0)" xlink:href="#av"/><use transform="matrix(0.06172839506172839,0,0,0.06172839506172839,55.37037037037037,0)" xlink:href="#aw"/><use transform="matrix(0.06172839506172839,0,0,0.06172839506172839,72.65432098765432,0)" xlink:href="#ax"/><use transform="matrix(0.06172839506172839,0,0,0.06172839506172839,82.46913580246913,0)" xlink:href="#ay"/><use transform="matrix(0.06172839506172839,0,0,0.06172839506172839,93.58024691358024,0)" xlink:href="#az"/><use transform="matrix(0.06172839506172839,0,0,0.06172839506172839,99.75308641975307,0)" xlink:href="#aR"/></g><g id="ae"><use transform="matrix(0.06172839506172839,0,0,0.06172839506172839,0,0)" xlink:href="#aK"/><use transform="matrix(0.06172839506172839,0,0,0.06172839506172839,7.345679012345679,0)" xlink:href="#aA"/><use transform="matrix(0.06172839506172839,0,0,0.06172839506172839,22.160493827160494,0)" xlink:href="#aB"/><use transform="matrix(0.06172839506172839,0,0,0.06172839506172839,28.333333333333332,0)" xlink:href="#aC"/><use transform="matrix(0.06172839506172839,0,0,0.06172839506172839,38.148148148148145,0)" xlink:href="#av"/><use transform="matrix(0.06172839506172839,0,0,0.06172839506172839,49.25925925925925,0)" xlink:href="#aD"/><use transform="matrix(0.06172839506172839,0,0,0.06172839506172839,57.90123456790123,0)" xlink:href="#ax"/></g><g id="af"><use transform="matrix(0.06172839506172839,0,0,0.06172839506172839,0,0)" xlink:href="#aG"/><use transform="matrix(0.06172839506172839,0,0,0.06172839506172839,11.11111111111111,0)" xlink:href="#aR"/></g><g id="ag"><use transform="matrix(0.06172839506172839,0,0,0.06172839506172839,0,0)" xlink:href="#aK"/><use transform="matrix(0.06172839506172839,0,0,0.06172839506172839,7.345679012345679,0)" xlink:href="#aS"/><use transform="matrix(0.06172839506172839,0,0,0.06172839506172839,19.691358024691358,0)" xlink:href="#av"/><use transform="matrix(0.06172839506172839,0,0,0.06172839506172839,30.80246913580247,0)" xlink:href="#aI"/><use transform="matrix(0.06172839506172839,0,0,0.06172839506172839,41.91358024691358,0)" xlink:href="#au"/><use transform="matrix(0.06172839506172839,0,0,0.06172839506172839,51.7283950617284,0)" xlink:href="#aB"/><use transform="matrix(0.06172839506172839,0,0,0.06172839506172839,57.90123456790124,0)" xlink:href="#aC"/><use transform="matrix(0.06172839506172839,0,0,0.06172839506172839,67.71604938271605,0)" xlink:href="#av"/><use transform="matrix(0.06172839506172839,0,0,0.06172839506172839,78.82716049382717,0)" xlink:href="#aD"/><use transform="matrix(0.06172839506172839,0,0,0.06172839506172839,87.46913580246914,0)" xlink:href="#ax"/></g><g id="ah"><use transform="matrix(0.06172839506172839,0,0,0.06172839506172839,0,0)" xlink:href="#aG"/><use transform="matrix(0.06172839506172839,0,0,0.06172839506172839,11.11111111111111,0)" xlink:href="#aT"/><use transform="matrix(0.06172839506172839,0,0,0.06172839506172839,16.666666666666664,0)" xlink:href="#aG"/><use transform="matrix(0.06172839506172839,0,0,0.06172839506172839,27.777777777777775,0)" xlink:href="#aR"/></g><g id="ai"><use transform="matrix(0.06172839506172839,0,0,0.06172839506172839,0,0)" xlink:href="#aK"/><use transform="matrix(0.06172839506172839,0,0,0.06172839506172839,7.345679012345679,0)" xlink:href="#aH"/><use transform="matrix(0.06172839506172839,0,0,0.06172839506172839,20.864197530864196,0)" xlink:href="#aU"/><use transform="matrix(0.06172839506172839,0,0,0.06172839506172839,27.037037037037035,0)" xlink:href="#aD"/><use transform="matrix(0.06172839506172839,0,0,0.06172839506172839,35.67901234567901,0)" xlink:href="#az"/></g><g id="aj"><use transform="matrix(0.06172839506172839,0,0,0.06172839506172839,0,0)" xlink:href="#aV"/><use transform="matrix(0.06172839506172839,0,0,0.06172839506172839,7.345679012345679,0)" xlink:href="#az"/><use transform="matrix(0.06172839506172839,0,0,0.06172839506172839,13.518518518518519,0)" xlink:href="#ax"/><use transform="matrix(0.06172839506172839,0,0,0.06172839506172839,23.333333333333336,0)" xlink:href="#aw"/></g><g id="ak"><use transform="matrix(0.06172839506172839,0,0,0.06172839506172839,0,0)" xlink:href="#aG"/><use transform="matrix(0.06172839506172839,0,0,0.06172839506172839,11.11111111111111,0)" xlink:href="#aT"/><use transform="matrix(0.06172839506172839,0,0,0.06172839506172839,16.666666666666664,0)" xlink:href="#aG"/></g><g id="al"><use transform="matrix(0.06172839506172839,0,0,0.06172839506172839,0,0)" xlink:href="#aC"/><use transform="matrix(0.06172839506172839,0,0,0.06172839506172839,9.814814814814815,0)" xlink:href="#aR"/><use transform="matrix(0.06172839506172839,0,0,0.06172839506172839,17.160493827160494,0)" xlink:href="#aR"/></g><g id="am"><use transform="matrix(0.06172839506172839,0,0,0.06172839506172839,0,0)" xlink:href="#aC"/><use transform="matrix(0.06172839506172839,0,0,0.06172839506172839,9.814814814814815,0)" xlink:href="#aR"/></g><g id="an"><use transform="matrix(0.06172839506172839,0,0,0.06172839506172839,0,0)" xlink:href="#aK"/><use transform="matrix(0.06172839506172839,0,0,0.06172839506172839,7.345679012345679,0)" xlink:href="#aU"/><use transform="matrix(0.06172839506172839,0,0,0.06172839506172839,13.518518518518519,0)" xlink:href="#aR"/><use transform="matrix(0.06172839506172839,0,0,0.06172839506172839,20.864197530864196,0)" xlink:href="#aR"/></g><path d="M319-222L242 5h-10l-61-162L108 5h-9L21-222l-21-4v-10h90v10l-34 4 56 166 63-163h8l61 163 54-166-37-4v-10h78v10" id="bl"/><g id="ao"><use transform="matrix(0.06172839506172839,0,0,0.06172839506172839,0,0)" xlink:href="#bl"/><use transform="matrix(0.06172839506172839,0,0,0.06172839506172839,20.925925925925924,0)" xlink:href="#aW"/><use transform="matrix(0.06172839506172839,0,0,0.06172839506172839,32.03703703703704,0)" xlink:href="#aU"/><use transform="matrix(0.06172839506172839,0,0,0.06172839506172839,38.20987654320988,0)" xlink:href="#au"/><use transform="matrix(0.06172839506172839,0,0,0.06172839506172839,48.0246913580247,0)" xlink:href="#aW"/></g><g id="ap"><use transform="matrix(0.06172839506172839,0,0,0.06172839506172839,0,0)" xlink:href="#au"/><use transform="matrix(0.06172839506172839,0,0,0.06172839506172839,9.814814814814815,0)" xlink:href="#aC"/><use transform="matrix(0.06172839506172839,0,0,0.06172839506172839,19.62962962962963,0)" xlink:href="#ay"/></g><path d="M164-154L98 4H85L17-153c-7-3-20 0-17-12h77v8l-26 4L99-38l46-115-26-4v-8h61v8" id="bm"/><g id="aq"><use transform="matrix(0.06172839506172839,0,0,0.06172839506172839,0,0)" xlink:href="#aW"/><use transform="matrix(0.06172839506172839,0,0,0.06172839506172839,11.11111111111111,0)" xlink:href="#aC"/><use transform="matrix(0.06172839506172839,0,0,0.06172839506172839,20.925925925925924,0)" xlink:href="#bm"/><use transform="matrix(0.06172839506172839,0,0,0.06172839506172839,32.03703703703704,0)" xlink:href="#ax"/></g><path d="M103-236c-39-15-35 32-34 71h44v15H69v136l35 6v8H15v-8l25-6v-136H11v-9l29-7c-6-59 23-100 80-84v36c-15 2-12-14-17-22" id="bn"/><g id="ar"><use transform="matrix(0.06172839506172839,0,0,0.06172839506172839,0,0)" xlink:href="#aD"/><use transform="matrix(0.06172839506172839,0,0,0.06172839506172839,8.641975308641975,0)" xlink:href="#av"/><use transform="matrix(0.06172839506172839,0,0,0.06172839506172839,19.753086419753085,0)" xlink:href="#aI"/><use transform="matrix(0.06172839506172839,0,0,0.06172839506172839,30.864197530864196,0)" xlink:href="#bn"/><use transform="matrix(0.06172839506172839,0,0,0.06172839506172839,38.20987654320987,0)" xlink:href="#aU"/><use transform="matrix(0.06172839506172839,0,0,0.06172839506172839,44.382716049382715,0)" xlink:href="#aY"/><use transform="matrix(0.06172839506172839,0,0,0.06172839506172839,55.49382716049382,0)" xlink:href="#av"/><use transform="matrix(0.06172839506172839,0,0,0.06172839506172839,66.60493827160494,0)" xlink:href="#aJ"/><use transform="matrix(0.06172839506172839,0,0,0.06172839506172839,73.95061728395062,0)" xlink:href="#ax"/><use transform="matrix(0.06172839506172839,0,0,0.06172839506172839,83.76543209876543,0)" xlink:href="#aD"/></g></defs></g></svg>